<?xml version="1.0" encoding="UTF-8"?>
<svg id="a" data-name="Ebene 1" xmlns="http://www.w3.org/2000/svg" viewBox="0 0 457.8 142.3">
  <polygon points="290.4 58 258.2 58 242.1 85.9 258.2 113.8 290.4 113.8 306.5 85.9 290.4 58" style="stroke-width: 0px;"/>
  <polygon points="340.7 86.5 308.5 86.5 292.4 114.4 308.5 142.3 340.7 142.3 356.8 114.4 340.7 86.5" style="fill: #3c3c3b; stroke-width: 0px;"/>
  <polygon points="340.7 28.8 308.5 28.8 292.4 56.7 308.5 84.6 340.7 84.6 356.8 56.7 340.7 28.8" style="fill: #575756; stroke-width: 0px;"/>
  <polygon points="390.8 58 358.6 58 342.5 85.9 358.6 113.8 390.8 113.8 406.9 85.9 390.8 58" style="fill: #706f6f; stroke-width: 0px;"/>
  <polygon points="441.7 86.5 409.5 86.5 393.4 114.4 409.5 142.3 441.7 142.3 457.8 114.4 441.7 86.5" style="fill: #9d9d9c; stroke-width: 0px;"/>
  <polygon points="390.8 0 358.6 0 342.5 27.9 358.6 55.7 390.8 55.7 406.9 27.9 390.8 0" style="fill: #878787; stroke-width: 0px;"/>
  <g>
    <path d="m38.7,31.9h10.8v82.8h-23c-8.1,0-14.5-2.5-19.3-7.6S0,95.1,0,86.6c0-8,2.5-14.6,7.6-19.8,5-5.2,11.5-7.8,19.3-7.8,3.6,0,7.6.8,11.9,2.3l-.1-29.4h0Zm0,73.6v-34.6c-3.4-1.7-6.8-2.5-10.2-2.5-5.4,0-9.7,1.8-12.8,5.3-3.2,3.5-4.8,8.3-4.8,14.2s1.4,9.9,4.1,13c1.7,1.8,3.4,3,5.3,3.7,1.9.6,5.2.9,10,.9h8.4Z" style="fill: #fefefe; stroke-width: 0px;"/>
    <path d="m75,60.2v6.9c4.8-5.3,10.3-8,16.4-8,3.4,0,6.6.9,9.5,2.6,2.9,1.8,5.1,4.2,6.7,7.2,1.5,3.1,2.3,7.9,2.3,14.5v31.2h-10.9v-31.1c0-5.6-.9-9.6-2.5-11.9-1.7-2.4-4.5-3.6-8.5-3.6-5.1,0-9.4,2.5-13,7.6v38.9h-11v-54.5h11v.2Z" style="fill: #fefefe; stroke-width: 0px;"/>
    <path d="m160.3,30.8h4.9v46.5h9.2v10.1h-9.2v27.3h-11.6v-27.3h-35v-5.1l41.7-51.5Zm-6.7,46.5v-24l-19.2,24h19.2Z" style="fill: #fefefe; stroke-width: 0px;"/>
    <path d="m202.9,103.3h31.5v11.4h-52.4v-.8l5-5.9c7.8-9.6,14-17.8,18.6-24.5s7.6-11.8,9-15.2c1.4-3.4,2.1-6.8,2.1-10.2,0-4.7-1.3-8.4-4-11.2-2.6-2.8-6.2-4.2-10.5-4.2-3.3,0-6.6,1-9.8,2.9-3.2,2-6.1,4.7-8.7,8.3v-15.1c6.4-5.3,13.1-7.9,19.9-7.9,7.2,0,13.2,2.4,17.9,7.2s7,10.9,7,18.4c0,3.3-.6,6.9-1.7,10.6-1.2,3.8-3.2,8.1-6.2,13s-8,11.6-15.1,20.1l-2.6,3.1Z" style="fill: #fefefe; stroke-width: 0px;"/>
  </g>
</svg>