<?xml version="1.0" encoding="utf-8"?>
<!-- Generator: Adobe Illustrator 27.8.1, SVG Export Plug-In . SVG Version: 6.00 Build 0)  -->
<svg version="1.1" id="a" xmlns="http://www.w3.org/2000/svg" xmlns:xlink="http://www.w3.org/1999/xlink" x="0px" y="0px"
	 viewBox="0 0 759.2 712.3" style="enable-background:new 0 0 759.2 712.3;" xml:space="preserve">
<style type="text/css">
	.st0{fill:#050606;}
	.st1{fill:#3D0F10;}
	.st2{fill:#1F5658;}
	.st3{fill:#19303B;}
	.st4{fill:#9CD3AE;}
	.st5{fill:#6FBFAF;}
	.st6{fill:#A7DAB1;}
	.st7{fill:#76B396;}
	.st8{fill:#41978D;}
	.st9{fill:#D1D3D1;}
	.st10{fill:#FDF4EE;}
	.st11{fill:#FDFDFD;}
	.st12{fill:#BC9066;}
	.st13{fill:#E9C28E;}
	.st14{fill:#FDDCD3;}
	.st15{fill:#D2FED8;}
</style>
<path class="st0" d="M680.9,425.8c2.2,7.3,7.1,12.9,12,18.5c3.9,4.5,7.5,9.2,12.3,12.8c2.3,1.7,1.7,2.8,0.1,4.2
	c-1.7,1.4-3.7,2.1-5.8,2.4c-18.3,2.8-34.7-1.4-49.3-12.8c-1.4-1.1-3-2.8-3.9,0.5c-3.5,11.9-9.9,22-18.2,31.1
	c-0.2,0.2-0.2,0.6-0.3,0.9c-3.6,4.4-8.2,3.5-12.8,2.5c-1.8-3.1,1.1-4.4,2.7-5.9c6.8-6.6,12.8-13.7,16.8-22.4
	c2.5-5.5,3.8-11.2,5.4-16.9c0.5-1.9,0.9-3.9,3.2-4.6c3.4-0.4,4.9,2.5,7,4.2c9.8,11.2,23.2,14.5,37,17c0.6,0.1,1.3,0.1,2,0
	c1.1-0.1,2.5,0.2,3-1.1c0.5-1.3-0.5-2.2-1.4-2.9c-4.3-3.4-7.4-7.9-10.4-12.5c-11.6-18-18.7-37.7-23.6-58.4c-3.5-15-7-29.9-12.3-44.3
	c-2.7-11.4-6.9-22.2-11.8-32.9c-2.1-4.5-3.3-4.5-6.3-0.6c-2.4,3-2.7,6.1-1.2,9.7c2.4,5.8,1.6,7.9-3.8,11.4c-8,1.7-14.9-0.8-21.3-5.5
	c-2.4-1.9-5.2-3.4-7.5-5.5c-0.5-0.5-1-1-1.5-1.5c-2.5-4.6-6.3-7.1-11.4-8.4c-4.7-1.1-8.7-4.1-12.1-7.4c-2.4-2.4-4.1-2.7-6.1,0.2
	c-0.5,0.7-1.2,1.1-2,1.4c-8.1,1.9-12.1-5.2-13.3-13c-1.1-8,0-15.8,4.4-22.8c2.9-4.7,3-10.4,5.3-15.3c0.4-1.7,0.9-3.4,1.6-5.1
	c3-4.3,6.3-8.4,9.7-12.4c4.1-4.7,6.3-10,4-16.3c-0.7-2-0.6-4,1-5.5c1.6-1.5,1-2.5-0.2-3.7c-4-3.8-7.4-8.5-13-10.4
	c-8.3-8-17.3-15.3-26.6-22.1c-9.8-7.2-20.1-13.8-31-19.3c-0.4-0.2-0.8-0.4-1.2-0.7c-1.4-1.4-3-2.6-4.8-3.5c-1-0.4-2.1-0.8-3.2-1.1
	c-5.1-1.2-9.6-4.3-14.8-5.2c-1.5,0-3-0.1-4.5-0.2c-2.3-0.5-4.7-0.6-6.7-1.9c-1.7-3.1,0.5-5,2.3-6.9c12.4-13.5,20-29.3,23.4-47.2
	c1.3-6.5,0.3-12.3-3.4-17.9c-9.7-14.7-22.8-26-37.4-35.4c-19.7-12.7-41.4-20.3-64.5-23.4C374.7,8,363,7.8,351.4,9.9
	c-0.7,0.2-1.5,0.3-2.2,0.5c-1,0.2-1.9,0.5-2.9,0.7c-10.9,1.7-20.6,6.4-28.5,11.6c8.4-0.2,18.2,1,27.9,2.3c8.1,3.1,16.7,4.9,24.7,8.7
	c24.1,11.3,42.5,28.6,55.3,51.9c5.6,10.3,10.5,20.9,12.3,32.7c0.5,3.4,0.4,6.9,0.3,10.4c-0.1,2-0.4,4-2.5,5.1
	c-2.3,0.9-4.6,0.6-7,0.7c-6.3,0.3-10.2,4.9-14.8,8.2c-1.6,1.2-3,2.6-4.2,4.2c-2.6,3.5-5,3-7.7,0.1c-4.7-5.2-10.4-9-16.4-12.6
	c-11.7-7-24-7.3-36.8-4.3c-13.9,3.3-26.8,9-39.5,15.3c-29.8,14.8-54.7,36-77.2,60.2c-3.3,3.6-6.7,7.3-9.7,11.2
	c-1.6,2.1-3.5,3.9-6,5.1c-0.7,0.3-1.3,0.4-2,0.5c-5,0.9-8.5,4.4-12.5,7.3c-0.3,0.3-0.7,0.6-1.1,0.8c-0.4,0.3-0.8,0.5-1.2,0.7
	c-2.9,1.2-5.5,2.9-7.9,4.9c-7.2,6.2-15.5,11.1-22.3,17.8c-5.5,5.4-10.9,10.9-15.7,16.9c-26.5,25.8-42.9,58.2-59.7,90.4
	c-1.2,2-2.1,4.1-3.2,6.2c-2.1,3.3-4.3,6.5-5.8,10c-6.7,13.1-14.6,25.5-22.7,37.7c-4.2,6.3-8.4,12.6-14,17.9
	c-5.2,6.4-10.3,12.8-16.3,18.5c-5.5,5.9-11.7,11.1-17.9,16.3c-3.8,3.2-3.7,5,0.8,6.3c14.2,4.1,28.3,4.3,42.1-1.7
	c3.7-1.6,7.4-2.7,11.4-2.5c8.6,0.3,15-2.5,19.3-10.8c3.9-7.5,10.3-13.1,18.6-16.2c7.5-2.8,14.2-2.1,20.3,3.2
	c6.1,5.3,4.4,12.2,3.8,18.9c-0.1,1-1,1.7-0.8,3c10.4-4.5,19-11.1,24.8-20.9c0.8-1.3,1.6-2.5,2.9-3.4c2.4-0.9,4.5-3.4,7.4-1.2
	c0.6,8.6-1.6,16.8-3.5,25c-0.7,3.2-2.3,6.1-2.7,9.4c-5.6,14.8-12,29.2-21.8,41.8c-2.1,2.7-1.2,3.2,1.8,3.8
	c9.9,1.9,19.6-0.2,29.5-0.5c1.8,0,3.6-0.8,5.2,0.4c0.1,6.1-2.1,8.4-8,8.3c-5.3,0.5-10.6,1.2-15.9,0.6c-1.3-0.2-1.8,0.6-1.9,2.1
	c-1.1,9.5-3.4,11.5-13.3,12c-1.5,0.1-2.9,0-4.4,0c-1.2-1.2-2.8-1.7-4.2-2.4c-2.3-1.3-3.5-2.9-2.1-5.5c1.8-1.5,4-1.1,6.1-1.2
	c2.6-0.2,5.3,0,7.4-2.6c-2.7-2.5-6.2-2.1-9.2-2.9c-10.8-3-11.7-6.5-3.8-14.6c9.2-9.4,16.4-20.1,19.3-33.2c-0.2-3.4,0.9-6.7,1.7-10.8
	c-8.3,3.6-16,6.6-24.2,8.1c-7.1-1-8.6-4.2-4.2-9.8c2.8-3.6,5.4-7.1,4.9-12c-0.5-4.6-2.8-6.8-7.4-6.9c-6.3-0.1-10.8,3.3-14.7,7.8
	c-2.3,2.6-3.9,5.7-5.4,8.8c-1.8,3.8-4.8,6.3-8.7,7.5c-5.8,1.8-11.7,3.4-17.8,3.6c-3.2-0.2-6.1,0.5-9,2.1c-2,1.1-4.1,2.3-6.4,2.4
	c-7.4,0.4-10.7,4.6-11.5,11.5c-2.4,8.4-3.3,17.1-5.1,25.7c-2.8,1.9-6.6,2-8.8,4.9c-3.4-2.5-1.3-6-0.8-8.7c1.5-8.5,2.9-17.2,5.5-25.5
	c1.1-3.7,1.3-6.3-4.1-6.4c-6.9-0.2-13.6-1.7-19.8-5c-1.3-0.7-2.7-1.4-3.7-2.4c-5.2-4.8-5.2-8.1,0.3-12.6c9.8-8,19-16.7,27.7-25.9
	c5-5.3,9.7-10.9,13.4-17c2.3-3.9,6.4-5.8,8.6-9.9c4.1-7.6,6.4-15.8,9.1-23.9c4.2-12.4,8.8-24.7,13.9-36.8
	c4.6-10.6,8.2-21.7,12.6-32.4c1.1-2.6,0.5-3.8-1.5-5.3c-4.8-3.7-8.4-8.1-8.8-14.6c-0.3-6,1.9-8.6,7.8-8.6c5.9,0,12-6.2,11.1-12
	c-1.9-12.9-0.9-25.2,5-37c0.5-1,1.4-2.4,0-3.1c-6.6-3-1.8-8-2.2-12.1c0-0.5,0-0.9,0.1-1.6c-4.3,0.6-4.8,4-5.7,7
	c-2.6,9.1-7.4,16.4-16.7,19.8c-2,0.7-4.2,1.1-6-0.7c-1.9-1.8-0.3-3.7-0.4-5.5c0-1.5,2.6-3.1,0.3-4.2c-1.5-0.7-2.6,1.2-3.2,2.5
	c-8.2,16.1-24,18.5-39.2,22.1c-2.4,0.6-4.2-0.9-5.7-2.2c-1.6-1.4,0-3.1,0.8-4.5c3.7-6.4,2-13.4,2.3-20.1c0.3-6.9,2.9-12.3,7.3-17.2
	c2.8-3.1,5.8-6.2,7.5-10c-1-0.8-1.8-0.4-2.6-0.2c-2,0.4-3.9,3.2-5.7,1.6c-1.8-1.7-1.8-5-1.4-7.4c2.1-10.6,6.3-20.4,13.5-28.6
	c1.6-1.8,2.5-4.3,4.9-5.4c0.8-0.4,0.8-1.1,0.5-1.7c-0.5-0.9-1.4-0.6-2.2-0.2c-1.6,0.7-2.6,2-3.6,3.3c-0.9,1-1.9,1.9-3.4,1.2
	c-1.3-0.6-2.1-1.4-1.8-3.1c1.5-8.5,1.4-17.2,5-25.4c3.4-7.8,8.4-14.6,12-22.2c1-2,0.9-4.1,1.2-6.3c0.7-4.4,2.4-8,7-9.8
	c4.5-1.8,7-1.2,10.2,3c8.9,11.5,16.8,23.6,25.4,35.2c11.4,15.4,22.1,31.4,32.9,47.2c2.3,3.4,3.2,2.6,4.9-0.4
	c7.3-12.9,16.9-24,27.5-34.3c10.2-10,21.2-19.2,33.4-26.5c6.9-4.1,13.1-9.5,20.5-12.7c1.4-0.6,2.3-1.7,3.2-3
	c8.6-12.4,20.2-21.4,33-29c19.6-11.4,40.8-18.6,62.6-24c13.9-3.4,28.1-5.8,42.4-7.1c9.2-0.8,18.2-0.9,28.1-0.6
	c-4-4.9-9.1-7.3-13.8-10c-12.7-7.2-26.1-11.9-40.8-13.5c-9.6-1.1-19-0.9-28.4,1.1c-2.5,0.5-4.8-0.1-6.2-2.1
	c-1.5-2.1-0.3-4.1,1.2-5.8c7.2-8.5,16.2-14.6,26.6-18.4c21.8-8.1,44.2-9,67-4.7c20.5,3.9,39.9,10.9,57.6,21.7
	c11.5,7,22.4,14.9,31.2,25.4c3,3.6,6.5,6.8,9.6,10.4c8.4,9.6,8.2,20.6,5.5,31.9c-0.7,2.7-0.6,3.8,2.3,4.5c3.4,0.9,6.3,3.4,8.1,6.1
	c3.6,5.2,8.5,8.5,13.7,11.7c8.3,5.2,16.6,10.5,24.8,15.9c19.3,12.9,36,28.1,46.8,49.2c5,9.8,10.6,19.2,14.1,29.7
	c1,3.1,1.2,6.3,2,9.5c1.8,7.1,4.3,13.1,11.3,16.6c3.4,1.7,6.2,4.4,8.6,7.3c2,2.3,3.1,1.4,4.5-0.5c2.5-3.5,4.3-3.6,6.9,0
	c3.4,4.6,4.4,10,4.3,15.7c-0.1,4.3-1.2,8.1-3.8,11.4c-2.4,3.1-2.2,6.8-3,10.3c-0.8,3.5-3,6.5-2.8,10.2c-0.5,5.1,1.7,9.2,4.5,13.2
	c2.5,6.3,5.7,12.3,7.5,19c6.5,20.7,13,41.4,16.8,62.9c2,11.6,6,22.4,12.2,32.4C678.3,420.2,680.9,422.7,680.9,425.8L680.9,425.8z"/>
<path class="st1" d="M614.1,485.1c4.7,0.3,9.3,0.5,13.7-1.7c1.5,0.2,2.8-0.5,4.3-0.9c11.4-3.5,22.1-1.8,32.6,3.7
	c7.7,4,14.5,8.8,20.4,15c8.3,8.6,15.2,18.3,16.3,30.8c0.3,2.8,1.6,4.1,3.9,5c7.9,3.4,14.5,8.9,21.5,13.8c2,1.4,1.8,3.3,1.8,5.3
	c0.1,11.3-3.5,21.7-7.9,31.8c-6.4,14.6-13.6,28.8-25,40.3c-3.7,3.7-8,5.5-13.6,4.5c-12.8-2.2-24.1-8.4-35.8-13.4
	c-2.3-1-4.2-0.9-6.6-0.4c-20.6,4.2-40.3,2.8-56.7-12.1c-9.1-8.3-13.2-19.5-14.6-31.5c-1.3-12.2-0.8-24.5,2.7-36.5
	c0.1-0.2-0.2-0.6-0.3-0.9c-0.6-1.9,1.2-2.9,1.8-4.4c0.9-2.3,1.4-4.4-0.8-6.3c-16.3-10.8-9.6-37.9,8.7-44.6c0.7-0.3,1.5-0.4,2.2-0.5
	c4,0.1,7.8-1.2,11.8-1.1c2.5,0.1,3.1-1.2,2.3-3.5c-0.9-2.8-2.5-5.4-3.2-8.2c-0.2-0.9-0.5-1.8-0.8-2.7c-0.2-0.7-0.5-1.4-0.6-2.1
	c-2.8-13.2-9-25.5-10-39.1c-0.1-0.6-1,0.2-0.4,0c0.2-0.1,0.3,0,0.3,0.4c-0.3,4.6-2.6,8.5-4.7,12.4c-2.5,4.9-2.6,4.9,2.4,7.6
	c2,1.1,4,2.3,5.8,3.8c5.4,4.4,6,8.4,2,14.6c-3.7,2.6-7.1,1.2-10.6-0.7c-15-8.3-31.4-11.3-48.1-13.5c-8.4-0.6-16.6-2-25-2
	c-4,0-6.4-2.3-7.3-6.1c-0.9-3.9,0.8-6.7,4-8.8c2.3-1.5,4.9-1.7,7.6-1.8c6.2,0,12.5-0.3,18.8,0.2c3,0.2,5.5-0.4,7.4-2.8
	c0.8-1,1.9-1.9,3-2.6c4.8-3.3,7.8-2.5,11.1,2.4c1.5,2.3,1.2,5.6,4.2,6.9c0.6,0.2,1.2,0.5,1.9,0.6c1.1,0.3,2.3,1.3,3.2,0.3
	c0.9-0.9,0.1-2.2-0.2-3.3c-3.2-12.6-8.7-24.5-13-36.7c-3.3-9.2-10.4-13-18-17c-0.9-0.5-1.8-0.9-2.7-1.3c-3.6-2-6.7-4.6-10.3-6.6
	c-0.9,1.7,0.2,2.7,0.8,3.7c1.2,2.3,1.4,4.4-0.4,6.4c-2.5,2.6-2.6,5.9-3.2,9.2c-2,10.5-3.8,21.1-7.2,31.3c-0.4,1-0.8,1.9-1,2.9
	c-1.1,3.5-2.6,6.7-4.5,9.8c-2,3.3-5,5-8.7,3.9c-3.8-1.1-7.7-1.3-11.6-1.7c-7.2-0.7-8-1.5-9.2-8.9c-0.2-3.3,0.2-6.5,0.6-10.1
	c0-0.4-1.1,0.3-0.5,0.2c0.4,3.6-0.5,7-0.8,10.5c-2.7,7-3.3,7-10.9,6.9c-18.2-0.3-36.5-1.1-54.6,1.6c-2.7,0.2-5.5-0.2-8.2,0.4
	c-1,0.2-2,0.2-3.1,0.1c-0.7-0.1-1.4-0.3-2.1-0.4c-1.6-0.2-3.2-0.2-4.8-0.1c-0.9,0-1.8,0.3-2.7,0.5c-1.6,0.4-3.2,0.8-4.7,1.3
	c-1.9,0.6-3.7,1.2-5.7,0.7c-1.2-0.3-2.3-0.7-3.4-1.4c-1.5-1.5-2.8-3.2-3.8-5.1c-1.5-5.3-5.3-3.6-8.8-3c-8.9,3.5-17.5,7.5-24.7,14.1
	c-2.8,1.1-5.4,2.5-7.8,4.3c-5.4,3.5-9.8,8.1-14.9,12c-1.9,1.5-3,4.1-1.3,6.1c2.9,3.6,3.8,8.4,7.4,11.5c3.8,5.9,7.6,11.8,13.2,16.3
	c4.2,5.2,9.7,8.8,15.2,12.4c0.7,0.5,1.5,0.8,2.1,1.2c2.4,1.6,4.9,3.2,4.4,6.5c-0.4,3.2-3.3,4.4-5.9,5.3c-5.9,1.9-11.9,2-18,1.2
	c-1.3-0.2-2.6-0.5-3.9-0.7c-1.7,0-3.3-1.4-5.2-0.3c0.3,2.4,2.4,3.4,3.8,4.9c0.4,0.3,0.8,0.6,1.2,0.9c0.4,0.3,0.8,0.6,1.3,0.9
	c7.1,6.3,14.7,11.5,24.1,14.1c5.9,1.6,6.6,6.8,2,11c-1.7,1.6-3.8,2.7-5.9,3.6c-1.9,0.9-3.7,2-6.6,2.6c10.9,3,21.4,3.9,31.8,5.2
	c18.2,2.2,36.5,2.5,54.8,2c21.3-0.5,42.3-3,63.3-6.8c14-2.5,27.8-5.6,41.3-10.1c1-0.3,1.9-0.4,2.9-0.1c2,1.5,0.6,3-0.1,4.2
	c-0.9,1.5-1.9,3.1-2.9,4.5c-1.3,1-2.8,1-4.2,1.1c-1,0.1-1.8,0.4-2.5,1.1c-0.4,0.3-0.7,0.7-1.1,0.9c-7.2,3-14.7,4.6-22.4,5.8
	c-3.8,0.6-5.7,2-5.4,6c0.3,4.1-1,8.2-1.1,12.3c-0.7,3.9-1.4,7.8-2.5,11.5c-1.8,5.8-2.6,5.9,4,7.5c2.7,0.7,5.6,1.1,7,4
	c-0.2,5-0.3,5-6.5,4.9c-9.5-2.7-16.8,0.3-22.4,8.3c-0.7,1.1-1.9,1.8-3.1,2.3c-2.7,1.6-4.8,5-8.7,2.6c-1.6-2.7-0.1-5.1,1-7.5
	c1.9-4.2,3.8-8.4,5.7-12.6c1.1-2.5,1.5-5,0-7.6c-2.4-4.1-4.5-4.2-7.5-0.2c-1.2,2.3-0.5,4.8-0.8,7.3c-0.6,5.7-3,8.7-7.7,9.8
	c-1.8-1.4-0.9-3-0.2-4.4c2.2-4.7,2-9-1.8-12.7c-3-2.8-7.6-2.3-13.6,1.5c5-1.4,9.3-3.6,12.7,1c1.9,2.6,2.6,5.6,0.9,8.4
	c-2.8,4.7-7.7,3.5-12.7,3.2c4.1,2.3,7.7,3.3,11.7,2.2c1-0.3,2-0.3,2.8,0.6c2.2,3.6-0.8,5.5-2.5,7.9c-1.1,0.7-2.3,1.4-3.6,0
	c2,2.6,6.8,2.4,6.4,7c-1.3,1.9-3.3,2.1-5.2,2.4c-4-0.5-7.2-3-10.5-5c-2.1-2-6.6-0.5-7.3-4.8c-0.1-0.7,0-1.3,0.1-2
	c0.1-2-1.1-3.3-2.8-3.4c-2.5-0.2,0,2.6-1.6,3.2c-2.3,1.2-4.4,0.2-6.5-0.7c-1.8-0.8-3.6-1.5-5.4,0c-3.6,0.9-7.2-0.1-10.8,0.6
	c-11.5,2.1-15.7,8.2-12.8,19.5c1.2,4.8,3.4,9.3,6.3,13.4c1.1,1.6,2.8,3,1.9,5.3c-3.6,2.9-5.7-1-8.5-1.8c-2.4-1.4-3.5-3.6-3.9-6.3
	c-0.2-2.1-0.9-4-2.3-5.6c-0.6-1-0.9-2.1-1.3-3.2c-0.6-2.3-0.3-4.8-1.2-7c0.3,2.7,0,5.5,1,8.1c2.7,9.1,5.8,18,12.3,25.3
	c1,1.3,1.8,2.8,3.1,3.8c2.6,2,3.8,1.4,4.4-2.4c-0.1-2-1.1-3.7-2.1-5.4c-0.8-1.4-1.9-2.8-0.7-4.5c5.2-2.7,10.5-1.3,15.7-0.1
	c-0.9,3-3.5,5.4-3,8.8c-0.7,2.3-0.9,4.8-1.6,7.1c-0.1,0.7-0.4,1.5-0.7,2.1c-0.2,0.5-0.5,0.9-0.9,1.2c-5.3,5.6-11.3,5.7-16.6,0.2
	c-8.9-9.3-15.5-20-18.4-32.7c-1.1-5.1-0.8-10.2-0.5-15.3c0.2-3.5,2.8-5.8,5-8.2c-1.6-1.4-3.2-0.2-4.5-0.9c-2.3-1.3-3.2-3.8-4.6-5.8
	c0.2-1.9,1.5-2.6,3.2-2.9c2.3-0.3,4.5,0.4,6.7,1c2.6,0.2,5.1,0.1,7.5,1.8c2.2,1.6,3.5,0.2,4.5-2.6c-4,0.4-7.8,1.5-11.5,0.6
	c-1.2-0.2-2.3-0.7-3.2-1.4c-1.3-2.2-4-2.1-5.9-3.3c-1.8-1.1-3.6-2.3-4.6-4.3c-5.2-9.3-11.7-17.5-20.6-23.6c-2.5-1.7-5.9-1.8-7.9-4.4
	c-0.5-0.6-1.2-1.3-1.4-2c-1.1-5.4-4.6-8.7-9.5-10.8c-1.7-2.8-3.7-5.4-5.5-8c-1-1.4-2.4-2.9-0.7-4.7c1.6-0.9,3.4-0.8,5.2-0.8
	c5.2,0.2,10.5,0.4,15.6-2.1c-4.2-2.3-8.3-4.7-12.2-7.5c-8.3-5.8-14.4-13.8-21.5-20.8c-1.4-3.9-5-7.1-4-11.9c0.2-0.5,0.5-0.9,0.8-1.3
	c5.3-1.7,9.1,2.4,13.7,3.4c6.2,2.5,12.6,3.6,19.8,3.5c-1.2-2.4-3.3-2.7-4.8-3.8c-4.2-3.5-7.7-7.6-11.8-11.1
	c-13.6-13.1-21.3-29.8-28.6-46.7c-0.7-1.6-1.6-3.3-1.4-5.2c1.3-2.3,3.8-3.3,5.6-5.2c4.3-2.8,7.9-6.3,10.5-10.7
	c9.1-6.6,14.2-16.3,19.7-25.6c8.9-14.8,15-30.7,20.2-47.1c0.5-1.4,0.8-2.9,2.2-3.7c2.2-0.8,4.3-0.8,6.4,0.2c2.1,2,2.2,4.7,2.4,7.3
	c0.2,1.9-0.2,4,1,5.7c0.2,0.5,0.3,1,0.4,1.5c1.1,15.6,5,30.5,10.5,45c1.6,4.1,3.2,8.3,5.1,12.3c1.6,3.4,3.8,5.2,7.8,4
	c4.4-1.3,9.1-1.1,13.7-2c1.6-0.4,3.3-0.4,4.9-0.5c4.3-1.2,8.6-0.9,12.9-0.7c4.6,1.3,9.2-0.3,13.8-0.3c8.9,0,17.8,0,26.7,0
	c8.4,0,8.8-0.5,10.5-9c2.4-11.7,3.1-23.5,4.8-35.3c0.2-1.6,0.2-3.3,1.2-4.8c3-2.2,5.2-0.6,7.2,1.5c3,4.9,1.3,10.4,2.1,15.5
	c1.1,7.7,0.7,15.5,0.8,23.2c-0.9,8.8,2.9,12.3,11.6,10.8c1.9-0.3,2.9-1.5,3.5-3.1c4.3-11.2,8.2-22.5,9.4-34.6
	c0.2-1.7-0.7-3.2-0.5-4.9c0.1-1.3,0.5-2.4,0.8-3.7c0.4-1.6,1-3.2,0.8-4.9c-0.2-1.5-0.7-2.9-0.8-4.5c-0.1-1.7,0-3.3,0.3-5
	c0.3-10.5,0.8-20.9-0.9-31.5c-1.2-7.2-2.6-14.5-2-22c1.6-3,4-2.7,6.7-1.5c7.1,5.4,11.6,13.2,16.1,20.5
	c15.4,24.9,28.8,50.9,39.1,78.4c2.9,7.7,6.6,15,7.8,24.2c2.6-2.7,3-5.3,3.8-7.7c3-8.6,4.5-17.6,5.3-26.6c0.1-1.6,0-3.3,1.3-4.7
	c3.4-1.4,4.7,1.6,6.6,3.2c3,7,3.6,14.6,5.7,21.9c1.1,3.8,1.8,7.7,2.8,11.5c0.8,4,1.1,8.2,2.6,12.1c0.3,1,0.5,2,0.6,3
	c2.2,11.4,7.5,21.8,11.3,32.7C609.3,484,612.3,483.7,614.1,485.1L614.1,485.1z"/>
<path class="st0" d="M491.6,611.4c0.5-0.8,1.1-1,2-0.7c3.6,1.5,4.1-0.7,4-3.4c4.9-0.9,6.7,3.2,9.5,5.7c5.5,9.1,7.4,11.1,16.3,17.6
	c1.8,2,2.9,4.4,4.8,6.2c4.6,5.5,7.6,11.9,11,18.1c2.5,4.6,2.6,9.1-0.3,13.5c-0.9,1.4-1.4,3-1.9,4.5c-1.5,4.7-1.9,9.8-3.9,14.4
	c-1.4,2.9-3,5.7-5.8,7.4c-3.9,0.8-5.8,4.5-9.6,6c-7.3,2.8-14.4,3.3-21.8,1.1c-4.4-1.3-8.9-2.2-13.6-2c-11,0.5-22.1,1.6-33.2,0.9
	c-1.1-0.1-2.5-0.5-3,1c-1.4,4.2-4.8,3.3-7.9,3.1c-4.7-0.4-9.2-1.8-13.7-2.9c-5.2-1.3-11.2-0.4-16.6,0.5c-4.6,0.8-9.3,1.2-13.7,0.4
	c-5.2-0.9-8.7,1.2-11.8,4.3c-7.3,7.1-19.4,6.8-25.9-0.2c-0.9-1-1.7-1.8-3.3-1.2c-9.2,3.2-18,1.6-27.3-1.2c-10.2-3-21.2-3.6-32.1-3.6
	c-20.4,0-40.8,0.3-61.1,1.4c-3.9,0.2-7.7,0-11.6,0c-1.1-1.9-6.9-1.1-3.1-5.7c7.1-1.8,14.3-2.3,21.5-2.4c15.1-0.1,30.2-1.8,45.3-1.2
	c7.4,0.2,14.8,0,22.2,0.1c2,0,3.6-0.6,1.8-2.8c-8.1-9.7-7.4-21.4-7.9-32.9c-0.1-3-0.1-5.9,0.1-8.9c0.5-2.8,0.8-5.7,2.2-8.3
	c0.4-0.6,0.9-1.1,1.3-1.7c1.5-2.8-2-6.1,0.9-8.7c2.3-1.2,4.2,0,5.9,1.2c3,1.9,6.1,3.2,9.5,4c5.3,1.3,10.2,1,15-2.3
	c7.8-5.2,15-11.3,23-16.1c1.6-1,3.2-2.5,5.4-1.7c3.5,0.2,3.5,3.2,4.5,5.4c0.1,0.7-0.2,1.3-0.8,1.7c-12.2,7.2-22.8,16.7-34.9,23.9
	c-1.3,0.8-2.6,1.3-4.1,1.7c-1,0.2-2,0.2-2.9-0.1c-2.2-1.1-4.4-2.1-6.7-2.7c-3.3-1.7-5.3-0.3-6.3,3c-2.6,8.7-2.2,17.4,0.3,26
	c1.4,7.4,4.1,14,11.4,17.5c2.5,1.1,5.1,0.8,7.6,0.4c1-0.1,2.1,0.1,2.9,0.6c5,3.5,10.7,4.2,16.5,3.8c3.9-0.3,6.9,0.9,9.6,4
	c4.1,4.6,9.2,4.4,15.5-0.1c7.8-4.8,15-10.4,22.4-15.7c2.7-1.9,3.2-5.3,5.2-7.6l0,0c0.4-0.5,0.6-1.2,0.8-1.8c1.5-2.3,0.9-4.9,1.1-7.4
	c0.1-3.4-1.4-7.6,3.9-8.6c0.5-2,2.4-2.6,3.8-3.6c12.3-9.1,11.7-25.2-1.2-33.4c-1.5-0.9-3.5-1.3-3.8-3.5c0.6-3.1,2.5-2.5,4.3-1.4
	c2.4,1.5,5,2.3,7.9,2.1c1.8-0.2,3.2,0.8,4.6,1.8c0.2,2.4,1.6,3.4,3.9,3.3c1.8-0.1,3.2,0.5,3.3,2.5c-6.7,1.1-0.7,4.5-1.1,6.7
	c0.2,1,0.3,2,0.3,3c0.9,8.8-0.5,16.8-8,22.7c-2.1,2.2-4.7,3.7-7.1,5.5c-0.9,1-0.9,2.3-0.9,3.6c0,0.9-0.2,1.8-0.4,2.6
	c-1.3,3-2.7,6,2.5,6.7c0.9,0.1,1.8,0.2,2.7,0.4c2.3,0.6,3.1,3.2,5.3,4c1.4,0.6,2.9,0.7,4.4,0.6c1.2-0.2,2.4-0.5,2.2-2.1
	c-0.3-2.3,1.4-3.1,2.9-4.1c1-0.5,2.1-0.8,3.2-1.2c5.8-2.9,9.6-7.6,11.9-13.5c0.6-1.7,0.7-3.6,1.3-5.3c0.3-0.6,0.6-1.2,1-1.8
	c1.7-2.7,2.3-5.3-0.4-7.8c-0.8-0.7-1.6-1.5-2.3-2.4c-0.6-1-0.9-2-1.3-3.1c-0.9-4-5.4-5.8-6.2-9.8c1.3-1.8,3.7-1,5.3-2.2
	c3.4,0.2,5,2.8,6.8,5c0-3.2-1.6-6.8,2.4-9c2.7,0.1,5.6,0.7,6.8-3c0.3-1.1,1.3-0.1,1.8,0.5c0.3,0.8,0.3,1.6,0.1,2.4
	c-2.5,9.6-0.1,17.3,8.7,22.5c1.1,0.7,2.1,1.6,2.5,3c0,3.3-2.9,4.6-4.5,6.8c-1.2,1.6-2.3,3.2-3.2,5c-2.3,3.1-2,6.3-0.6,9.8
	c2.2,5.3,5.5,10,8.9,14.7c0.8,1.5,1.9,3,3.5,3.3c9.2,1.8,17.9,6.4,27.9,4.7c7.7-1.3,12.3-5.7,15.6-12.2c2.9-5.8,3.6-12.3,6.3-18.1
	c1.1-2.3-0.2-4.5-1-6.6c-3.2-7.7-8.1-14.5-12.9-21.2c-0.6-0.8-1.6-1-2.5-1.3c-1.8-0.6-3.4-0.4-5.1,0.6c-4.2,2.6-4.3,2.5-5.4-2.4
	c-0.1-7.6-3.4-13.5-9.3-18.1C493.5,614.3,491.5,613.7,491.6,611.4L491.6,611.4z"/>
<path class="st2" d="M304.5,640.2c-0.7,2.6-1.5,5.2-2.2,7.8c-1.6,1.2-2.8,0-4-0.8c-1.5-1-3-2.1-4.5-3c-7.4-4.2-10.7-3.4-15.1,3.7
	c-0.9,1.5-0.4,2.5,0.5,3.5c1.7,1.8,3.6,3.4,5.1,5.4c2.7,3.6,2.3,5.8-1.6,8c-3.5,2-6.8,4.1-9.8,6.6c-0.5,0.4-1.1,0.7-1.6,1.1
	c-6.7,5.4-8.3,5.3-14.5-0.5c-0.5-0.5,0.1,0.1-0.3-0.3c-9-8.8-6.5-9.1-18.3-1.9c-6.5,4-6.8,4-12.3-0.9c-4.1-3.6-4.7-3.5-8.6,0
	c-7,6.1-14.3,11.6-23.3,14.4c-1.2,0.4-2.8,0.6-3,2.2c-0.2,1.7,1.2,2.6,2.5,3.4c3,2.1,7.3,2.5,9,6.5c0.3,1.6,0.2,3.2-1.1,4.4
	c-5.5-0.7-10.1-4.3-16-4c-9.7,0.5-19.4,0.1-29.1,0c-12.1,0-24.2-0.1-36.3-0.1c-0.2,0-0.3,0-0.5-0.1c-2.2-0.7-5.2-0.6-6.2-2.6
	c-1.1-2.3,1.6-4.2,3.1-5.7c3.9-4,7.9-7.8,10.9-13.5c-6.1,0.5-11.6,1.7-17.3,1.3c-9.4-0.7-18.6-1.5-26.5-7.4c-1-0.8-2.1-1.6-2.8-2.7
	c-2.5-3.8-1.8-5.5,2.6-6.8c5.4-1.6,11.3-1.7,16.3-4.6c7.3-4.2,13.6-9.5,19.2-15.7c13.5-14.7,22.6-32.1,30.5-50.2
	c6.8-15.5,11.5-31.8,15.9-48.1c0.7-2.7,1.1-5.8,0.4-8.8c4.9-0.8,7-4.3,8.2-8.5c0.4-1.6,1.7-1.9,3-2.2c15.1-3.3,28.3-10,39.3-20.9
	c0.3-0.3,0.9-0.5,1.3-0.6c3.1,0.4,4.6,3,6.4,5c7.7,8.9,16.1,17,25.8,23.6c17,11.5,35.7,18.2,56,21.1c3.3,0.5,7,0,9.9,2.4
	c1.3,4.5,6,6.9,7.1,11.5c-3.4,2.9-6.6,0.4-9.6-0.8c-11.3-4.6-23.5-5.8-34.9-9.7c-2.5-0.6-5-1.1-7.4-2.1c-4.8-4-10.9-5.2-16.2-8.3
	c-11.1-6.3-20.8-14.4-30.2-23c-6.8-7-6.8-6.9-14.6-1.4c-8.2,5.7-17.4,9.2-27.2,11.5c-7.4,1.7-7.2,1.9-8.3,9.4
	c-2,14-6.9,27.1-11.6,40.3c-5.9,16.3-13.5,31.9-23,46.5c-8.4,13-17.7,25-30.7,33.8c-3,2-6.3,3.5-9.6,5c5.1,2.9,13,3.8,21.8,2.6
	c5.2-0.7,10.4-1.8,15.5-2.9c1.8-0.4,3.5-1,5.3,0.2c-2.4,5.5-5.5,10.7-8.4,16c-1.6,2.7-3.9,4.9-5.3,7.7c0.3,1.2,1.2,1,2,1
	c15.2,0,30.4,0.1,45.5,0c2,0,5.5,0.8,3.1-3.5c-1.7-3.5-0.9-5.5,3-7c2.6-1,5.4-1.6,8.1-2.3c12-2.9,20.6-10.5,28.6-19.5
	c6.9-7.7,13.1-16,22.8-20.9c5.3-2.7,10.7-3,16.2-4.2c13.8-3,26.8-0.3,39.3,5.4C299.2,637.5,302.3,638,304.5,640.2L304.5,640.2z"/>
<path class="st3" d="M26.8,526.2c1.5-4,3.8-6.3,8.3-4c9.9,3,20.1,5,30.1,7.3c6.1,1.4,6.2,1.1,7.3-5.1c1.7-10.1-1-19.2-6-27.9
	c-1.9-3.3-4.6-4.4-8.3-3.5c-4,1-8,2.1-12,2.9c-2.2,0.5-4.6,1.2-6.5-0.9c1.9-9.9,1.9-9.8,11.7-12c2.5-0.6,5-1.7,7.3-2.9
	c2.9-1.5,5.8-2.3,9-1.7c0.8,6.8,5.3,11.7,8.6,17.3c3.5,5.9,6.2,12.4,5.5,19.6c-0.1,1.5-0.1,3,0.1,4.4c0.5,3.5,3.5,4.3,6.2,4.7
	c2.7,0.3,2.1-2.5,2.6-4c4.2-14.2,11.1-26.4,25.5-32.7c3.7-1.6,2.9-5.6,4.7-8.2c7.5-2.6,15.6-3.8,22.4-8.3c0.8-0.5,1.7-1.3,2.7-0.7
	c1.3,0.7,1,2.1,0.6,3.1c-1.2,3.1-1.9,6.2-1.8,9.6c-0.2,0.2-0.5,0.5-0.8,0.6c-10,1.5-17.2,8.3-25.5,13.1
	c-12.7,7.4-17.5,19.5-19.8,33.1c-0.6,3.5,1.5,5.2,4.9,5.3c3.6,0.2,7.2-0.1,10.9,0.1c3.4,0.2,6.9-0.1,9.7,2.5c-0.5,2-0.1,3.4,2.2,4
	c1.7,0.5,3.4,1.3,3.5,3.5c-8.9,1.2-17.7-0.7-26.5-1.1c-2.5-0.1-3.3,0.3-2.1,2.5c1.4,2.7-0.4,3.9-2,5.3c-10.4,8.8-10.2,8.7-0.4,18.3
	c8.6,8.4,17,17,25.2,25.6c5.6,5.9,4.6,9.3-1.5,14.4c-6.8,5.7-12.9,12.2-19.1,18.5c-6.1,6.2-12.1,12.5-18.3,18.7
	c-2.8,2.8-5.8,2-9.6-1.9c-3.3-3.4-7-6.5-10-10.2c-6.6-8.1-15.1-13.9-23-20.5c-4-3.4-7.6-7.2-7.9-13c-0.1-2,0.6-3.3,1.9-4.7
	c11.1-12,23.9-22.2,36.5-32.5c2.5-2,2.5-3.2,0.5-5.4c-2-2.1-3.3-5-5.5-6.9c-4.6-4.1-5-8.2,0.2-13.7c-6.4,0.4-11.3-1.5-16.4-2.2
	c-7.7-0.9-14.5-4.5-21.8-6.8C28.6,529.7,27.2,528.2,26.8,526.2L26.8,526.2z"/>
<path class="st2" d="M527.3,694.7c1.6-2.4,3.2-4.7,4.9-7.1c2-1.6,4.3-1.2,6.6-1.3c6.6-0.1,13.3,0.2,20-0.2c-0.3-2.1-2.3-2.4-3-3.8
	c-3.1-7.1-7.5-13.6-10.7-20.7c-0.5-1-1.1-2.1-1.5-3.2c-0.9-2.6-2.7-5.4,0.3-7.7c2.7-2,4.9,0,7.2,1.5c14.5,9.1,30,13.4,47.2,10
	c1.2-0.2,2.6-0.2,3.9-1.6c-8-4.1-14.7-9.8-21.1-16c-6.6-6.4-11.5-14-17.3-21c-12.6-15.4-20-33.3-26.3-51.8c-2-5.8-2.2-12-5.5-17.4
	c2.7-3.1,6.2-3.1,9.8-2.9c0.4,12.9,5.6,24.5,10.2,36.3c2.2,5.6,4.7,11.1,8,16.3c11.1,17.3,22.4,34.3,40.1,45.8
	c4.2,2.7,8.1,5.3,13.3,6c4.6,0.6,5,2.5,1.9,6.3c-4.7,5.9-11.3,8.3-18.5,9.1c-15.5,1.8-29.7-2.5-44-9.6c3.3,8.2,8.4,14.4,14,20.2
	c0.2,0.2,0.6,0.4,0.8,0.6c2.1,2.4,6,4.5,4.6,8c-1.5,3.8-5.9,3.6-9.5,3.7C550.9,694.4,539.1,694.6,527.3,694.7L527.3,694.7z"/>
<path class="st3" d="M680.9,425.8c-1.1-2.7-5.5-4.5-2.1-8.3c1.8-0.8,3.2,0.4,4.6,1.1c10.8,5.3,21.9,7,33.5,2.7
	c2.6-1,5.2-0.6,7.8-0.1c6.9,1.3,13.5,0.4,19.8-2.5c3.8-1.8,3.9-2.9,0.3-4.8c-9.8-5.1-18.1-12-26.5-18.9c-13.8-13-27.1-26.6-38-42.1
	c-7.4-10.5-15.1-20.9-22.6-31.3c-1.2-1.6-2.4-3.2-3.9-4.5c-4.3-4.8-9-9.3-13.1-14.3c-2.5-4.1-6.6-7.8-3.2-13.2
	c17.5,13.9,30.3,31.7,42.4,50.2c7.3,11.2,16.6,20.9,25.5,30.9c7.7,8.7,16.3,16.3,25.5,23.4c7.3,5.6,15,10.6,22.9,15.1
	c7.8,4.5,5.9,7.5,1.7,12.1c-5.3,5.8-13,7.5-19.9,7.3c-9.4-0.2-18.3,1.4-27.3,3c-8.3,1.5-16.1-1.5-23.7-4.3
	C683.3,426.8,682.1,426.3,680.9,425.8L680.9,425.8z"/>
<path class="st4" d="M704.2,150.1c17.5-0.5,27.2,19.3,18.7,31.7c-8.4,12.3-19.8,20.5-33.4,26.1c-3,1.2-4.9,0.5-6.4-2.4
	c-1.6-2.9-0.5-4.8,1.8-6.2c3.8-2.6,7.7-5.1,11.7-7.3c5.8-3.1,10.4-7.6,14.8-12.3c3.2-3.4,5-7.4,3-12.1c-1.9-4.4-7.4-7.1-12.8-6.5
	c-5.9,0.6-10.8,3.9-15.8,6.7c-5.3,3-10.2,6.7-15.3,10c-1.9,1.3-4,2.1-5.8,0s-2.7-4.5-0.8-7.2C670.4,161.6,693.1,150.1,704.2,150.1
	L704.2,150.1z"/>
<path class="st5" d="M657.3,103.5C657.2,93,647.2,87,637.8,91.7c-9.2,4.6-17.8,10-25.7,16.6c-2.1,1.8-4,3.6-6.7,0.6
	c-2.3-2.7-2.9-5.1,0-7.7c10.9-9.7,22.2-18.6,37.3-20.9c12.8-1.9,26.5,12.9,24.1,26.2c-1.4,7.8-6.2,13.4-11.8,18.3
	c-5.3,4.7-11,9-16.5,13.3c-1.4,1.1-3,2.1-4.7,2.7c-3.9,1.3-6.8-0.4-8.7-3.8c-2.2-3.7,1.1-5.3,3.3-6.5c8.8-4.7,16.5-10.9,24-17.3
	C655.5,110.5,658,107.6,657.3,103.5L657.3,103.5z"/>
<path class="st5" d="M730.8,77.7c12.2,0.2,18.8,6.2,23.1,15.1c4,8.4,1.2,15.8-4.9,22.1c-7.9,8.2-17.8,13.6-27.9,18.7
	c-3.2,1.6-6.5,1.5-8.4-2.4c-1.9-3.9,1.3-5.6,3.8-6.8c6.9-3.6,13.9-6.9,19.9-12c6.4-5.4,8.2-10.5,5.8-16.3c-2.2-5.4-7.3-8.1-13.1-7
	c-7.2,1.4-12.8,6-18.9,9.4c-3.2,1.8-6,4.1-9.6,5.1c-5,1.4-6.8-0.3-5.8-5.4c0.2-0.8,0.5-1.7,1-2.2C706.5,86.9,718.4,80.2,730.8,77.7
	L730.8,77.7z"/>
<path class="st0" d="M756,505c-0.6,1.8-0.1,3.8-2,4.6c-2.2,1-3.6-0.8-4.4-2.2c-3.3-5.5-7.1-10.7-11.8-15.1
	c-8.7-8.3-18.4-14.7-29.9-18.5c-1.3-0.4-4,0.3-3.4-2.3c0.4-2,2.4-3.3,4.6-3c5.8,0.8,11.6,1.6,16.9,4.7c11.8,7.2,22.3,15.6,28.6,28.3
	C755.1,502.8,755.6,504,756,505L756,505z"/>
<path class="st0" d="M541.8,551.7c-3.2,1-6.5,2-9.7,3c-0.8,2.3-2.8,2.5-4.8,2.7c-0.5-0.1-0.9-0.4-1.1-0.9c-0.1-3.3,3.3-4.7,4.1-7.6
	c-0.3-2.2,1.6-2.2,2.8-2.7c12.6-5.1,24.7-11.2,36.4-18.1c1.2-0.7,2.3-1.2,3.7-1c4.1,4.7,0,7.6-2.4,10.9
	C561.2,542.5,551.5,547.1,541.8,551.7L541.8,551.7z"/>
<path class="st0" d="M754.1,532.3c0.2,1.5-0.4,2.4-1.7,2.7c-1.8,0.5-3.3,0.2-4.3-1.4c-1.1-2-2.1-4.1-3.1-6.1
	c-4.5-8.7-10.2-16.3-17.9-22.5c-1.3-1-4.2-2.2-2.8-4.5c1.4-2.4,3.9-1,5.6,0.2c11,7.7,19.8,17,23.9,30.2
	C753.8,531.6,754,532,754.1,532.3z"/>
<path class="st3" d="M201.2,699.8c0-1.8,0.1-3.6,0.1-5.4c5.6-2.1,12.8-0.6,15.9,3.4c0,2.7,4.2,1.7,4,4.6
	C214.4,701.8,207.6,702.8,201.2,699.8z"/>
<path class="st6" d="M579.2,397.3c-1.1,7.6-1,15.5-3.3,23c-2,6.2-2.7,13.1-7.4,18.4c-2.2-2-1.5-4.3-1.9-6.3c-3-13-8.9-25-14-37.2
	c-8.5-20-18.6-39.3-30-57.9c-5.1-8.3-10.5-16.3-16.9-23.6c-2.5-3.4-3-7.5-4-11.5c-1-4.1-2-8.3-3-12.4c-1-3.9-2.1-7.2-7.2-5.5
	c-4.6-7.3-7.3-15.5-10.9-23.2c-3.9-8.4-8.3-16.5-13.4-24.2c-3.3-4.9-4.8-5.4-10.3-3c-21.2,9.5-43.5,12.7-66.5,12.9
	c-1.2,0-2.3,0-3.5,0.1c-2.8,0.1-3.6,1.5-3.1,4.3c2.7,15.2,7.7,29.7,14.5,43.5c1.8,3.7,3.7,7.4,5.5,11.1c0.9,1.8,1.9,3.5,1.3,5.6
	c-2.8,1.3-2.9,3-1.3,5.6c8.4,13.5,18.8,25.3,30.9,35.7c8.9,7.7,18.6,14.1,28.7,20.1c1.8,1.1,4.6,1.7,4,4.9
	c-0.8,6.1-1.9,12.2-2.4,18.4c-0.7,9.7-2.4,19.2-4.9,28.6c-0.7,2.5-1.6,3.3-4.4,3.2c-11.3-0.2-22.7-0.1-34,0c-4.1,0-8.2,2.6-12.4,0.1
	c-0.5-0.5-0.8-1.2-0.9-1.9c-0.3-2.8-2.5-4.1-4.5-5.5c-2.4-1.7-4.7-3.8-7.4-4.8c-6.6-2.5-6.5-8.2-6.6-13.5c-0.1-4.3,3.8-3,6.3-3.3
	c-2.8-0.9-6.4-0.5-7.7-4.2c-1.2-5.9-1.7-11.9-1.1-19c-1,7.2,0.3,13.5-1,19.6c-1.2,2.4-3.5,2.3-5.6,2.3c-4,0-7.9,0.4-12,1.3
	c4.4-0.1,8.6-0.2,12.8,0c5.3,0.3,8,4.8,5.9,9.9c-1,2.4-2.9,2.4-4.9,1.9c-3.5-1-7.1-1.3-10.7-1.8c-3.3-0.5-4.3,0.9-3.1,4
	c0.6,1.5,1.3,3,1.8,4.6c1.2,4.1,3.7,6,8.1,5.3c2.4-0.4,5-0.3,7.4,0.1c3.5,0.6,6.3,2,6.2,6.3c-5.8,1-11.6,1.9-17.4,3
	c-2.5,0.5-3.2-1.2-4-2.8c-5.6-10.7-10.2-21.9-12.9-33.7c-1.7-7.5-3.1-15-4.8-22.5c-0.4-1.9,0.2-3.5,0.4-5.3
	c15.9-4.5,30.6-11.3,42.2-23.5c2.6-2.3,4.9-4.7,6.6-7.4c-2.1,2-4.4,4.2-6.8,6.3c-11.7,7.5-23.7,14.5-36.3,20.4c-2.2,1-2.7,4.3-5.7,4
	c-2.7-0.4-1.5-2.6-1.5-3.9c0-3.2-0.3-6.2-1.7-9.1c-3.1-21-2.4-41.9,0.7-62.7c2.3-3.4,4.6-1.1,6.7,0.3c10.6,6.9,22.1,11.7,34.2,15.1
	c1,0.3,2.1,0.9,3.4,0.3c-7.3-13.6-12.8-27.8-16.9-42.6c-1.2-4.1-1.9-8.4-2.7-12.6c-0.4-2.3-0.6-4.6,1-6.6c3.1-2.2,2.8-5.4,2.2-8.5
	c-1.1-6.5-0.7-13.1-0.6-20.1c-1.4,3.2-1.1,6.1-1.3,9.1c-0.3,6.5,0.9,13.1-0.8,19.6c-4.4,2.4-8.9,0.6-13.2-0.2
	c-15.7-2.9-30.2-9-44.1-16.7c-1.4-0.8-2.9-2.6-4.4-1.6c-1.9,1.2-1,3.7-0.6,5.5c2.8,14.1,9.4,26.3,18.6,37.2c4.6,5.4,9.1,10.9,15,15
	c1.4,1,2.4,2.2,2.6,4c-0.2,4.5-1.2,8.8-2.2,13.1c-3.5,14.8-1.8,29.8-2.2,44.7c-0.1,2.6,0.4,5.3-1.2,7.7c-7,26.6-18.9,50.8-35.9,72.4
	c-1.5,1.9-3.3,3.4-5.7,4.2c-2.6,0.1-3.1-1.5-3-3.7c4.4-6.6,6.9-14.1,10.2-21.2c4.8-10.3,11.7-19.3,18.6-28.2c1.8-2,5.2-2.4,5.7-5.7
	c1.2-9.2-1.5-12.5-10.6-13.1c-2.9-0.2-5.6-1-7.9-2.6c-6.1-4.2-12-3.7-18,0.2c-4.9,3.2-7.4,2-8.3-3.8c-0.3-1.8-0.1-3.6-0.9-5.3
	c-0.7-1.5-1.7-3-3.6-3c-2.2,0-3.2,1.6-3.6,3.5c-0.6,2.4-0.1,4.9-0.5,7.4c-0.3,2.1-1,4-3.8,2.6c-1.7-1.7-1.7-3.9-1.7-6
	c0.4-22,1.2-44,8.3-65.2c0.7-2.2,1.1-4.5,1.2-6.8c1.5-3.3,3.9-6.2,4.6-10.1c-2.7,3.3-3.7,7.3-5.5,10.9c-5.5,12.5-8.7,25.5-10.8,39
	c-0.7,4.2-0.3,8.6-2,12.6c-3,1.9-4.8,0.3-6.7-2c-4.4-5.5-4.5-12.3-4.9-18.8c-0.5-8.8-1.1-8.6-9.2-12.3c-9.1-4.1-17.4-3.6-26.7-1.1
	c-8.5,2.3-17.3,0-25.8-2.3c-2.1-0.5-4-1.4-6.2-1.7c-2.2-0.3-4.4-0.1-5.8,1.9c-3.3,4.9-8,8.8-9.7,14.8c-0.5,2-1.4,4.2-4.3,3.9
	c-2-1.7-0.6-3.6-0.4-5.5c1.3-10.3,6.2-19.4,9.3-29.1c5.7-17.6,15.5-33,26.1-47.9c1.8-1.7,3.1-3.8,4.3-5.9c0.2-0.4,0.5-0.7,0.8-1.1
	c1.3-1.5,2.4-3.1,4-4.2c4.5-3.1,7.6-7.6,11.2-11.7c21.5-24.7,46.1-45.7,74.7-61.8c8-4.5,16.8-8,25.4-11.6c8.7-3.6,17.4-6.3,26.5-8.4
	c18.5-4.3,33.1,3.7,46.3,15.3c6.1,5.3,5.7,5.6,11.8,0.1c4.8-4.4,9.3-9.4,16.4-10.1c1.8,2.1,1.1,4.4,0.6,6.6
	c-1.7,8.7-5.2,16.7-9.4,24.4c-0.9,1.7-2.9,3.4-1.4,5.4c1.5,2.1,4.2,2,6.4,1.6c7.6-1.4,15.1-0.4,22.6,0.8c9.5,1.5,18.6,4.5,27.2,8.8
	c4,2,8.3,3.1,12.3,5.2c3.3,1.8,6.5,3.8,9.9,5.8c-3-2.8-6.8-4.1-9.7-6.7c-11-8.4-23-14.5-36.6-17.3c-2.1-0.4-5.5,0-5.9-2.5
	c-0.4-2.1,2.8-2.8,4.4-4.1c7.3-5.3,14.7-10.6,20.5-17.5c1-1.2,2.1-2.1,3.6-2.4c1.6-0.9,3.3-1.2,5-0.2c4.3,3.5,9.3,5.4,14.9,5.6
	c1.1-0.1,2.2,0,2.9,1.1c1.3,1.9,2.9,3.4,5.3,3.4h0.3c0.9,2.9,3.8,3.8,6,4.9c13.9,7.3,25.5,17.8,37.9,27.2c4.7,3.5,8.8,7.9,14.5,10
	c7.1,2.4,10.5,9,16.4,13.8c-4.9,1.4-5.4,3.4-3.3,7.8c2.1,4.6,0.2,9.7-3,13.8c-3.7,4.7-7.7,9.2-11.6,13.8c-4.8-3.9-7.5-9.9-13.2-12.9
	c-2.2-2.6-4.7-4.9-7.7-7.3c1.7,2.7,4,4.3,5.5,6.5c4.7,6.1,9.8,11.7,13.7,18.4c-0.7,5-1.3,10.2-4.1,14.4c-5.2,7.9-6,16.6-5,25.5
	c0.7,6.8,5.7,10.6,12.7,10.7c2.8,0.5,5.1,2.1,7.3,3.8c3.8,2.9,7.4,6,11.9,7.8c1.5,0.6,2.5,1.6,2.8,3.2c-1.2,12.4,1.7,24.9-0.6,37.3
	c-0.5,2.5-1,4.9-3.4,6.2c-1.9,0.6-1.7,2-1.4,3.6c2.3,10,2.9,20.2,4.1,30.3C581,392.8,581,395.2,579.2,397.3L579.2,397.3z"/>
<path class="st6" d="M435.9,133.1c2.8-8.1,1.3-16.3-1.2-23.7c-2.4-7-5.3-14-8.8-20.7c-11-20.4-26.3-36.4-46.1-48.4
	c-10.8-6.5-22.7-9.5-34.1-14c-0.6-2.4-2.8-2.5-4.5-3.4c-2.3-1.2-4.2-2.6-4.1-5.5c0.1-3.2,2.4-4.3,4.8-5.6c1.6-0.9,4.2,0.3,5.1-2.2
	c0.7-0.1,1.4-0.2,2.1-0.3c0.7,0.6,1.4,0.5,1.9-0.2c7.6-2.1,15.3-1.8,23-1.7c14.4,0.3,28.4,3,42,7.6c29,9.9,53.8,25.7,72.2,50.7
	c5.9,8,6.8,16.2,3.8,25.7c-3.1,9.8-5.6,19.6-11.6,28.2c-3.6,5.1-7.1,10.3-11.2,15c-1.4,1.6-3.8,2.6-3.3,5.4c0,0.2-0.1,0.5-0.2,0.8
	c-0.2,0.5-0.5,0.9-0.9,1.2c-7.1,6.6-14.3,13.1-22.7,18.2c-3.9,2.3-8.1,3.8-12.4,4.7c-4.3,0.9-6.1-1.4-4.4-5.3
	C428.9,150.8,431.4,141.5,435.9,133.1L435.9,133.1z"/>
<path class="st5" d="M315.3,551c-24.6-2-47.4-9.2-67.8-23.2c-9.3-6.4-17.2-14.4-24.6-22.8c-1.8-2.1-3.8-4-5.8-6.1
	c-4.3-3.3-6.5-8.2-9.3-12.6c-9.8-15.9-16.2-33.1-18.5-51.7c-0.1-1-0.2-2-0.6-2.9c-0.1-0.3-0.3-0.6-1.1-0.8c-1.7,2.5-2.4,5.6-3.3,8.5
	c-2.6,8.4-7.3,15.5-12.8,22c-3.7,4.4-7.3,8.9-10.1,14c-1,1.7-2.1,3.5-4.6,2.5c4-11.4,6.1-23.3,7.6-35.3c-1.4-1.6-1.4-3.6-1.4-5.6
	c0.2-6.7-0.6-13.5,0.5-20.1c9.9-10.5,22.3-7,25.6,2.7c2,5.7,6.6,6.1,11.4,6.7c10.8,1.3,21.7,2.3,31.6,7.3c8.7,4.4,15.9,10.5,19.3,20
	c-0.7,3.5,0.6,6.6,2.1,9.5c6.7,12.5,13.8,24.8,25.4,33.6c3.6,2.7,5.9,6.6,8.9,9.9c4.6,4.8,8.6,10.2,15.7,11.7
	c7,6.6,12.8,14.5,20.6,20.3c3.1,5.5,2.6,7.3-3.1,12C319.2,550.7,317.3,550.8,315.3,551L315.3,551z"/>
<path class="st3" d="M414.1,84.5c1.7,0.9,1,2.6,1.2,3.9c-1.5,1.8-3.5,1.5-5.5,1.6c-2.6,0.1-5.3,0.2-7.9,0.4c-4,0.4-5.2,2.5-5.1,6.3
	c0.2,4.2,2.8,4.2,5.8,4.2c7.2,0,14.5-0.1,21.5,2.4c0.4,2-2.7,2.6-1.8,4.8c-2.1,2.4-4.9,1.7-7.4,1.7c-17.7-0.1-35.3-0.2-52.8,2.9
	c-7.5,1.3-14.9,3-22.4,4.3c-3.2,0.6-5.2,1.9-4.7,5.5c0.1,1-0.3,1.9-1,2.7c-9.5,4-19.1,7.6-28.4,12.1c-8.5,4.1-17,8.3-24.6,14.1
	c-8.2,6.3-17.3,11.4-24.5,18.9c-0.5,0.5-1.5,0.4-2.3,0.6c-4.1,0.8-8,1.9-11.8,3.4c-4.9,1.9-7.6,0.4-8.9-4.2c2.4-2.9,3.3-6.4,4.5-9.8
	c2.4-7.2,5.1-7.8,10.2-2.5c0.8,0.8,1.7,1.6,2.4,2.5c2.4,2.8,5,2.9,7.8,0.6c0.6-0.5,1.4-0.9,2-1.4c5.3-3.6,5-3.3,1.1-8.6
	c-6.1-8.3-9.7-17.6-9.1-28.2c0.1-2.3,1.3-5.8-1-6.9c-2.5-1.2-4.7,1.8-6.6,3.4c-3.6,3-5.7,6.8-4.8,11.7c0.5,2.9,0.5,5.9,0.9,8.9
	c0.7,4.9-0.6,6.2-5.6,6.4c-3.5,0.1-6.9,0.2-10.3-1.1c-3.4-1.3-5.2-0.1-6,3.5c-1.1,4.7-3.7,8.8-5.5,13.2c-0.6,1.4-1.2,3.2-3.4,3.1
	c-1.7-1.6-3.3-3.1-5.2-4.5c-7.9-5.4-8.8-10.3-3.7-18.7c5.9-3.9,11.9-7.5,18.5-10.2c7.3-3.1,11.2-10,15.9-15.8
	c6.9-8.4,15.9-14.3,25-19.8c23.1-14.1,48.7-21.4,74.8-26.9c9.3-2,18.9-2.3,28.3-3.5c9-1.1,18.1-1.4,27.1-0.8
	c3.8,0.2,8.6-0.8,10.6,4.3c-1.1,2.3-3.3,1.8-5.2,2c-18.7,1.5-37.6,1.8-56,5.9c-2.6,0.6-5.2,0.9-7.8,1.5c-4.6,1.1-6.5,5.8-4.1,9.9
	c1.3,2.3,3.4,1.6,5.3,1.2c12.8-2.7,25.7-4.8,38.6-6c12-1.1,24-2,36.1-1.6C410.6,82.2,412.7,82.6,414.1,84.5L414.1,84.5z"/>
<path class="st4" d="M614.1,485.1c-4.1,0.6-6.5-0.6-7.7-5.1c-3-10.6-8.9-20.2-10.5-31.3c3.2-1.1,3.5,1.5,4.2,3.3
	c1.4,3.9,2.4,7.9,3.8,11.7c0.4,1,0.6,2.5,2,2.4c1.3,0,1.8-1.3,2.3-2.3c1.3-2.7,2.2-5.5,2.5-8.5c1.9-14.8,1.8-29.5-1.3-44.1
	c-1.3-7.1,0.5-14.1,0.7-21.2c0.5-18.2-2.8-35.8-6.5-53.4c-0.5-2.5-1.7-5.1-0.5-7.7c2.2-2.4,4.9-1.1,7.4-0.9c4.1,0.3,8.3,1.1,11-3.4
	c4.3-3.4,4.9-7,1.8-11.8c-2.3-3.6,2.9-13.5,6.9-13.8c0.8-0.1,1.1,0.5,1.4,1.1c5.7,12.1,11.3,24.1,13.7,37.4c1,6.8,2.6,13.5,3,20.4
	c0.3,4.9,1.1,9.8-0.6,14.7c-1.6,1.4-1.2,3.2-1.2,5c0.8,16.6,0.9,33.2-0.8,49.7c-0.3,3-0.2,6.3-2.6,8.7c-1.8,5.8-3.5,11.6-5.5,17.3
	C633.1,466.3,624.2,476.2,614.1,485.1L614.1,485.1z"/>
<path class="st7" d="M92.9,361.3c9.8-18.9,19.5-37.9,31.4-55.7c8.5-12.8,17.5-25,28.7-35.6c3.4-2.1,6-5.1,8.9-7.7
	c4.6-4,10.1-6.1,15.7-7.9c2.4-0.8,5.2-1.4,7.2,1.2c0.5,2.8-0.8,5.3-2.1,7.5c-12.1,20.5-15.5,43.6-19.9,66.4
	c-3.6,18.7-3.8,37.6-4.9,56.5c-0.1,1.8,0.1,3.6-0.6,5.4c-2.4,2.8-4.3,1.2-5.3-1c-4-8.6-11.3-12.3-19.7-15
	c-6.6-2.1-12.6-5.6-17.8-10.3c-2-1.8-4-3.4-6.2-4.9c-4.7-3.1-7-3-11.6,0.2C95.6,361.2,94.6,362.6,92.9,361.3L92.9,361.3z"/>
<path class="st8" d="M92.9,361.3c0.3,0,0.7,0,1-0.1c8.4-6,11.9-5.9,20.1,1.7c6.1,5.7,13.1,9.8,21.1,12.2c8.1,2.5,14.6,6.5,18,14.7
	c0.6,1.5,1.4,2.6,3.3,2.2c2,1.3,1.8,3.4,1.9,5.3c0.1,4.2,0.1,8.5,0,12.7c0,2.8,1.5,5.6,0.2,8.4c-4.1,3.3-7.8,7.1-12.7,9.3
	c-1.5,0.7-3.2,1.4-4.7,0.1c-1.3-1.2-0.7-2.8-0.3-4.2c0.5-2.2,1.2-4.5,1.2-6.8c0-3.5-1.1-4.3-4.2-2.6c-12.7,7.1-26.1,12.7-39.7,18
	c-5.2,2-10.5,4-16.3,3.8c-5.3-0.2-6.5-1.6-5.5-6.7c0.2-1,0.5-1.9,0.5-2.9c0.1-2.5-0.9-3.5-3.3-2.2c-3.8,2-7.6,3.9-11.5,5.8
	c-3.9,1.8-7.8,3.7-12.2,3.9c-0.8-0.1-1.5-0.4-2-1c1.3-4.1,5.1-6.1,7.5-9.5c10.5-14.9,19.8-30.5,28.9-46.2c3.2-2.8,4.7-6.6,6.1-10.4
	C90.6,364.6,91.6,362.9,92.9,361.3L92.9,361.3z"/>
<path class="st9" d="M49.5,433.2c8.4-2.2,16-6.1,23.5-10.3c1.2-0.7,2.4-2.4,3.9-1.4c1.4,1,1.5,2.8,1.5,4.5c0,0.3-0.1,0.7-0.1,1
	c0,2.3-2.9,5-0.5,6.8c2.4,1.7,5.8,1.1,8.7,0.3c13.9-3.7,27.1-9.4,40-15.6c4.2-2,8.1-4.4,12.2-6.6c2.3-1.3,3.6-1.7,4.4,1.8
	c0.8,3.6-0.2,6.8-1,10.1c-0.3,1.2-1.5,2.7-0.3,3.7c1.5,1.3,2.7-0.5,3.9-1.1c2.9-1.6,5.7-3.4,8-5.8c1-1,2-2.4,3.8-1.6
	c0.9,0.5,1.4,1.4,1.5,2.4c0.5,7,0.7,14-0.1,21c-0.1,0.8-0.6,1.5-1.1,2.1c-6.1,13.2-17.5,20.5-31.1,26.8c2-4.6,3.7-8.6,3.8-13.1
	c0.1-8.9-7.9-16.8-16.9-15.6c-11.6,1.5-19.7,8.3-25,18.1c-3,5.5-6.7,10-13,9.9c-9.6-0.2-18.1,3.8-27,6.2c-10.9,3-21.8,1.9-32.6-0.8
	c-1.6-0.4-3-1.2-4.5-1.9c-2.8-1.3-3.5-3-0.6-5c7.6-5.5,14-12.5,21.1-18.6c3-0.2,4.6-2.5,6.2-4.5C41.6,441.5,45.8,437.6,49.5,433.2
	L49.5,433.2z"/>
<path class="st8" d="M156.8,477.9c1.2-0.4,2.5-0.8,3.1-2.2c4.8-10.1,13.8-17.2,19.1-26.9c2.8-5.1,4.3-11,6.4-16.5
	c0.6-1.6,0.8-4.2,2.9-4c2.1,0.2,1.9,2.7,2,4.5c2.5,22.3,11.1,42.2,23.5,60.6c1.2,1.8,2.8,3.2,3.2,5.5c-7.3,9.7-17.5,15.1-28.5,19.2
	c-4.9,1.8-10,3-15,4.5c-12.8,2.6-25.6,3.3-38.6,1.5c-2.1-0.3-3.5-0.7-1.6-2.9C144.2,508.3,151,493.4,156.8,477.9L156.8,477.9z"/>
<path class="st2" d="M201.2,141.9c-3.5,8.9-1.7,15.8,7.5,19.8c1.5,0.7,1.4,2.1,1.5,3.4c1.1,0.6,1.8,1.7,2.6,2.7
	c6.3,1.8,12.7,0.1,19.1,0.9c0.8,0.2,1.6,0.5,2.1,1.3c2.2,4.3,4.2,5,9.1,2.8c3.6-1.6,7-3.7,11.2-1.8c-11,12.1-23.6,22.5-34.2,34.9
	c-4.2,4.9-10.5,7.3-15.8,11c-3.1,2.2-3.5-1.4-4.2-3c-4.3-9.2-11.6-15.2-21.4-16.6c-10.4-1.5-20.6,0.3-29.2,7.4c-1.4,1.2-3,3.4-5,1.5
	c-1.7-1.6-0.5-3.7,0.4-5.5c7.2-14.5,16.9-27.4,29-37.8C182.5,155.3,191.1,147.5,201.2,141.9L201.2,141.9z"/>
<path class="st3" d="M484.4,135.2c-3.1-0.1-5.1-0.4-2.3-4.2c4.6-6.2,8.3-13,11.3-20.2c2.7-6.6,5.5-7.5,9.7-1.9
	c7.7,10.1,19,14.4,29.1,20.8c9.3,5.9,18,12.6,26.6,19.6c7.3,6,13.4,13.1,19.8,19.9c3.5,3.7,5.3,8.3,7.5,12.7
	c6.4,12.6,13.8,24.9,15.9,39.2c0.2,1.4,1.3,3.1-0.4,4c-1.9,0.9-2.5-1.3-3.2-2.3c-9.7-13.7-22.1-24.9-34.3-36.1
	c-10.6-9.8-22.2-18.5-34.6-26.1c-6.6-4.1-12.5-9.2-19.7-12.2c-1.5-0.6-2.5-1.6-2.4-3.4c1.5-3.2,4.5-1.9,6.8-2.1
	c4.7-0.3,3.8,0,3.1-4.3c-1.5-8.9-7.3-10-14.5-9.6c-2.7-1.6-2.5-4-1.8-6.5c0.5-1.9,1.1-3.9-0.4-5.6c-1-1.1-1.8-2.7-3.4-2.7
	c-2,0-1.7,2.1-2.3,3.4c-1.7,3.9-2.6,8.2-4.8,11.9C488.8,131.8,487.6,134.5,484.4,135.2L484.4,135.2z"/>
<path class="st3" d="M579.1,214.8c9.5,3.1,14.5,13.8,10.4,22c-3,6.1-2.3,12.2,0.6,18c1.6,3.1,3,6.2,2.6,9.9c-0.5,4.8,1.4,8.8,5,11.8
	c4.1,3.5,4.9,8.3,4.6,13c-0.5,7.7-7.7,11.8-15.8,10.9c-9-1-13.5-7.1-18.2-13.5c-4.3-6-5.6-5.9-10.1-0.3c-0.7,0.9-1,2.2-2.5,2
	c-1.4-0.2-1.7-1.5-1.9-2.6c-1.5-7.3-1.9-14.5,4-20.3c3.2-3.2,4.1-7.5,4.9-11.5c1.4-7.1,4.2-13.3,9.1-18.3
	C577.7,230,581.1,223.5,579.1,214.8L579.1,214.8z"/>
<path class="st4" d="M576.9,355.3c5-2.5,3.2-7.6,3.6-11.4c0.6-5.6,0.6-11.4-0.5-17.2c-1-5,1.5-10,0.8-15.2c3.9-2.1,7.4-0.4,11,1
	c0.3,0.3,0.7,0.6,1,1c5.6,18.8,11.5,37.5,12.5,57.4c0.7,14.8,1.3,29.4-2.1,43.9c-1.3,5.5-3.8,10.6-5.7,15.8
	c-0.7,1.9-1.8,4.1-4.7,3.1c-3.8-10.9-4.9-22.5-8.6-33.5c-1.4-4.3-0.9-8.8-0.7-13.2c0.4-9.4-1.8-18.2-5.6-26.7
	C577.1,358.8,576,357.2,576.9,355.3L576.9,355.3z"/>
<path class="st2" d="M120.8,479.7c0.8,5.3-1.4,8.2-6.4,10.6c-13.6,6.5-19.6,18.9-22.9,32.8c-0.8,3.2-0.9,3.8-4.5,2.9
	c-5.9-1.4-7.2-4.6-6.6-10c1-9.7-3.1-17.8-8.9-24.9c-3.2-4-4.5-7.8-3.9-12.6c6.1-0.4,11.9-2.1,17.8-3.8c4.1-1.1,6.5-4.1,8.3-7.9
	c3-6.8,7.4-12.4,14.6-15.4c5-2,10.3-1.4,12.8,1.7c2.8,3.6,2.7,7.6,1.2,11.7c-0.9,2.5-2.7,4.5-4.4,6.5
	C113.5,476.5,114.2,478.3,120.8,479.7L120.8,479.7z"/>
<path class="st7" d="M654.8,316.4c7,7.7,13.2,16.1,18.8,24.7c8.1,12.5,17.6,23.8,27.5,34.7c5.6,6.2,11.6,12.1,17.5,18.2
	c-2,2.7-5,2.3-7.7,2.1c-8.6-0.7-16.8-3.2-24.7-6.6c-0.7-0.3-1.4-0.9-2.3-0.6c-0.3,0.2-0.4,0.5-0.4,0.9c0.1,1.9,2,3.9,0,5.5
	c-2,1.5-4,0.2-6.1-0.5c-5.3-1.6-9-5.3-12.2-9.5c-1.2-5.5-2.4-11.1-3.7-16.7c-3.6-15.9-9-31.2-13.2-47
	C649.8,319.1,650.9,316,654.8,316.4L654.8,316.4z"/>
<path class="st10" d="M665.2,385.2c4.6,3.5,8.8,7.6,14.6,9.4c1.2,0.4,2.6,1.4,3.7,0.3c1.3-1.2-0.3-2.4-0.7-3.5
	c-0.5-1.5-2.3-3-0.6-4.4c1.3-1,2.7,0.6,4,1.2c10.4,4.3,20.7,8.6,32.4,5.8c4.8,2.6,8.6,6.6,12.8,9.9c5.2,4.1,11.3,6.7,16.8,10.4
	c2.2,1.4,2.2,2.4,0,3.8c-7.5,4.6-15.5,6.1-24.1,4.2c-1.6-0.4-3.3-1.1-4.8-0.4c-14.3,6.2-27.5,3-40.4-4.3c-3.1-1.2-4-4.1-5.2-6.7
	C669.8,402.6,666.4,394.3,665.2,385.2L665.2,385.2z"/>
<path class="st11" d="M618.8,318.4c-7.8-1.1-13.8-3.3-17.3-10c-1.4-2.6-1.2-4.6,0.9-7.1c5.1-6,7.6-12.7,3.7-20.5
	c-0.7-1.3-0.7-2.4,0-3.7c3.3-6.1,2.7-10.8-1.9-15.9c-1.5-1.7-3.4-3.1-5.2-4.5c-5.5-4.1-6.3-9.9-5.2-16c0.9-4.9,6.4-7.7,11.4-6.8
	c10.2,1.9,17.2,8.2,23,16.2c2.5,3.4,4.7,3.9,8,0.9c2.8-2.5,4.4-0.1,4.1,2.4c-0.3,3.4,0.1,7.1-2.5,10c-4,4.5-3.4,10.5-5.3,15.7
	c-2.2,6.3-5.5,11.8-9.7,16.8C617.4,302.4,614.1,309.2,618.8,318.4L618.8,318.4z"/>
<path class="st12" d="M134.6,225.7c2.4-0.1,4.9-0.1,7.3-0.2c0.8,0.9,0.9,2,0.7,3.1c-3.7,7.4-2.4,15.2-2.1,22.9
	c0.1,1.5,0.8,2.9,1.5,4.1c0.5,0.8,0.8,2.1,2,1.7c1.1-0.3,1.1-1.5,1.2-2.5c0.2-1.3,0.1-2.6,0.1-4c-0.1-5,0.9-9.9,2.4-14.6
	c4.8-14.2,18.9-17,29-5.7c0.8,1.4,1.7,2.8,0.8,4.4c-2.3,1.8-4.6,3.6-6.9,5.4c-1.7-1.4-1.9-3.8-3.5-5.2c-1.8-1.6-3.4-4-6.2-2.9
	c-3,1.1-5.4,3.1-5.8,6.6c-0.7,5.2,0,10,2.8,14.5c-15,15.5-29.1,31.7-41.3,49.6c-8.3,12.1-18.5,10.1-26.8,1.5c-2.5-2.5-2.5-4.5,1.8-5
	c1.6-0.2,3-1.1,4.6-1.7c17-2.2,25.2-16.5,21.9-33.4c-1.7-8.7,1.6-15.4,7.7-20.5c4.1-3.4,6.3-6.8,6-12
	C132.4,229.5,133,227.4,134.6,225.7L134.6,225.7z"/>
<path class="st6" d="M647.2,372.1c0.2-10.9-0.5-21.7-3.4-32.2c-0.4-1.5-0.2-2.2,1.3-2.4c3.7,7.2,5.3,15.2,7.5,22.9
	c4.2,15,6.8,30.6,11.9,45.3c5.4,15.5,12.5,30.5,23.2,43.3c1.8,2.1,4,3.8,6,5.7c2.1,2,1.1,3.2-1.3,3.5c-2,0.2-4,0.2-5.9-0.1
	c-14.2-2.2-27.8-5.7-37.5-17.5c-1.8-5.6,0.5-11.1,1-16.6c1.2-15.7,0.6-31.2-2.6-46.7C647.1,375.6,646.3,373.9,647.2,372.1
	L647.2,372.1z"/>
<path class="st8" d="M122.8,212.5c-2.6,5.8-7.7,9.3-12.2,13.2c-1.3,1.2-2.6,0.6-2.4-1.4c0.2-2.3,0.5-4.6,0.8-6.9
	c0.4-4-1.8-6.2-5.6-5.1c-7.5,2.1-12.3,7.2-15,14.3c-1.8,4.7-2.9,9.6-6.5,13.6c-2-2.1-1.3-4.2-1.4-6.1c-0.3-4.8-2.3-6.1-6.8-4.1
	c-6.1,2.7-10.9,7-14.2,12.6c-3.9,6.5-9.3,10.4-16.9,11.5c-2.7,0.4-5.3,1.7-8.5,2.8c1.3-5,0.5-9.5,0.3-14c-0.4-8.4,4-14.7,9.1-20.7
	c4-4.7,8.1-9.4,9.6-15.7c0.6-2.4,0.7-4.7-1.4-6.4c-1.9-1.5-3.8-0.3-5.6,0.4c-0.9,0.4-1.8,0.8-2.7,1.1c-0.7,0.3-1.5,0.9-2.2,0.1
	c-0.6-0.8-0.1-1.5,0.1-2.3c1.7-5.6,4.7-10.7,8.6-14.9c6.2-6.7,10.8-14,12.9-22.9c0.6-2.6,0.8-5-1.6-6.6c-2.4-1.6-3.9,0.6-5.6,1.7
	c-1,0.7-2,1.6-4.1,3.2c1.1-12.1,6.6-21,12.2-29.9c4.8-0.2,4.7,3.6,5.6,6.6c-0.8,2.9-3,5.1-4.4,7.7c-1,1.8-1.7,3.6,1.1,4.2
	c3.7,0.8,4,3.5,3.8,6.4c-0.8,9.5-3.2,18.5-8.9,26.4c-2.9,4-6.3,7.6-8.9,11.8c6.2,1.2,7.6,3.2,7,9.5c-0.8,8.8-2.9,16.6-10.6,22.4
	c-6.2,4.6-7.5,12.1-8,19.5c-0.2,3,1.7,3,3.5,2c4.3-2.3,8.8-4.5,12-8.5c4.5-5.7,9.9-10.5,16.3-14.3c3.1-1.8,6-3.4,9.7-2.1
	c2.5,0.9,3.6-1.2,4.7-2.7c3.4-4.8,7.7-8.5,12.8-11.5c6.5-3.8,9.9-3.3,14.7,2.6c2.3,2.9,3.7-0.7,5.6-0.4
	C121.3,210,122.4,210.8,122.8,212.5L122.8,212.5z"/>
<path class="st2" d="M157,411c-0.2-6.4-0.5-12.7-0.8-19.1c0.8-16,0.8-32,2.6-47.8c1-9.4,3-18.8,4.9-28.1c2-9.9,4.2-19.8,7-29.5
	c2.9-10.1,8.5-19,12.7-28.5c0.4-0.9,0.7-1.8,1-2.8c-0.1-0.6-0.4-1.4,0-1.9c6-7.2,9-16.4,15.6-23.1l0,0.1c0.5-0.4,0.9-0.8,1.1-1.5
	c4.2-2.6,7.5-6.8,12.9-7.4c0.6,2.1-1.5,3.3-1.8,5.1l0.1,0.1c-2.5,1.2-3.1,3.7-4.1,6c-3.3,5.1-6.5,10.3-10,15.3
	c-8.7,12.8-13.9,27.1-19.2,41.5c-3.1,8.3-5.6,16.6-7.3,25.2c0.4,0.7,0.5,1.5,0.5,2.3c-0.4,2.9-1.4,5.6-1.3,8.6c-2,14-3.4,28-4.9,42
	c-0.3,2.4-0.8,4.9-1.8,7.1c-1.4,1.9-1.2,4-1.2,6.2c0,8.4,0.1,16.8-0.1,25.2C162.8,410.8,161.5,411.8,157,411L157,411z"/>
<path class="st2" d="M124.1,538.2c-6.6-1.5-13.4-1.2-20.2-1.3c-5.9-0.1-7.8-1.8-6.7-7.5c2.9-15.1,8.6-28.5,23.9-35.2
	c1.5-0.7,3-1.5,4-2.8c5.1-6.3,12.4-6.8,19.5-8c-2,12.2-9.1,21.7-16.5,31c-2,2.6-4.8,4.6-6.8,7.2c-2.6,3.2-1.9,5.3,2.1,6.6
	c4.5,1.4,9.2,2.4,13.9,3.6c0.9,0.2,2.1,0,2.4,1.3c0.3,1.4-0.8,2.1-1.7,2.8C133.8,539,128.8,537.7,124.1,538.2L124.1,538.2z"/>
<path class="st2" d="M39.6,495.1c6.2,0.6,11.9-2,17.8-3.4c4.7-1.2,7.7-0.2,10.3,4.1c6.3,10.5,8.1,21.7,5.7,33.6
	c-0.5,2.4-2.3,2.8-4.1,2.4c-10.1-2.2-20.1-4.5-30.1-6.9c-1.5-0.4-2.7-1.7-4.1-2.7C35,512.9,36.8,503.9,39.6,495.1L39.6,495.1z"/>
<path class="st7" d="M414.1,84.5c-3.4-1.1-6.8-0.9-10.3-0.9c-24.6,0.1-48.9,3.2-72.9,8.4c-3.3,0.7-3.8-0.2-4.3-3
	c-1.8-10.2-1.9-10,7.8-12.2c20.2-4.6,40.7-5.9,61.2-6.9c2-0.1,3.9-0.4,5.9-0.6c4.3,0.6,5.9,4.4,8,7.4
	C411.3,79,413.5,81.3,414.1,84.5L414.1,84.5z"/>
<path class="st7" d="M334.1,125.2c-0.8-8.6-0.7-8.1,7.9-10.2c26.5-6.5,53.4-7.2,80.4-6.9c3.2-0.3,4.3,1.9,4.7,4.4
	c0.3,2.2,0.1,4.6,0.7,6.8c1.2,4.2,0,5.9-4.4,5.1c-2.3,1.7-5,1.5-7.6,1.1c-6.7-1-13.4-1.1-20.1,0c-2.4,0.4-4.9,0.4-7.1-1.1
	c-2-0.1-4,0.4-5.8-0.5c-13.6-6.4-27.3-3.4-40.9-0.1C339.2,124.4,336.8,125.8,334.1,125.2L334.1,125.2z"/>
<path class="st8" d="M435.9,133.1c-0.2,6.9-5.1,12.3-6.5,18.9c-0.5,2.5-2,4.9-3,7.3c-0.5,1.3-2,2.9-0.8,4.1c1.3,1.4,3.4,0.7,5.2,0.2
	c7.9-2.1,14.4-6.8,21-11.6c4.6-3.3,7.5-8.3,12.6-10.8c0.6-0.2,1.1-0.6,1.5-1.1l-0.1,0.1c2.5-0.4,4.8,0.4,7.1,1.4
	c-7.8,9.8-17.6,17.1-28.8,24.3c14.1,1.5,25.8,7,37,13.8c2.4,1.4,5,2.5,6.6,5.1c0,1,0,2-0.9,2.7c-11.2-3.8-21.4-10.3-33.1-12.6
	c-9.5-1.9-19-4.1-28.8-2c-1.6,0.3-3.3,0.2-4.9-0.1c-4.8-1.1-5.2-2.5-2.7-6.8c5.7-10.1,10.7-20.5,11.1-32.4
	C430.8,133.2,433.3,133.1,435.9,133.1L435.9,133.1z"/>
<path class="st8" d="M592.7,433.8c2.1,0,2.7-1.6,3.3-3.1c4.3-10.7,8-21.7,8.3-33.4c0.8-23.4-1.3-46.4-8.6-68.8
	c-1.6-4.8-3.7-9.6-3-14.9c2.3,1.7,4.6,3.4,6.9,5c1.2,3.3,4.1,6,3.7,9.9c3.4,14,6,28.2,7.7,42.5c1.1,9,1,18.1,0.1,27.1
	c-0.4,4.6-0.4,9.2-0.7,13.8c-2.5,10.4-5.5,20.6-9.8,30.4c-0.9,2.1-2,4.9-5.4,3.3C593.7,441.9,593.3,437.8,592.7,433.8z"/>
<path class="st13" d="M132.9,231.3c0.9,5.9-1.5,9.7-6.4,13.5c-5.8,4.5-9.1,11-7.1,19.3c3,13-1.9,25.2-10.8,30.5
	c-3.5,2.1-7.4,5.8-12.4,3.1c8.8-6.5,11.7-15.1,10-25.8c-1.2-7.8-0.2-15.5,2.6-22.9c4-5.1,6.8-11.3,12.8-14.5
	C125.1,232.7,128.4,230,132.9,231.3L132.9,231.3z"/>
<path class="st3" d="M122.8,212.5c-1.1-0.7-2.1-1.4-3.2-2.2c-4.9-4.7-7.8-10.9-11.8-16.3C95.2,177,83.1,159.5,71,142.1
	c-1.1-1.6-2.4-3.2-2.6-5.2c-1.5-2.4-2-5.3-4.9-6.7c1.5-2.1,2.9-4.1,4.4-6.2c2.4-0.7,3.2,1.4,4.2,2.7c5.9,8.1,11.2,16.7,17.4,24.7
	c10,12.9,18.6,26.8,28.5,39.8c3.3,4.4,6.5,8.8,9.4,13.4c0.9,1.5,2.4,2.9,1.5,4.9C126.4,209.6,125.1,212.1,122.8,212.5L122.8,212.5z"
	/>
<path class="st2" d="M128.9,209.6c-5.1-9.8-13-17.8-18.8-27c-8.7-13.7-19-26.2-28.3-39.6c-4.5-6.4-8.2-13.4-13.9-18.9
	c0-2.5-4.7-5.4,0-7.5c3.7-1.6,4.4,2.6,5.9,4.6c20,28.1,39.8,56.3,59.7,84.4c0.4,0.5,0.9,1,1.2,1.6c1.1,2,2.7,4.5,0.5,6.3
	c-2.7,2.2-3.3-1.3-4.8-2.6C129.8,210.5,129.4,210,128.9,209.6L128.9,209.6z"/>
<path class="st14" d="M141.3,228.7c0.2-1.1,0.4-2.1,0.6-3.2c4.9-7.7,10.1-14.8,19.2-18.4c11.2-4.6,22.1-2.3,29.4,7.4
	c3.4,4.6,2.4,10.7-2.4,13.9c-3.4,2.4-6.3,5.7-10.6,6.6c-0.3-1.2-0.6-2.4-1-3.6c3.5-4.5,3.3-7.7-1.5-10.6c-9.2-5.6-13.9-7.9-24.2,1.5
	c-1.6,1.4-2.9,3.1-4.5,4.6C145,228.1,143.7,229.9,141.3,228.7L141.3,228.7z"/>
<path class="st8" d="M647.2,372.1c2.6,6,3.7,12.2,4,18.6c0.3,5.9,0.8,11.8,1,17.7c0.3,10.9-1,21.6-3.1,32.2c-2.3-1.2-3.3-4-6-4.6
	c2.3-13.2,2.1-26.6,2.8-39.9c0.4-6.7-0.7-13.5-1.3-20.2C644.3,373.6,644.2,371.9,647.2,372.1L647.2,372.1z"/>
<path class="st4" d="M200.2,230.2c-4.8,7.3-8.2,15.5-14.1,22.1c-0.7,0.8-1,2-1.5,2.9c-11-0.7-18.9,5.5-26.5,12.1
	c-1.5,1.3-2.6,3.1-5,2.7c8-9.2,16-18.3,26.2-25.2c5.8-3.8,10.9-8.5,16.5-12.6C197,231.2,198,229.2,200.2,230.2L200.2,230.2z"/>
<path class="st7" d="M424.1,103.3c-8.7-0.3-17.4-0.7-26.1-1c-1.5-0.1-2.5-0.5-2.5-2.3c0.1-2.8,0-5.6,0.1-8.4c0-2.5,1.9-2.3,3.5-2.4
	c5.4-0.3,10.8-0.6,16.3-0.9c5.3,2.4,4.8,8.4,7.7,12.3C423.6,101.4,423.8,102.4,424.1,103.3L424.1,103.3z"/>
<path class="st3" d="M157,411c3.7,0.2,4.7-1.8,4.6-5.2c-0.2-9.2-0.1-18.3,0-27.5c0-1.7-0.7-3.8,2.1-4.2c1.4,1.5,1.4,3.3,1.4,5.1
	c0.2,11.2-0.2,22.5,0.2,33.7c0,1-0.1,2-0.8,2.8c-1,8.9,0.5,17.9-0.1,26.8c-2.6-0.7-4.1,2.7-6.8,2c-0.1-8.5-0.2-17.1-0.3-25.6
	C158.1,416.4,157.2,413.7,157,411L157,411z"/>
<path class="st7" d="M484.4,135.2c5.8-5.7,7.8-13.3,10-20.7c1.1-3.6,2-3.2,4.5-1.4c3.6,2.6,5.6,5.4,3.2,9.9
	c-0.9,1.7-0.7,3.5,0.5,5.1c1.2,2.1,0.2,3.7-1,5.2c-2,0.9-3.1,3.1-5.1,4c-1.7,2.4-3.4,3.7-6.2,1.2
	C488.5,137.2,485.9,137.1,484.4,135.2L484.4,135.2z"/>
<path class="st13" d="M157.9,253.4c-7.2-5.5-5.8-19.2,2.3-22.6c2.9-1.2,8.6,2.5,10.1,6.7c0.3,0.9,0.2,1.9,0.3,2.9
	C167.5,245.8,162.9,249.9,157.9,253.4L157.9,253.4z"/>
<path class="st15" d="M346.8,9.6c0,1.5-0.6,2.3-2.2,2.6c-3.1,0.5-6.2,1.5-6.6,5.3c-0.4,3.9,3.2,3.8,5.5,5.1c1.2,0.7,4.8,0.7,2.1,3.8
	c-10.2-1-20.4-2.5-31.5-2.2C324.3,16.4,334.9,11.6,346.8,9.6L346.8,9.6z"/>
<path class="st5" d="M500.2,133.4c1.7-1.3,1.7-3.4,2.3-5.2c2.5,0,5.1,0.6,7.3-0.1c4-1.3,5.5-0.3,6.2,3.7c0.7,4.2,2.7,8,5.4,11.9
	c-4.9,1.5-9.7-1.2-14,1.2c-1.5,0.3-2.9,0.6-4.1-0.7C500.9,140.9,500,137.3,500.2,133.4L500.2,133.4z"/>
<path class="st7" d="M591.8,312.6c-3.7,0.6-7.3-0.9-11-1c-8-2.9-14-8.9-20.8-13.6c1.2-2,2.4-4,3.8-6.3c6,6.9,12.6,11.9,21.5,13.4
	C589.4,305.8,589.4,310.3,591.8,312.6z"/>
<path class="st15" d="M559.6,193.5c-6.7,0-10.2-5.5-14.8-8.8c-12.9-9.3-24.4-20.5-38.8-27.6c-2.1-1.1-5.4-1.9-4.7-5.7
	c16.7,9.1,32.3,19.5,46.8,31.8C551.9,186.6,555.7,190.1,559.6,193.5L559.6,193.5z"/>
<path class="st3" d="M83,362.2c-1.2-2.1,0-3.6,0.6-5c4.4-11.3,8.3-22.9,13.6-33.8c0.5-1,1-2.1,1.8-2.9c1.3-1.3,2.7-0.8,4,0
	c1.2,0.7,1.4,1.8,0.8,2.9C97.3,336.5,90.9,349.7,83,362.2L83,362.2z"/>
<path class="st2" d="M420.4,128.2c-4.1,3.5-9.2,5.8-12.7,10.1c-2.1,2.5-4,0.3-5.4-1.1c-3.9-3.8-8.4-6.8-12.8-10
	c-0.1-1.4,0.9-1.7,1.9-1.6c8.8,0.7,17.6,1.1,26.5,1.3C418.8,126.9,419.8,127.4,420.4,128.2L420.4,128.2z"/>
<path class="st14" d="M132.9,231.3c-8.1,2-15,5.9-19.5,13.3c-1.1,1.8-1.6,4.4-4.6,4.5c3.7-9.8,10-17.6,18.4-23.7
	c2.6-1.9,5-2.1,7.4,0.3C134,227.6,133.4,229.4,132.9,231.3L132.9,231.3z"/>
<path class="st3" d="M420.4,128.2c-9.9-0.1-19.9,0.4-29.7-1.7c-0.3-0.1-0.8,0.4-1.2,0.7c-1.1-0.7-0.8-1.9-1-2.9
	c11.6-1.3,23.2-1.1,34.8,0.1C423.2,126.3,422.7,127.9,420.4,128.2L420.4,128.2z"/>
<path class="st7" d="M603.3,328.5c-1.2-3.3-4-6-3.7-9.9c6.7,4.2,13.6,7.2,21.8,5.9c0.5,3.9-1.3,5-5,5.2
	C611.9,329.9,607.7,328.4,603.3,328.5L603.3,328.5z"/>
<path class="st8" d="M545.7,229.3c5.8,3,9.6,7.7,12.4,13.4c0.2,1.8-1.1,3.1-1.7,4.7c-5.7-5.2-9.8-11.7-14.4-17.8
	C543.2,228.4,544.4,228.6,545.7,229.3L545.7,229.3z"/>
<path class="st5" d="M654.8,316.4c-3,0.6-3.6,4.4-6.5,5.2c-2.5-6.3-5-12.6-7.6-18.9c3.3,0.4,4.6,3.5,6.7,5.4
	C650,310.7,652.3,313.7,654.8,316.4L654.8,316.4z"/>
<path class="st10" d="M49.5,433.2c0,1,0,2-0.7,2.8c-4.3,4.7-8.6,9.4-13,14c-1.1,1.1-2.4,2.6-4,0.5c5.3-5.9,10.7-11.8,16-17.7
	C48.3,432.9,48.9,433.1,49.5,433.2L49.5,433.2z"/>
<path class="st3" d="M500.2,133.4c1.8,3.4,2.6,7,3.1,10.7c-4-0.5-7-2-6.9-6.7C497.3,135.7,497.6,133.5,500.2,133.4z"/>
<path class="st15" d="M492.7,146.9c-5.1,1.7-12.3-1-14.9-5.6C482.9,142.6,487.8,144.7,492.7,146.9z"/>
<path class="st5" d="M597.8,264c4.4,0.8,4.2,4.2,4.5,7.3c0.1,0.9-0.8,1.8-1.6,1.1C598.2,270.2,597.6,267.3,597.8,264z"/>
<path class="st7" d="M90.2,366.7c-0.4,4.4-1.1,8.7-6.1,10.4C85.5,373.3,87.7,369.9,90.2,366.7z"/>
<path class="st15" d="M500.9,151.4c-3.3,1.3-5.4,0.6-5.3-3.4C497.6,148.7,499.4,149.9,500.9,151.4z"/>
<path class="st3" d="M212.3,226.5c-0.7-2.2,1-3.4,1.8-5.1c0.6,0,1.3-0.1,1.9-0.1C215.5,223.6,214.1,225.3,212.3,226.5z"/>
<path class="st3" d="M81.6,365.4c-0.2,1.3-0.2,2.6-1.7,3.3c-1.1-1.8,0.2-2.7,1.1-3.8C81.2,365.2,81.4,365.3,81.6,365.4L81.6,365.4z"
	/>
<path class="st15" d="M350.9,9.1c-0.1,0.7,0,1.7-1.1,1.6c-0.3,0-0.6-0.9-0.8-1.4C349.6,9.2,350.2,9.1,350.9,9.1z"/>
<path class="st3" d="M81,365c0.3-0.4,0.2-1.5,1-1.1c0.6,0.3,0,1.1-0.4,1.5C81.4,365.3,81.2,365.1,81,365L81,365z"/>
<path class="st4" d="M201.2,228.8c-0.2,0.6-0.2,1.4-1.1,1.5C199.6,229.2,200.7,229.2,201.2,228.8z"/>
<path class="st10" d="M573.3,527c-12.7,8.7-26.6,15-40.8,20.8c-0.7,0.3-1.4,0.7-2.2,1.1c-10.9,3.6-22,6.8-33.2,9.1
	c-35.5,7.2-71.4,10.4-107.5,8.5c-18.1-0.9-36.2-2.3-53.8-6.8c-1.6-0.4-3.1-0.9-4.7-1.9c5.2-1.3,10.3-2.7,14.7-5.8
	c2.5-1.7,5-3.3,4.3-6.7c-0.7-3.5-3.9-3.1-6.5-3.8c-7.3-2-13.5-6.2-19.3-10.8c-1.4-1.1-2.5-2.6-3.8-3.9c-0.4-0.2-0.8-0.4-0.9-0.9
	l-0.1-0.1c-0.4-0.3-0.5-0.6-0.4-1.1c0.6-1,0.3-2-0.2-3c-0.3-1.3,0.3-2.2,1.5-2.6c6.6,1.2,13.1,1.2,19.7,0c1.3-0.2,2.6-0.5,3.8-1
	c5.7-2.6,6.1-5.1,0.8-8.5c-6.9-4.5-14.1-8.5-19.3-15.2c2.6-2.6,5.1-0.9,7.6,0.1c4.3,1.7,8,5.1,13,5.3c3,0.4,5.8,2.2,9.1,1.6
	c8.5-1.6,13.7-9.2,12.1-17.8c-0.5-2.6-1.4-5.1-1.4-7.7c0-3.9,2.1-5.4,5.8-5.9c9-1.3,17.8-3.5,26.9-4.1c2.8-0.2,4.5-1.3,2.8-4.5
	c-0.6-1.2-0.8-2.6-0.4-3.9c1.8-6.2,1.7-12.4,0.2-18.6c-0.3-1.1-0.3-2.3,0.7-3.2c19.5-2.9,39-2.3,58.6-1.3c5.5,0.3,4.7-4.2,6.6-6.7
	c1-0.9,2-2,3,0c1.1,5,4.1,7.6,9.1,7.8c3.5,0.1,7,0.2,10.5,1.8c3.5,1.6,6.6-0.4,8.3-4c1.4-3.1,2.8-6.3,4.2-9.4
	c3.8-1.4,7.7-0.6,11.5-0.3c3.7,0.3,7.4,0.6,11.1,1c0.3-0.2,0.8,0.6,0.9-0.2c-5.5-1.6-11-1.1-16.6-1.3c-2.2,0-4.6,0.5-6.5-1.3
	c3.4-11.6,6.1-23.3,7.7-35.2c0.3-2.5,0.6-4.8,3.2-6.2c2.4-1.2,1.4-3.1,0.1-4.5c-1.9-2.1-2.4-4.6-1.9-8c4.5,3.2,8.8,6.2,13,9.2
	c11.4,16.9,20.5,34.9,28.2,53.8c0.8,1.9,2.2,3.9,0.5,6c-2.1,0.3-3.6-0.2-4-2.6c-0.1-0.6-0.2-1.3-0.4-1.9c-1.1-2.9-2-6.4-5.4-7.2
	c-3.5-0.8-6,1.9-7.7,4.4c-2.3,3.3-4.6,4-8.7,3.5c-7.2-0.7-14.5-0.6-21.7-0.1c-7,0.5-9.8,6.3-6.2,11.6c1.5,2.2,3.5,2.1,5.6,2
	c8.3-0.4,16.4,1,24.5,2.2c2.6,1.3,5.4,2.3,8,3.6c2.6,1.3,3.9,3.6,2.8,6c-2.8,5.9-1.1,12.2-2.6,18.2c-0.3,1.6,0.6,2.4,2,2.8
	c8.8,2.5,17.6,4.9,27.7,6.7c-4.2-2.2-8.6-1.5-10.8-5.3c-0.5-1.6-0.5-3.2,0.5-4.6c8.7,1,17.4,2.1,24.9,7.3
	c-8.8,3.4-14.5,9.8-16.7,18.7C562.4,512.1,564.8,520.7,573.3,527L573.3,527z"/>
<path class="st4" d="M164.6,415.8c-2-6.9-0.9-14-1.2-21c-0.3-6.9,0.2-13.8,0.3-20.7c2.3-16.5,3.1-33.2,6-49.6c1.9-2.3,2-5.1,1.8-7.9
	c0.1-0.7,0.2-1.4,0.2-2c1.3-0.1,2.4-0.7,2.6-2c1-7.2,6.8-11.5,10.2-17.2c2-3.5,5.4-3.3,8.3-2.2c6.4,2.4,13,3.3,19.6,4.4
	c8.1,1.4,15.5-2,23.2-3.3c1-0.2,2.1-0.7,2.9-0.4c6.5,2.8,13.5,4.1,19.6,7.8c1.4,0.9,2.7,1.9,2.5,3.9c-0.5,5.3,0.7,10.5,0.9,15.7
	c0.2,4.2,3.1,6.8,4.8,10.1c0.8,1.5,2.7,1,4.1,1c2.2,2.2,1.5,4.9,1.5,7.5c0.2,15.6-0.6,31.3,1.7,46.9c2.6,17.7,6.5,35,12.6,51.8
	c0.8,2.3,1.9,4.6,0.4,7.1c4.6,11.3,9.5,22.5,15.9,32.9c4.1,6.7,9.3,12.8,14.8,18.5c-2.4,1.8-4.5,0.4-6.2-1
	c-5.1-4.2-11-7.2-15.5-12.1c-1.7-1.8-4-2.8-6.4-3.5c-3.1-0.8-5.9-2.3-8-4.6c-3.5-3.8-7.3-3.8-11.6-2.1c-1.5,0.6-3,1.4-4.7,1.2
	c-1.6-0.2-2.6-1.3-3.5-2.6c-3.8-5.9-8.3-11.4-10.6-18.2c-4.9-10.8-13.1-17.7-24.1-21.7c-8.4-3-17.2-4-25.9-4.9
	c-5.9-0.6-11.1-1.4-13.2-8.3c-1.8-6.1-6.8-8-12.8-7.7c-1.7,0.1-3.2,0.4-4.5,1.7C168.8,415.1,166.9,416,164.6,415.8L164.6,415.8z"/>
<path class="st14" d="M631.8,491.9c6.3-4.2,13.3-3.8,20-2c15.4,4.1,26.6,14,35,27.3c3.6,5.7,7.4,11.1,7.4,18.3c0,2.8,2,5.1,4.7,6.6
	c6.3,3.6,12.3,7.7,18.7,11.1c3.1,1.6,3.8,3.5,3.2,6.7c-3.3,18-10.8,34.2-20.5,49.5c-3.6,5.6-6.9,11.7-13.1,15.1
	c-0.8,0.5-1.9,1.5-2.5,1.3c-4.4-1.8-9.6-0.8-13.5-3.5c-7-4.8-15.3-6.6-22.7-10.6c-4.5-2.5-9.3-1-14,0.2
	c-30.4,7.3-58.6-12.3-58.5-46.4c0-12.7,1.4-25,8.7-35.9c1.1-1.7,0.7-3.1-0.8-4.2c-1.7-1.3-3.4-2.6-5-4c-7.3-6.2-9.1-12-6.2-19.6
	c2.4-6.4,9.2-10.2,17.6-10.5c12-0.5,23.1,3,34.2,7c3.4-0.5,6,1.4,8.7,2.9c4.4,2.5,8.6,5.4,13.4,7.3c1.6,0.7,3.6,1.8,4.8-0.4
	c0.9-1.8-0.7-3.1-2-4.1c-3.7-2.8-7.6-5.2-11.9-6.9C634.9,495.9,632,495.3,631.8,491.9L631.8,491.9z"/>
<path class="st9" d="M404.5,676.8c0.8,3.4-1.1,5.9-3.4,7.6c-7.5,5.6-15.1,10.9-22.7,16.3c-6.2,3.5-11.5,1.5-15.8-3.4
	c-2.3-2.7-5-3.5-8.3-3.3c-4.7,0.3-9.2-0.5-13.5-2.2c-3.8-1.5-5.8-4.1-6-8.2c-0.2-4.9-0.7-10,1.2-14.7c2.4-5.8,0.5-10.1-3.5-14.2
	c-2-2.1-4.4-4.2-3.3-7.7c8.5-5.3,16.8-10.7,24.7-16.8c4.7-3.7,10-6.6,15-9.8c2.6,0.1,5.4-2.3,8.2,0.6c-10.6,5.8-8.2,15.3-6.5,24.3
	c2.2,12,9.1,21.5,16.8,30.7c3.4,4.1,6.9,5.5,12,4.7C402,680.2,401.3,676.1,404.5,676.8L404.5,676.8z"/>
<path class="st6" d="M502.4,373.2c0.3,1.3,0.6,2.7,0.9,4c-2,1.7-4.3,1.2-6.6,1c-18.2-2-34.1-9.6-48.7-20.1
	c-15.1-10.8-27.8-24.1-38.2-39.5c-1.3-1.9-3.5-3.9-1-6.5c4-1.5,8.1-0.7,12.2-0.8c7.2-0.1,14.4,0.1,21.6-1.5c3.5-0.8,4.9-2.2,3.4-5.8
	c-1.4-3.5-2.6-7.1-2.9-10.9c-0.1-1.5,0-3.2,1.8-3.6c1.5-0.3,2.6,0.7,3,2c1.8,5.1,5.2,9.6,5.7,15.1c-2.4,3-1.7,5.9,0.1,9
	c8.4,14.6,18.5,27.9,29.8,40.3C489.3,362.3,494.9,368.8,502.4,373.2L502.4,373.2z"/>
<path class="st6" d="M499.4,313.6c1.1,8.4,2.5,16.7,3.3,25.1c1,9.9,1.9,19.9,0,29.8c-2,0.4-3-1.1-4.2-2.2
	c-17.1-15.9-31.9-33.6-43.3-54.1c-0.8-1.5-2.3-2.9-1.2-5c12.4-4.1,23.9-9.7,33.7-18.6c1.2-1.1,2.7-2,4.5-1.4c4.1,3.9,4,9.5,5.8,14.3
	C499.4,305.4,500.6,309.4,499.4,313.6L499.4,313.6z"/>
<path class="st10" d="M409.2,618.4c11.3,5.4,17.2,15.1,15,24.9c-1.8,7.7-7,12.5-13.9,15.7c-3.5,0.1-7.2,0.8-10.5-0.7
	c-2.2-1-3.3,3.1-5.3,0.5l-0.5-0.1c-0.3-0.2-0.5-0.4-0.6-0.7l0.2-0.4c-1.7-2.4-3.4-4.8-4.9-7.3c-2.4-4.1-4.7-8.5-5-13.2
	c-0.2-4.2-2.3-9.4,1.1-12.6c5.1-4.8,11.7-7.1,19-6.8C405.6,617.8,407.4,618.2,409.2,618.4L409.2,618.4z"/>
<path class="st10" d="M364.3,615c-8.6,4.6-16.3,10.6-23.9,16.6c-10,7.9-19.6,6.6-29.6,0.6c-1.7-1-3.3-2.2-5.4-2.1
	c-0.2,0-0.5,0-0.7,0c-0.5-0.1-0.9-0.3-1.3-0.6c-4.6-4.6-9.6-8.9-13-14.6c-0.9-1.5-2.4-2.9-1-4.8c2.6-1,4.3,0.8,6.1,2.1
	c3.3,2.4,6.8,4.5,10.8,5.6c2.8,0.8,3.7-0.2,2.8-3c-0.5-1.6-1-3.1-1.3-4.7c-0.3-1.6-0.9-3.3,1-4.3c0.6-0.2,1.3-0.3,2-0.3
	c0.4,0,0.8,0.2,1.2,0.3c0.6,0.2,1.1,0.5,1.7,0.8c0.4,0.2,0.7,0.3,1.1,0.5c0.6,0.2,1.1,0.5,1.7,0.7c0.4,0.2,0.8,0.3,1.2,0.5
	c7.4,2.8,14.8,5.3,22.9,4.7c1.2-0.1,2.7,0.7,3.3-1.2c-2.4-4.5-5.3-8.6-6.9-13.4c-0.6-1.7-1.5-3.3-0.3-5.1c1.3-0.8,2.4-0.3,3.5,0.4
	c6.8,7,14.6,12.4,24.2,14.8c1.5,0.4,3.2,0.9,4.2,2.3c0.6,1.2-0.1,1.8-0.9,2.5C366.7,613.8,365.5,614.4,364.3,615L364.3,615z"/>
<path class="st10" d="M476.8,650.8c-1.2-0.9-2.3-1.8-3.5-2.6c-9.3-6.4-11.8-14.9-7.3-25.6c4.6-5,8.3-10.7,15.7-12.5
	c3.8-0.9,6.6,0.7,9.8,1.3c8.2,4.8,13.5,11.5,13.8,21.5c-0.5,4-0.2,8.1-3.9,11c-5.6,4.3-11.2,8.6-18.6,9.2
	C480.5,653.3,478.2,653.1,476.8,650.8z"/>
<path class="st14" d="M557,476.3c0,1.6,0,3.3,0,4.9c-0.7,0.8-1.7,1.2-2.7,0.9c-6.1-1.6-12.8-1.4-18.3-5.1c1.9-6-1.2-12.5,2.7-18.4
	c1.3-1.9,0.5-4.2-2.5-5.3c-2.6-1-5.8-1.4-7.1-4.6c9.4,0.4,18.5,2.8,27.5,5.2c8.6,2.3,16.9,5.2,24.3,10.3c2.3,1.6,4-0.4,5.8-1.2
	c2.4-0.8,4.6-0.4,6.5,1.3c0.1,0.7,0.3,1.3,0.4,2c-0.1,0.8,0.2,1.4,0.7,2c1.6,3.8,3.2,7.6,4.7,11.4c0.5,1.2,1,3.1-1.2,2.6
	c-5.2-1.1-10.1,1.5-15.2,0.7c-6.8-3.5-13.7-6.6-21.3-7.5C560,475.4,558.2,474.3,557,476.3L557,476.3z"/>
<path class="st5" d="M506.2,613.3c-2.9-2-5-5-8.6-6c-3.4-2.8-7.5-3.2-11.5-3.7c-2-0.3-2.6-0.8-1.7-2.8c2.2-5.2,2.9-10.8,4.3-16.2
	c2.5-2.2,5.9-1.5,8.8-2.5c7.5-2.7,13.9-7.2,20.1-12c1.9-1.5,3.8-3.5,6.4-1.1c2,9.5,4.2,18.9,4.4,28.7c-1.1,7-4.2,13.1-8.9,18.4
	c-3,3.3-4.1,3.6-6.6-0.1C511,613.2,508,615,506.2,613.3L506.2,613.3z"/>
<path class="st8" d="M340,594.4c-1-0.5-2-0.9-3.1-1.4c-4.2-3.3-9.6-2.8-14.4-4.3c-10.7-3.4-20.7-8.2-30.3-14
	c-5.4-3.2-10.5-6.7-14.5-11.7c-0.2-4.1-2.7-8.1,0-12.2c6.3-0.4,11.4,3.8,17.5,4.4c6.7,0.7,13.1,2.8,19.2,5.6
	c2.5,1.1,5.1,2.3,8.1,1.6c7.9,0.8,8.6,7.6,10.8,13.1c0.4,0.5,0.7,1.1,0.9,1.7c0.3,0.6,0.8,1.1,1.1,1.7c1.9,4.1,3.3,8.4,5.6,12.3
	C341.4,592.2,342.8,594,340,594.4L340,594.4z"/>
<path class="st8" d="M286.7,445.9c-2.3-7.5-4.6-15-6.9-22.5c-2.5-8.4-4-17.1-5.8-25.7c-4.7-21.5-3.3-43.4-3.5-65.2
	c0.2-16.9,5-32.9,10.2-48.8c0.5-1.4,0.9-2.9,2.2-3.8c0.9,0.1,1.4-2.2,2.7-0.5c1.3,1.5,0.8,3,0.2,4.6c-5.6,16.1-8,32.7-8.5,49.7
	c-0.3,8.2-1.3,16.4,0.1,24.5c0.7,0.7,1.3,1.6,1.3,2.6c-0.1,7.1,2.6,13.8,2.7,20.8c-0.7,2.4-0.8,4.9-0.3,7.4
	c2.9,14.4,5.5,28.9,10,42.9c1,3.2,2.1,6.3,1,9.6C290.8,443.5,288.9,444.9,286.7,445.9L286.7,445.9z"/>
<path class="st5" d="M264.7,474.4c2.3-0.8,4.6-1.8,7-2.5c3.7-1,7.1-1.2,9.7,2.5c1.1,1.5,2.9,3,4.7,3.5c10.7,2.8,17.1,11.9,25.9,17.4
	c1.7,1.1,3.4,2,5.5,1.8c4,3,7.4,6.9,10.9,10.5c-0.1,4.6-3.3,4.8-6.5,4.2c-2.9-0.6-5.8-1-8.7-1.5c-4.9-0.8-9-4.2-14.1-4.5
	c-3.4-0.9-6.1-3.2-8.8-5.1c-8.5-6.2-17.1-12.4-23.5-21.1C265.6,478.1,263.8,476.8,264.7,474.4L264.7,474.4z"/>
<path class="st6" d="M474.9,417.9c-0.4-13-0.2-26-2.4-38.9c0.7-2.3,2.5-1.9,4-1.5c7.9,2.4,15.8,4.6,24.2,3.5
	c0.6-0.1,1.2,0.4,1.8,0.8c-0.1,1.1-0.1,2.1-0.2,3.2c-1.6,0.1-1.7,1.3-1.7,2.4c-0.2,9.5-3.1,18.4-5.9,27.4c-0.6,2-1.7,4-2.8,5.8
	c-4.2,6.4-10.1,6.6-14.8,0.5C476.3,420.2,475.8,418.9,474.9,417.9L474.9,417.9z"/>
<path class="st8" d="M502.5,381.9c-8.8,1.9-17.2,0-25.5-2.9c-1.4-0.5-3-1.8-4.5,0c-1.6-1-3-2.3-5.1-1.7c-1-3.1-4.1-3.8-6.4-5
	c-14.1-7.5-26.5-17.3-37.5-28.6c-9.2-9.5-18-19.5-23.7-32.3c1.7,0.1,3.2,0.1,4.7,0.2c1.6-0.5,2.8-0.3,3.6,1.4
	c2.2,5.8,6.4,10.2,10.1,15c2,2.6,4.3,5,6.5,7.4c15.5,17.6,34.1,30.8,56.3,38.3c7.1,2.4,14.6,3.6,22.3,3.5
	C503,378.8,502.8,380.4,502.5,381.9L502.5,381.9z"/>
<path class="st8" d="M389.2,394.9c2.4,2.9,6.1,1.9,9.1,3c0.9,0.3,2.2,0.4,2,1.6c-0.2,1.4-1.4,0.9-2.3,0.8c-7.3-0.5-7.2-0.5-6.6,6.7
	c0.3,3.1,1.2,5.3,4.4,6.9c4.4,2.2,8.3,5.3,12.2,8.2c1.2,0.9,3.5,2,1,4.1c-2.4,1.1-4.8,0.3-7.2-0.1c-2.3-0.4-4.2,0-5.5,2
	c-1.5,0.3-2.9,0.5-4.3,0.8c-3-7.6-9.7-5.4-14.9-4.8c-4.7,0.5-6.2-1.1-7.4-4.9c-0.9-3-2.2-5.9-3.4-8.8c-1.1-2.7-0.2-3.8,2.6-3.4
	c4.2,0.5,8.4,1.3,12.7,1.8c1.5,0.2,3.4,2,4.5,0.2c1.2-2.2,0.6-4.9,0-7.2c-0.5-2-2.4-2-4-2c-5.1,0.1-10.2,0.2-15.3,0.2
	c-0.8,0-1.6-0.1-2.5-0.8c3.9-2.7,8.5-2.7,13-3.2c2.8-0.4,6,1.1,8.5-1.2C387.1,394,388.1,394,389.2,394.9L389.2,394.9z"/>
<path class="st11" d="M403.5,573.9c2.3,0.2,2.7,2.6,4.4,3.6c0.6,0.4,0.8,1.5,0.3,1.7c-4.5,1.5-4.9,8.3-11.5,7.7
	c-5.9-0.5-10.2,5.4-11.6,13.2c-7.5-2.8-17.5-16.2-17.7-23.9c-0.1-3.2,1.1-5.1,4.8-4.3c7.7,1.7,15.5,2.1,23.4,1.6
	C398.1,573.2,400.7,576.6,403.5,573.9L403.5,573.9z"/>
<path class="st8" d="M354.9,428.9c5.5-1.1,8.8,0.4,9.9,4.5c-1.5,0.9-3.2,0.4-4.8,0.9c-2.2,0.7-3,2.5-3.5,4.5
	c-0.3,1.3,0.2,2.3,1.4,2.8c1.8,0.7,3.5,0.4,5.1-0.8c1.6-1.1,2.4-3.2,4.4-3.9c1.3,0.2,2.5,0.6,3.4,1.6c0.8,1.7,0,3.1-0.8,4.5
	c-0.7,1.3-1.8,2.7,0.6,3.4c2,0.5,2.6-0.7,2.7-2.4c0.2-2.3,1.1-4.4,2.8-6c1.5-1,3.3-1.1,5-1.2c0.9,0.1,1.7-0.4,2.6-0.6
	c1.8-0.1,3.6-0.1,5.4-0.2c0.5,0.2,0.8,0.6,0.9,1.1c5.3,9,4.3,13.2-4.2,17.1c-1.3,0.3-2.5-0.6-4.1-0.4c-0.5,2,1.7,4.3-0.4,6.1
	c-1.9,0.9-3.3-0.1-4.6-1.3c-7-9.5-19-7.7-26.8,1.2c-0.8,0.5-1.8,0.6-2.7,0.5c-3.1-1.2-4.5,2.3-7.2,2.5c-6.7-1.2-9.9-5.6-10.6-12.1
	c-0.1-0.5-0.1-1,0-1.5c3-5.5,8.7-5.4,13.7-6.5c2.9,0.9,4.2,3.5,5.7,5.8c1.5,2.3,3,2.2,4.9,0.8c2.4-1.8,0.3-2.6-0.7-3.8
	c-1.4-1.6-2.9-3.1-3.4-5.3C349.3,435.5,351,431.7,354.9,428.9z"/>
<path class="st7" d="M595.2,445.7c2.5,0.1,3.3-1.8,4.2-3.5c3.9-7.6,5.1-16.2,8.3-24.1c0.8-2.1,0.9-4.5,2.8-6.2
	c3,10.5,3.9,21.2,2.7,32c-0.7,5.8,0.2,11.9-2.4,17.5c-1.3,2.9-1.7,7.6-5.3,7.4c-2.8-0.2-3.1-4.8-4-7.7c-1-3.3-2-6.6-2.9-9.9
	c-0.4-1.5-1.2-2.3-2.7-2.5C595.7,447.7,595.4,446.7,595.2,445.7L595.2,445.7z"/>
<path class="st2" d="M527.4,598.4c-1.4-9.9-2.8-19.8-4.3-29.6c-2.3-3-1.9-7-3.9-10.1c0-0.3,0.1-0.5,0.1-0.8c0.6-0.7,1.6-0.6,2.3-1.1
	c1.5-0.1,3.1-0.3,4.6-0.4c0.3,0.1,0.6,0.2,0.9,0.2c1.4,1,2.2,2.5,2.5,4.2c3.5,20,8.7,39.7,7,60.3c-0.6,6.8-2.5,13-9.4,16.1
	c-1.8-1.7-3.2-3.6-3.8-6.1c-0.1-0.3-0.3-0.7-0.2-0.9C528.3,620.1,527.3,609.1,527.4,598.4L527.4,598.4z"/>
<path class="st13" d="M553.1,436.8c-0.6-4.8-2.6-9.3-4.9-13.3c-3.9-7-6.4-14.6-10.3-21.6c-3.7-6.6-7.6-13-11.7-19.4
	c-1.1-1.7-2.2-3.3-1.9-5.4c5.1,2.6,10.3,5,15.2,7.9c4,2.4,4.3,7.2,6,11c5.3,12.2,10.3,24.5,13.4,37.5c0.4,1.7,2,3.7,0.8,5
	c-1.4,1.5-3.2-0.5-4.9-0.9C554.3,437.5,553.7,437.1,553.1,436.8L553.1,436.8z"/>
<path class="st8" d="M519.2,558.7c4.6,2.1,3,6.6,3.9,10.1c-4.2-0.2-6,3.7-8.9,5.6c-7.9,5.2-15.6,10.5-25.6,10.3
	c0.3-5.4,0.6-10.8,0.8-16.2c0.1-3.4,2.8-3.3,4.9-3.5C502.9,563.8,511.1,561.5,519.2,558.7L519.2,558.7z"/>
<path class="st2" d="M401.6,435.7c1.7,7.7,3.2,15.5-0.3,23.1c-0.9,2,0.5,2.5,1.8,3.3c2.7,1.6,2,3.1-0.4,4.1c-1.3,0.6-2.8,1-4.3,1
	c-9.6,0.2-18.8,3-28.2,4.1c-2.9,0.3-4,1.9-4.1,4.5c-0.7,2.6-2.3,3.5-4.9,2.9c-4-4.9-1.8-11.8,4.3-13.4c3.8-1,7.7-1.4,11.6-2.1
	c1.5-0.2,3-0.3,4.5-0.7c3.4-0.6,7.2-0.4,9.6-3.8c3.6-4.9,4.2-10.4,3.2-16.2c-0.3-2-1.7-4-1-6.1C396,435,398.8,435.9,401.6,435.7
	L401.6,435.7z"/>
<path class="st11" d="M313.1,478.5c-4.2-2.6-4.8-7.8-8.2-11.2c-1.8-1.7-0.8-5.4,1.2-7.1c5.2-4.6,10.9-8.8,16.3-13.2
	c1.9,2.7,0.7,6,1.9,8.8c0.2,5.6,1.6,10.8,5.4,15.3c1.2,1.5,2.4,3.1,2,5.3c-0.7,1.9-2.3,2.3-3.9,2.3
	C322.9,478.8,318,479.3,313.1,478.5L313.1,478.5z"/>
<path class="st13" d="M535.7,376.9c-7.7-4.2-14.5-9.7-21.5-14.8c-2.3-1.7-3.3-3.7-3.4-6.6c-0.3-8.2-1.1-16.4-1.1-24.8
	c11.2,13.8,19,29.6,26.7,45.4C536.3,376.4,536.1,376.7,535.7,376.9L535.7,376.9z"/>
<path class="st13" d="M346.4,371.9c1.7,8.1,4.6,14.9,3.9,21.2c-0.7,6.1-4.7,12.2-8.4,17.5c-1.6,2.2-6.4,2.1-9.6,3.2
	c-3.1,1-5.5,3.4-9.9,4.1C333,403.9,339,388.3,346.4,371.9L346.4,371.9z"/>
<path class="st8" d="M453.7,307.9c10.3,17.4,21.5,34.2,36.2,48.4c4.2,4.1,8.5,8.2,12.8,12.3c-0.1,1.5-0.2,3.1-0.3,4.6
	c-5.7-0.5-8.9-5-12.3-8.5c-13.2-13.6-25.2-28.3-35-44.6c-1.5-2.5-2.8-5.2-4.2-7.8c-1.5-2.6-0.5-4,2.2-4.6
	C453.4,307.4,453.6,307.5,453.7,307.9z"/>
<path class="st14" d="M313.1,478.5c4.3-2.4,8.9-0.6,13.3-1.1c1.8-0.2,4.2,0.7,4.7-2.2c7.5-0.7,9.1,0.3,9.8,5.6
	c-0.2,6.1-0.6,12.3,4,17.4c0.8,0.8,1.4,1.8,1,3.1c-5,0.6-8.5-2.8-12.5-4.7c-2.7-1.2-5.2-2.8-8.3-1.9
	C320.3,489.8,315.8,484.8,313.1,478.5L313.1,478.5z"/>
<path class="st7" d="M292.1,441.6c-4.4-16.7-9-33.4-12-50.4c-0.5-3-1.2-6.1,0.4-9c1.3-0.3,1.8,0.7,2.1,1.6
	c5,13.9,10.7,27.5,17.2,40.7c0.4,0.7,0.5,1.6,0.5,2.4c0,1.9,0.6,3.4,2.4,4.2C300.6,436,296.6,439,292.1,441.6L292.1,441.6z"/>
<path class="st8" d="M264.7,474.4c7.5,12.2,18.7,20.3,30.3,28c1.5,1,3.1,1.8,4,3.5c0,0.5,0.1,0.9,0.2,1.3c-3,3.6-4.8,3.6-11.8,0.1
	c-13.1-12.8-26.6-25.3-34.3-42.4c-1.5-3.2-4-6.4-2.3-10.4c4.2,4.4,6.2,10.3,10,15C262.1,471.1,262.8,473.2,264.7,474.4L264.7,474.4z
	"/>
<path class="st8" d="M344.2,354.4c-0.5-22.2-1.2-44.5,4.8-66.2c3-1.8,3.7-0.3,3.7,2.4c-2.1,8.3-2.2,16.9-2.6,25.3
	c-0.6,12.1-0.9,24.3,1.4,36.3c0.2,1.1-0.2,1.9-1.2,2.4C348.2,354.5,346.2,354.5,344.2,354.4L344.2,354.4z"/>
<path class="st8" d="M457.5,625.1c-2.3,3.6-1.3,7.5-0.6,12c-3.3-3-6-5.5-8.7-7.9c-1.2-3.5-5.1-3.7-7.9-6.4c1.9-0.3,3.3-0.5,4.8-0.7
	c5.1-3.9,9.1-8.4,10.5-14.9c0.7-3.5-1.3-7.1,0.4-10.6c1.8-1,1.4-5.5,5.2-3.5c4,2,6.5,7,5.1,10.7c-2,4.9-4.3,9.6-6.4,14.5
	C459,620.3,458.3,622.7,457.5,625.1L457.5,625.1z"/>
<path class="st14" d="M453.8,581.7c0,1.2,0.2,2.9,0,4.5c-0.5,3.3-1.4,6.2-5.9,3.8c-1.7-0.9-3.8-1.4-5.7-1.3c-7,0.3-9-5.4-12.4-9.5
	c-1.1-1.3-0.1-1.9,0.8-2.7c6-5.2,13.2-5.1,20.2-4C455.7,573.3,453,578.2,453.8,581.7L453.8,581.7z"/>
<path class="st0" d="M340,594.4c1.8-2-0.8-2.5-1.3-3.8c-1.4-4.1-3.1-8.1-4.7-12.2c-0.3-0.2-0.5-0.5-0.7-0.8c0-0.7-0.1-1.4-0.1-2.1
	c2.4,2,6,1.9,8.3,4.2c3,5.1,5,10.6,9.3,15c3.3,3.3,7.8,4.8,10.8,8.4c1.6,2.9,4.2,4.5,7.2,5.1c2,0.3,2.9,1,2.8,3
	c-1,0.8-1.9,0.9-2.8-0.2c-10.1-2.8-19.6-6.8-27.2-14.4C341.1,596,340.6,595.2,340,594.4L340,594.4z"/>
<path class="st8" d="M396.5,344.9c-9.1,10.8-21.6,16.1-34.1,21.3c-2.8,1.2-5.6,2.9-8.9,1.5c0,0-0.1-0.1-0.1-0.2
	c2.2-3.6,5.7-5.3,9.3-7.1c9.7-4.9,19.4-9.9,28.3-16.2c1.2-0.8,2.2-2.1,3.9-1.8C397.4,342,397,343.4,396.5,344.9L396.5,344.9z"/>
<path class="st10" d="M593.4,464.4c-2.2-0.4-4.3-0.9-6.5-1.3c4-6,3.6-8.4-2.1-12.8c-2.9-2.2-5.9-4.2-9.3-5.5c-2.3-0.9-2.6-2-1-4
	c4-5.2,6-11.3,8.1-17.6C584.5,437.4,589.8,450.7,593.4,464.4L593.4,464.4z"/>
<path class="st9" d="M474.9,417.9c2.4-0.1,2.7,2.1,3.8,3.4c4,4.6,8.1,4.3,11.6-0.5c3.5-4.9,4.6-10.8,6.1-16.4
	c1.5-5.6,3-11.3,3.1-17.2c0.1-1.7,1.3-2.1,2.8-2c0,15.3-5.2,29.4-10.7,43.3c-0.4,1.1-1.2,1.6-2.2,1.5c-4.2-0.6-8.5-1.2-12.7-1.8
	c-1.6-0.2-2-1.3-2-2.8C474.9,422.9,474.8,420.4,474.9,417.9L474.9,417.9z"/>
<path class="st8" d="M576.9,355.3c8,14.1,9.4,29.3,7.2,45.1c-1.8-0.7-2.1-4-5-3.1c0.6-8.7-0.8-17.2-2-25.8c-0.7-4.6-0.8-9.4-3-13.8
	C572.9,355.2,575.2,355.3,576.9,355.3z"/>
<path class="st12" d="M631.8,491.9c1.4,2.5,4.2,3.1,6.6,4.1c4.9,2,9.4,4.7,13.3,8.4c1.4,1.3,2.4,2.8,1,4.7c-1.3,1.8-2.8,1.8-4.8,1.1
	c-8.4-3.1-15.3-9-23.6-12.3C626.2,495.1,628.7,493.2,631.8,491.9L631.8,491.9z"/>
<path class="st8" d="M418.4,582.8c4.2-1.6,7.4-0.3,10.2,3.8c2.8,4,2.1,7.1-2.8,8.4c-4.5,1.2-13.8-2.2-16.5-5.9
	c-1.1-1.4-0.7-2.3,0.4-3.4C412,583.2,414.7,581.9,418.4,582.8L418.4,582.8z"/>
<path class="st7" d="M499.4,313.6c-1.2-7.4-3.5-14.5-5.8-21.6c-0.5-1.6-0.6-3.2-2.3-4.1c-0.8-1.5-1-2.8,0.7-3.8
	c4.7-4.2,4.7-4.2,6.7,2c2.9,9,4.8,18.3,6.8,27.5C503.5,313.2,501.4,312.6,499.4,313.6L499.4,313.6z"/>
<path class="st12" d="M447.6,614.1c-6.3,2.9-11.6,0.1-18.1-2.8c3.5-1.3,5.8-0.8,8.1-0.5c3,0.4,6.2,0.3,7.8-2.7
	c1.4-2.6,0.8-5.5-1.2-7.8c-2.3-2.8-5.2-2.2-8.1-1c-1.8,0.8-3.5,1.8-5.6,1.5c3.3-5.4,10-7.6,14.8-5.1c4.6,2.4,6.3,8.9,3.9,14.3
	c-0.6,1.3-1.8,2.4-1.6,4c0.2,0.2,0.2,0.3,0.2,0.3C448,614.4,447.9,614.3,447.6,614.1L447.6,614.1z"/>
<path class="st12" d="M416.1,603.5c-2.7-1.3-4.7-2.2-6.7-3.2c-3.2-1.6-6.2-1.6-8.2,1.7c-2,3.3,0.5,5.1,2.8,6.8
	c0.5,0.3,0.7,0.9,1.5,2c-4.4,0.5-8,1.6-10.9-2.6c-2.5-3.6-2.4-7-0.4-10.6c0.7-1.2,1.6-2.1,2.9-2.6
	C401.9,593.1,412.9,597.6,416.1,603.5L416.1,603.5z"/>
<path class="st2" d="M354.9,428.9c-1.9,3.6-4.9,6.8-4.2,11.4c-1.6,2.9-4.8,2.1-7.2,3.2c-4.8,1.3-9.7,2.2-13.6,5.8
	c-1.5-1.8-1.4-3.7,0-5.5C336.5,435.8,345.9,432.7,354.9,428.9L354.9,428.9z"/>
<path class="st13" d="M443,631.3c2.7,3.1,6.8,5.2,7.3,10c-0.9,1.5-2.4,1.8-4,1.9c-0.8,0-1.5-0.2-2.2-0.4c-4-3.5-8.1-7-12.8-9.5
	c-1.3-2.1-2.7-4.2-4.2-6.6c2.3-0.7,4.3-0.5,6.2,0.1C436.8,627.6,439.9,629.5,443,631.3L443,631.3z"/>
<path class="st10" d="M361.7,603.2c-10.4-4.6-17.8-11.8-20.1-23.4C350.4,585.7,356.6,593.9,361.7,603.2z"/>
<path class="st14" d="M471.7,607.5c3.9-10.4,8.6-19.7,2.6-29.6c5.6,0.2,8.2,3.1,7.4,8.6C480,599,478.8,601.8,471.7,607.5
	L471.7,607.5z"/>
<path class="st5" d="M393.3,436.5c3.8,5.5,3.7,17.7-0.3,22.8c-0.2,0.3-0.9,0.2-1.4,0.3c-3.8-0.2-5.5-2.4-6.1-5.9
	c1.7-1.3,3.6-2.3,5-3.9c2.2-2.4,2.5-5.3,0.8-8.2c-0.9-1.5-2.4-2.8-1.8-4.9c0.3-0.3,0.7-0.5,1.1-0.4
	C391.6,436.3,392.5,436.4,393.3,436.5z"/>
<path class="st2" d="M339,566.8c6.2,1,11.8,1.9,17.5,2.8c0.8,0.1,1.8,0.1,1.9,1.1c0,0.5-0.5,1.2-1,1.5c-3.3,2.4-6.6,5.2-10.8,1.2
	c-1.7-1.6-3.9-1.9-6.4-1.2c-2.8,0.8-3.1-1.9-3.4-3.7C336.1,565.9,338.3,566.9,339,566.8L339,566.8z"/>
<path class="st7" d="M321.1,550.7c2.2-3.7,5.3-7.2,3.1-12c5.2,3,9.9,6.7,15.7,9C333.6,549.7,327.6,551.7,321.1,550.7L321.1,550.7z"
	/>
<path class="st8" d="M389.5,668c-7.1-7.3-10.8-16.2-12.8-26c0.3-0.9,0.9-1.5,2-1.2c0.5,1.1,0.9,2.3,1.4,3.4c0.8,1.8,1.4,3.7,2.4,5.4
	c0,2.3,1.1,4,2.7,5.4c2.8,2.8,6.6,4.8,7.9,9C392.9,666.1,391.9,667.7,389.5,668L389.5,668z"/>
<path class="st11" d="M367.6,436.9c-1.2,2.5-2.5,5.1-5.4,6c-2.3,0.7-4.7,0.5-6.5-0.9c-1.5-1.2-0.5-3,0-4.6c0.8-2.4,1.9-4.7,4.9-4.7
	c1.4,0,2.9,0.5,4.3,0.7C365.8,434.5,366.7,435.7,367.6,436.9L367.6,436.9z"/>
<path class="st7" d="M287.4,507.3c1.7-0.2,3.2-0.1,4.7,0.7c2.5,1.3,4.8,1,7-0.8c0.3,4.2,3,7.4,4.5,11.2c-0.5,1.2-1.6,2.2-2.7,1.3
	C296.2,515.8,290.5,513,287.4,507.3z"/>
<path class="st13" d="M557,476.3c-0.3-0.9-1.9-1-1.5-2.3c0.2-0.8,1.1-0.7,1.7-0.6c8.7,1.4,17,3.6,24.7,8.1c0.5,0.3,0.6,1.1,0.9,1.7
	c-0.4,0.2-0.7,0.3-1.1,0.5C573.6,480.7,565,479.7,557,476.3L557,476.3z"/>
<path class="st12" d="M526.3,426.1c-8.2-0.8-16.5-0.6-24.6-2.2c-0.2-0.8-0.3-1.5,0.5-2c7.6,0.3,15.3-0.9,22.8,1.2
	c2.4,0.7,2.4,0.7,2.3,3C526.9,426.1,526.6,426.2,526.3,426.1L526.3,426.1z"/>
<path class="st2" d="M474.3,570.7c-3.3-0.3-5.1,0.5-6.8,1.7c-1.4,1-2.9,1.5-4.6,1c-0.8-0.2-1.5-0.7-1.5-1.7c0-0.9,0.8-0.9,1.5-1
	c5.6-1,11.2-2.2,16.9-3.1c1.3-0.2,3.2-0.6,3.7,1.4c0.3,1.3,0.6,2.8-0.3,3.8c-1.2,1.4-2.4,0-3.5-0.3
	C477.4,571.8,475.3,571,474.3,570.7L474.3,570.7z"/>
<path class="st0" d="M456,596.5c-0.5,5,1.4,10-0.6,15.1c-2,5.1-5.1,8.6-10.3,10.4c0.2-2.8,4.4-4.4,2.5-7.9c0,0,0.1-0.1,0.1-0.1
	c4.7-1.2,6.9-4.3,7.2-10C455.1,601.4,454,598.7,456,596.5L456,596.5z"/>
<path class="st7" d="M313.1,510.3c2.7-1.6,5.4-0.2,7.9,0.3c3.4,0.8,5.8,0.3,7.3-3c2.5,1.5,4.9,3,8.5,5.2
	C327.6,514.9,320.3,513.1,313.1,510.3L313.1,510.3z"/>
<path class="st5" d="M376.4,437.9c-0.2,2.9-2.4,5.4-1.8,8.5c0.2,0.8-0.3,2-1.2,1.7c-2-0.7-4.4,0.2-6-1.6c-0.9-1-0.2-1.9,0.6-2.6
	c1.6-1.5,2.5-3.5,3.1-5.5C372.8,438.2,374.6,438.1,376.4,437.9L376.4,437.9z"/>
<path class="st13" d="M469.4,594.1c-3.7-5.2-8.1-8.8-10.3-15c5.5,2.2,7.3,7,11.4,9.3C472,589.3,470.6,591.7,469.4,594.1L469.4,594.1
	z"/>
<path class="st3" d="M330,443.8c0,1.9,0,3.7,0,5.5c0,0.3-0.1,0.7-0.1,1c-0.2,0.4-0.4,0.8-0.8,1c-3,0.5-3.1,4.4-5.9,5.2
	c-1.3-3.1-0.7-6.4-0.7-9.6C324.9,445.9,326.8,443.3,330,443.8L330,443.8z"/>
<path class="st2" d="M389.5,668c1-1.4,1.9-2.7,2.9-4.1c3.7-0.5,4.3,2.8,6,4.8c1.2,1.9,0.7,3.4-1.1,4.6c-1.7,1-3.2,0.6-4.4-0.7
	C391.6,671.2,389.7,670.3,389.5,668L389.5,668z"/>
<path class="st7" d="M376.3,605.8c-6-3.7-9.5-9.6-13.8-14.8c-0.6-0.7,0-1.6,0.8-2c0.3-0.2,1.1,0,1.2,0.3
	C367.5,595.4,372.8,600,376.3,605.8L376.3,605.8z"/>
<path class="st14" d="M374.6,612.2c3.5-0.3,7.2,0.7,10.5-1.4c0.5-0.3,1.6-0.1,2.3,0.3c1.2,0.7,0.2,1.8,0,2.5
	c-1.7,4.2-3.4,4.6-7.1,1.6c-1.7-1.3-3.7-1.1-5.5-1.8C374.4,613,374.4,612.6,374.6,612.2L374.6,612.2z"/>
<path class="st0" d="M398.5,668.8c-2-1.6-4-3.2-6-4.8c-2.2-3.2-5.7-5.2-7.2-9c3.2-0.2,4.8,4.4,8.4,2.7v0c0,0.6,0.5,0.9,0.8,1.2l0,0
	C394.9,662.5,399.2,664.6,398.5,668.8L398.5,668.8z"/>
<path class="st12" d="M422.8,601.5c2,0,4.2,0,4.2,2.8c0,2.1-0.7,3.9-3.3,4c-3,0-3.8-2.2-4.2-4.5
	C419.1,601.2,421.2,601.5,422.8,601.5L422.8,601.5z"/>
<path class="st15" d="M396.5,428.1c-0.7-3,0-4.3,3.5-3.5c3,0.8,6.1,1.1,9.2,1.6c0.1,0.5,0.1,1,0.2,1.6
	C405.1,427.9,400.8,428,396.5,428.1z"/>
<path class="st12" d="M426.1,620.9c-2.2,1-3.1-1.1-4.6-1.8c-0.5-1.4-3.4-2.2-2-3.9c1.4-1.7,3.3,0.2,4.9,0.8
	C426.9,617,427.8,618.5,426.1,620.9z"/>
<path class="st13" d="M319.5,525.1c0,0.3-0.1,0.5-0.2,0.7c-3-1.6-4.4-4.5-6.6-7.5c3-0.7,5.2,0.5,7.5,0.9c-0.6,0.8-1.2,1.7-1,2.8
	C320,523,320,524,319.5,525.1L319.5,525.1z"/>
<path class="st2" d="M378.7,640.7c-0.7,0.4-1.3,0.8-2,1.2c-1.6-3.8-2.5-7.5,0.1-12.1C378.5,634,378.8,637.3,378.7,640.7L378.7,640.7
	z"/>
<path class="st13" d="M414.9,573.4c1.9-0.2,3.8-0.4,5.7-0.4c1.2,0,3-0.5,3.1,1.2c0.1,1.3-1.5,2-2.8,2.4
	C418.3,577.4,416.7,575.3,414.9,573.4L414.9,573.4z"/>
<path class="st9" d="M360.5,577.9c0.9,2.4-0.6,3.8-1.2,5.4c-0.3,0.8-0.7,2.2-1.8,1.8c-1-0.4-1.7-1.4-2.4-2.3c-0.8-1-0.3-1.9,0.6-2.5
	C357.2,579.4,358.5,578.1,360.5,577.9L360.5,577.9z"/>
<path class="st13" d="M469.7,427.7c-1-1-2-0.5-3,0c0-3.8,0.9-7.3,3-10.6V427.7z"/>
<path class="st9" d="M403.5,573.9c-3,6-5.3-0.4-8-0.4C398.2,572.6,400.8,573.5,403.5,573.9z"/>
<path class="st13" d="M374.6,612.2c0,0.4,0.1,0.8,0.1,1.2c-2.3,0.6-4.5,0-6.8-0.1c0.3-0.7,0.7-1.5,1-2.2c0.9,0,1.8,0.1,2.8,0.2
	C372.7,611.6,373.6,611.9,374.6,612.2L374.6,612.2z"/>
<path class="st12" d="M406.4,667.6c2.1,3,1,5.7-0.6,8.4c-0.8,0-1-0.8-1.4-1.3C405.8,672.5,404,669.5,406.4,667.6L406.4,667.6z"/>
<path class="st0" d="M382.5,649.5c-2.2-1.2-2.4-3.2-2.4-5.4C382.5,645.3,382.1,647.6,382.5,649.5z"/>
<path class="st2" d="M383.9,436.1c-0.6,1.4-1.3,2-2.6,0.6C382,435.8,382.9,435.7,383.9,436.1z"/>
<path class="st10" d="M594.5,468.4c-1.4-0.3-2.3-0.7-0.7-2C594,467.1,594.3,467.7,594.5,468.4z"/>
<path class="st9" d="M404.4,674.7c0.5,0.5,0.9,0.9,1.4,1.3c-0.3,0.5-0.3,1.5-1.3,0.8C403.1,676.1,404.2,675.4,404.4,674.7
	L404.4,674.7z"/>
<path class="st0" d="M521.6,556.8c-0.8,0.3-1.5,0.7-2.3,1C519.8,556.8,520.7,556.7,521.6,556.8z"/>
<path class="st2" d="M390.7,436.3c-0.4,0.1-0.8,0.3-1.1,0.4c-0.1-0.3-0.2-0.5-0.3-0.8C389.8,436,390.3,436.2,390.7,436.3z"/>
<path class="st13" d="M319.3,525.9c0.6,0,0.9,0.3,0.9,0.9C319.7,526.8,319.4,526.5,319.3,525.9z"/>
<path class="st13" d="M536.4,376c0.1,0.3,0.3,0.6,0.4,1c-0.4,0-0.7-0.1-1.1-0.1C535.9,376.6,536.2,376.3,536.4,376L536.4,376z"/>
<path class="st8" d="M304.5,640.2c-1.7,0-3.3,0-4.8-1c-7.9-5.4-17-6.4-26.2-7.5c-14.4-1.8-28,0.8-39.6,9.7c-5.3,4-9.8,9.3-14,14.5
	c-9,11.4-20,19.3-34.4,22.1c-2.5,0.5-5.1,0.7-6.8,3.4c-0.9,1.5,0.8,1.5,0.7,2.3c-4,3.4-8.9,3.9-13.8,4.8c-3.1,0.5-4.2-1.3-3.4-4.2
	c0.7-2.7,2.1-5.2,2.6-8c0.2-1.4,0.8-3.2-0.4-4.2c-1.4-1.2-2.8,0.1-4,0.8c-7.2,4.1-15.1,5.4-23.1,6.6c-1.6,0.2-3.3,0.7-4.5-0.9
	c2.5-5.5,4.6-11.2,9.5-15.2c0.4-1.4,1.5-2.1,2.7-2.7c25.5-13.4,42.1-34.8,54-60.3c6.3-13.5,11.3-27.4,13.4-42.3
	c0.3-1.8,0.6-3.6,1.5-5.2c5.6-10.3,7.6-21.7,10-33c0.1-0.7,0.5-1.2,1-1.7c11.6,9.5,22.8,19.6,36.8,25.8c3,1.3,6.9,1.2,8.6,5
	c2.6,3.9,2,8.5,2.6,12.8c1.6,11.9,2.3,24,4.7,35.8c2.9,14.5,12,25.1,22.6,34.7c2.2,1.9,5.5,3.1,5.1,7
	C305,639.5,304.7,639.8,304.5,640.2L304.5,640.2z"/>
<path class="st8" d="M527.2,637.2c6.4-5.8,8.1-13.2,8.3-21.7c0.4-20.1-4.9-39.3-8.3-58.8c1.7-0.7,3.3-1.3,5-2c3,0.1,3,2.5,3.5,4.5
	c4.2,19.9,11.7,38.7,23,55.4c10.5,15.6,21.8,31.1,38.1,41.5c2.1,1.3,4.5,2.1,6.7,3.2c0.8,0.4,2.1,0.7,1.8,2
	c-0.2,0.6-1.2,1.1-1.9,1.3c-6.9,1.9-13.9,3.1-21,2.1c-12.2-1.7-23.9-4.7-33.7-12.7c-1.2-1-2.6-1.6-4.1-0.6c-1.6,1-1.1,2.5-0.6,4
	c2.4,6.4,5.7,12.2,9,18.1c1.4,2.5,3.4,5,3.2,8.2c-1.7,1.5-3.5,0.7-5.1,0.1c-5.5-2.2-11.5-3.8-14.9-9.5c0-0.2-0.1-0.4,0-0.5
	c7-9.2,2.2-17.2-2.7-25.2C531.4,643.4,529.2,640.3,527.2,637.2L527.2,637.2z"/>
<path class="st5" d="M217.1,697.7c-4.9-2.9-10.5-2.8-15.9-3.4c-1.8-2.1-4.6-2.5-6.9-3.4c-1.8-0.7-3.1-1.8-4.3-3.1
	c-2-2.2-2.8-3.9,1.2-5c10.7-3.1,19.5-9.3,27.2-17.2c2.2-2.3,3.3-2,5.5-0.1c7.8,6.7,7.8,6.6,16.7,1.2c0.4-0.2,0.8-0.5,1.3-0.8
	c4.3-2.7,8.2-2.3,11.8,1.2c0.5,0.5,0.9,0.9,1.4,1.4c5.4,5.3,11.2,5.9,17.3,1.9c1.6,0.9,2.1,2.5,2.8,4c2.7,5.5,5.9,10.6,10.8,14.5
	c2.5,2,3.5,4.2-0.6,5.6C262.7,695.1,239.9,695.4,217.1,697.7L217.1,697.7z"/>
<path class="st9" d="M476.3,686.5c-3.5-4.7-6.5-9.6-8.7-15.2c-1.5-3.8-1.2-6.9,1.1-10c0.2,0,0.4,0,0.5,0.1c3,7,8.4,4.9,13.7,3.8
	c11.9-2.5,20.5-10.1,28.9-18.1c4-3.7,3.4-8.5,3.3-13.2c3-0.5,3.4,2.1,4.4,3.8c4,6.3,8.7,12.2,11.5,19.2c0,3.2-0.7,6.1-2.4,8.8
	c-2.1,3.2-2.7,7.1-3.8,10.7c-0.6,2.1-1.3,4.1-2.7,5.8c-1.5,1.8-3,2.3-3.7-0.7c-0.3-1.5-0.6-3-1.8-4c-2.8-2.2-5.7-6-9.3-4.5
	c-3.8,1.5-4,6.5-5,10.2c-0.5,1.8,1,3,2.3,4.1c1,0.9,1.8,2,1.2,3.5c-0.7,1.7-2.2,1.7-3.8,1.7c-0.8,0-1.7-0.2-2.4-0.4
	c-6-1.8-12-3.4-18.4-3.7C479.4,688.5,477.7,687.7,476.3,686.5L476.3,686.5z"/>
<path class="st8" d="M285.5,694.5c2.4-1.6,2.4-2.9-0.1-4.8c-6.5-4.9-10.3-11.8-12.9-19.4c2.6-3.1,6.1-5,9.7-6.6
	c3.4-1.6,3.5-3.6,1.3-6.1c-1.8-2.1-3.9-4.1-5.9-6c-2.2-2-2.8-3.5,0.4-5.2c2.1-1.2,4-2.8,4.5-5.6c0.4-2.7,2.2-1.6,3.8-1.2
	c6.2,1.2,10.8,5.4,16.1,8.3c0.2,10.2,0,20.3,2.1,30.4c1,5,4.4,8.6,6.8,12.7c0.6,1.1,2.1,1.6,2,3.4H285.5z"/>
<path class="st3" d="M305.3,639.1c-0.7-2.6-3.2-3.7-5-5.2c-15.3-12.4-24.5-27.9-25.8-48c-0.8-12.4-2.7-24.7-4.2-37
	c2.4,0.7,4.8,1.3,7.3,2c0.3,4.3,0.7,8.7,1.1,13c1.2,1.2,1.9,2.6,2.1,4.4c1.3,13.6,2,27.4,8.4,40c0.3,0.6,0.2,1.3-0.3,1.8
	c3.7,7.5,9.8,13.1,15.5,19c0.3,0.5,0.6,0.9,1.1,1.1l0-0.1c0,2.2-0.7,4.4,1.2,6.4C307.8,637.8,307.1,638.8,305.3,639.1z"/>
<path class="st1" d="M515.2,634c3.8,6.2,0.8,10.8-3.5,15.1c-8.8,8.8-18.7,16-31.4,18.2c-0.3,0.1-0.6,0.2-1,0.2
	c-7.4,1.3-8.8,0.6-10.7-6.2c1.6-4.3,5.7-6.8,8.1-10.6c11.5,3.6,25.4-5.1,28.5-17.9c0.5,1.2-0.4,3,0.9,3.6c1.7,0.8,1.9-1.3,2.7-2.1
	C510.9,632.4,513.1,633.1,515.2,634L515.2,634z"/>
<path class="st10" d="M476.3,686.5c8.3,1,16.6,2,24.5,4.7c1.5,0.5,3.6,1.2,4.3-0.7c0.8-2-1.5-2.2-2.7-2.8c-1.5-0.9-2.4-2.1-1.9-3.6
	c1.3-4,2.9-8,4.5-11.9c0.2-0.6,1.3-1,2-1.2c4.5-0.7,12.6,7.2,12.3,11.8c0,0.1,0.2,0.2,0.9,0.9c3.6-9.1,7.2-17.9,10.7-26.7
	c3,4.2,1.8,8.1-0.6,12.2c-2.3,4-2,8.8-4.1,13.1c-5.1,10.6-13,15.2-26.1,13.8c-6.6-0.7-12.4-4.2-19.1-4.6
	C478.6,691.4,477.5,688.7,476.3,686.5L476.3,686.5z"/>
<path class="st10" d="M329.1,647.1c0.8,4.8,5.2,7.1,7.5,10.8c1.8,2.9,2.7,5.4,1.3,8.7c-2.4,5.6-2.2,11.6-2,17.5
	c0.1,3.1,1.6,5.4,4.6,6.4c3.4,1.2,6.8,2.5,10.5,2.3c5.3-0.4,10-0.4,13.7,5c3,4.4,8.5,4,13.5,3c-6.7,6.2-15.3,5.9-19.2-1
	c-1.2-2.1-3-2.3-5.1-2.1c-8,1-15.3-0.6-21.9-5.3c-4.4-5.7-3.5-12.3-3.1-18.8c0.1-1.5,0.4-3,1-4.3c2-4.5,1-7.8-2.9-11.1
	c-5.1-4.4-5-7.4-0.9-10.6C327.2,647.4,328.2,647.2,329.1,647.1L329.1,647.1z"/>
<path class="st2" d="M326.3,647.6c-2.8,4.4-2.4,7.7,2.9,11c4.2,2.6,4.5,5.1,2.7,9.2c-3.5,8.1-2.3,16.4,0.3,24.6
	c-2.6,2.7-5.3,1.4-8,0.3c-4.8-7.3-3.7-15.1-2.1-23c1.7-3,0.3-5.1-1.8-7.4c-5.9-6.7-5.8-12.7-0.2-18.3
	C322.4,644.8,325.4,644.4,326.3,647.6L326.3,647.6z"/>
<path class="st11" d="M527.4,598.4c2.1,11.3,2.8,22.5-4.1,32.7c-4-0.7-6.6-4.9-11.1-4.1c-0.2,0-0.6-1-0.8-1.6c-1-4.3-3.4-8.1-5.2-12
	c0.8,0,1.8,0.3,2.4-0.1c2.9-1.7,4.5-1.1,5.1,2.3c0.2,1,0.1,2.5,1.6,2.8c1.4,0.2,1.8-1.2,2.5-2C522.4,611,525.7,605.1,527.4,598.4
	L527.4,598.4z"/>
<path class="st12" d="M444.2,641.9c0.8,0.2,1.5,0.4,2.3,0.6c0.9,1.7,0.6,3.6,1.2,5.3c-0.2,3.8,2.7,5.7,4.8,8.2c1,2.1,0.2,4-0.7,5.9
	c-8.1,0.9-10.8,7-12.8,13.6c-0.5,1.5-1.7,1-2.7,1c-1,0.2-1.9-0.2-2.8-0.7c-4-2.5-7.6-2.6-10.5,1.6c-0.5,0.7-1.2,1-2.1,1
	c-0.9-0.1-1.9-0.2-2.8-0.4c-1.3-2.3-1.8-5-3-7.3c0-1-0.1-1.9-0.1-2.9c2.1-1.6,4.6,1,6.6-0.7c1.8-0.6,3.7-0.5,5.5-1.1
	c6.8,0,11.3-3.4,13.9-9.6c1.1-3,0.4-6.2,0.6-9.2C441.9,645.1,441.7,642.9,444.2,641.9L444.2,641.9z"/>
<path class="st11" d="M461.7,674.8c2.5,6.8,6.6,12.6,12,18.8c-10,0-19.3,0.6-28.5,1.2c-2.3,0.2-3-2.1-3.4-4.1c0.2-0.4,0.6-0.7,1-1
	c5.7-2.7,9.5-7.5,13.6-11.9c1.1-1.2,1.8-2.8,3.4-3.5C460.5,674.1,461.2,674.2,461.7,674.8L461.7,674.8z"/>
<path class="st5" d="M441.9,658c-2.9,5.8-7,9.9-14.2,8.9c-4-1.3-5.4-4-4.5-8.1c6.9-6,9.8-13.5,8.1-22.6c4.2-0.5,9.1,3,10.5,8.2
	C442.9,648.9,443.2,653.4,441.9,658z"/>
<path class="st11" d="M320.2,644c0,0.3,0,0.7-0.1,1c-4.4,9.3-4.2,11.5,3.6,18.7c2.4,2.2,2,3.6,0.1,5.5c-3.5,1.2-7.1,2-9.2,5.5
	c-0.4,0.7-1.3,0.8-2.1,0.2c-3.3-9.3-3.2-18.5-0.4-27.9C313.6,641.6,316.2,641.4,320.2,644L320.2,644z"/>
<path class="st9" d="M536,672.3c6.1,4.4,12.3,8.3,20,9.4c2.4,1.5,4.7,3.1,7.1,4.6c-0.1,0.4-0.2,0.8-0.3,1.3c-10.2,0-20.4,0-30.5,0
	C533.5,682.5,534.7,677.4,536,672.3L536,672.3z"/>
<path class="st10" d="M442.8,690.7h-0.5h-0.5c-4-2.1-3.4-4.6-0.5-7.2c1.2-1.1,2.4-2.3,3.8-3.1c6-3.7,9.8-9,12.1-15.5
	c0.8-2.3,1.3-5.1,5.6-6.5c-3.3,6-2.3,11.2-1.1,16.4c-0.6,0-1.2,0-1.9,0c-1.4-0.3-2.1,0.6-2.9,1.5
	C452.7,681.6,447.7,686.1,442.8,690.7L442.8,690.7z"/>
<path class="st10" d="M312.4,674.8c3-3.5,5.8-7.3,11.3-5.7c-2.2,7.9-1.6,15.7,0.4,23.5C316.8,688.9,313.6,682.5,312.4,674.8
	L312.4,674.8z"/>
<path class="st13" d="M439.1,675.5c-0.4-3.6,4-12.1,7.1-13.9c2-1.2,3.8,0.8,5.7,0.3C450.2,668.4,443.9,675.1,439.1,675.5
	L439.1,675.5z"/>
<path class="st6" d="M411.3,695.6c-0.7,0.1-1.3,0.2-1.9,0.2c-3.9,0-7.8,0-12-0.4c5.5-3.3,9.8-7.9,14-12.6
	C413,687,414,691.3,411.3,695.6L411.3,695.6z"/>
<path class="st2" d="M421,678.4c4.2-7.6,9.2-8.2,15.4-1.9c-0.2,1.6-3.3,1.7-1.7,4.6c0.8,1.4-1.9,2.4-3.8,2.4
	c-0.3-0.4-0.5-0.8-0.7-1.3c-0.5-1.5,0.7-4.3-2-4.2c-2.5,0.1-0.6,2.7-1.4,4c-0.2,0.4-0.5,0.8-1,0.9
	C423.3,682.4,423.2,679.2,421,678.4L421,678.4z"/>
<path class="st2" d="M441.9,658c1-7.1,0.7-13.7-5.2-18.9c-1.6-1.4-3.1-2.9-5.5-2.8c0-1,0-2,0-3c5.7,0.9,9.3,4.8,13,8.7
	c-2,2.5-0.8,5.4-1.1,8.1C442.8,652.7,444,655.6,441.9,658L441.9,658z"/>
<path class="st3" d="M411.3,695.6c0-4.3,0-8.6,0-12.9c1.5,2.2,4.2,1.4,6,2.8c2,3.1,1.8,6.3,0.6,9.6
	C415.7,695.3,413.5,695.4,411.3,695.6L411.3,695.6z"/>
<path class="st9" d="M439.1,698.5c-2.8-0.3-4.9-0.6-7-0.8c-1.6-0.1-3-0.4-3.3-2.2c-0.3-1.7,0-3.3,1.4-4.4c1.6-1.3,2.7,0.4,3.9,1.1
	C436.4,693.4,437.5,695.7,439.1,698.5L439.1,698.5z"/>
<path class="st2" d="M423.2,658.8c0.5,3.2,2.1,5.9,4.5,8.1c-1.8,2.1-4.3,1.1-6.5,1.4c-2.1-1-3.7-2.6-5.1-4.3
	C418.5,662.2,420.9,660.5,423.2,658.8L423.2,658.8z"/>
<path class="st9" d="M417.9,695.1c-0.2-3.2-0.4-6.4-0.6-9.6c1.7,0.4,2.7,1.7,4,2.7c1.8,1.3,2.7,2.7,1.7,4.9
	C421.9,695.5,420.3,696.3,417.9,695.1L417.9,695.1z"/>
<path class="st5" d="M453,645.9c3.8,2,4.1,5.5,0.9,8.8c-3.4,0-5.1-2.1-5.2-5.1C448.6,647.1,450.1,645.4,453,645.9L453,645.9z"/>
<path class="st5" d="M425.8,682.9c0.1-0.8,0.3-1.7,0.2-2.4c-0.2-1.4-1.9-2.7-0.4-4c1.6-1.4,3.5,0,5.2,0.4c2.4,0.6,0.4,2.5,0.5,3.7
	c0.1,1-0.2,1.9-0.4,2.9C429.2,683.7,427.4,684.5,425.8,682.9L425.8,682.9z"/>
<path class="st3" d="M453,645.9c-5,3.3-4.9,4.3,0.9,8.8c-0.5,0.4-1,0.9-1.4,1.3c-4.4-0.9-6.7-3.3-5.5-8.1c0.4-2.4,1-4.5,4.2-4
	C452.3,644.1,453,644.8,453,645.9L453,645.9z"/>
<path class="st13" d="M415.2,670.7c2.8,1.7,3.4,4.3,3,7.3C412.4,677.8,411.9,676.5,415.2,670.7z"/>
<path class="st7" d="M416.2,663.9c3,0,4,2.2,5.1,4.3c-2.3,3.3-4-1.4-6.2-0.4C414.1,666.1,414.9,664.9,416.2,663.9L416.2,663.9z"/>
<path class="st2" d="M451.2,644c-2,0.7-2.7,2.8-4.2,4c-1.5-1.7-1-3.5-0.5-5.4c1.2-0.4,2.5-0.9,3.7-1.3
	C451.3,641.9,451,643,451.2,644z"/>
<path class="st5" d="M225,518.1c-0.4,8.6-1.9,17.3-5.5,24.9c-4.5,9.6-6.2,19.7-9,29.7c-5.5,19.7-13.5,38.2-25.9,54.6
	c-8.8,11.6-18.8,22-31,30.1c-3.5,2.3-7.5,4-11.3,6c-10.8,2.3-21.4,5.2-32.6,4.5c-4.9-0.3-9.6-1.4-14.9-3.4c4.4-3,8.9-3.8,12.5-6.4
	c10.6-7.3,19-16.5,26.4-27.1c14.1-20.1,23.8-42.2,31.8-65.3c3.1-9,6.8-18.2,6.8-27.4c0-9.2,5-9.8,11.2-11.3
	c9.2-2.1,17.8-5.8,25.7-11.1C219.5,509,216.8,509,225,518.1L225,518.1z"/>
<path class="st11" d="M264.6,645.9c3.7,3.7,7.2,7.6,11,11.2c2.2,2.1,2.5,3.7-0.4,5.2c-0.3,0.2-0.5,0.3-0.8,0.5
	c-3.3,2.3-6.8,6.6-10,6.4c-3.2-0.2-6.1-4.9-9.4-7.4c-3.2-2.5-5.9-5.8-10.1-6.8c-4-0.9-7-3.3-9.8-6.2c4-7.2,15.4-11.8,22.6-9.1
	C261.3,640.4,263,643,264.6,645.9L264.6,645.9z"/>
<path class="st9" d="M132.9,678.6c10.4-1,20.6-2.8,29.7-8.2c3.5-2.1,4.5-1.3,4.3,2.7c-0.2,4.1-1.9,7.7-3.4,11.3
	c-1.3,3.2-0.2,3.9,2.8,3.1c4.4-1.2,8.8-2.5,13.2-3.7c1,1.7,3.6,3.3,2.8,4.9c-1,2-3.9,0.8-5.9,0.8c-17.1,0.1-34.2,0-51.8,0
	C127.1,685.8,129.5,681.9,132.9,678.6L132.9,678.6z"/>
<path class="st11" d="M243.3,658c-2.4,2.9-5.9,4.1-8.8,6.4c-2.8,2.2-4.1-0.6-5.8-1.8c-4.9-3.6-4.8-3.7,0.1-7.5
	c1.4-1.1,2.8-2.3,4.2-3.5C237.5,652,241.3,653.6,243.3,658z"/>
<path class="st10" d="M259.8,637.1c5.1-2.5,9.9-2.3,14.2,1.9c0.9,0.8,2.8,1,2.5,2.6c-0.2,1.1-1.8,1.2-2.9,1.5
	c-0.9,0.3-1.8,0.6-2.8,1C265.4,644.4,262.2,641.4,259.8,637.1L259.8,637.1z"/>
<path class="st8" d="M259.8,637.1c3.7,2.2,6.6,5.8,11,7c-1.7,2-4.5,0.1-6.2,1.8c-2.3-2.1-4.6-4.1-6.8-6.2
	C257.7,638.3,257.9,637,259.8,637.1L259.8,637.1z"/>
<path class="st8" d="M243.3,658c-3-2.8-6.8-4.4-10.3-6.4c0.7-0.9,1.5-1.9,2.2-2.8c3.4,1.9,6.9,3.5,9.8,6.2
	C244.8,656.2,244.4,657.3,243.3,658z"/>
<path class="st13" d="M118.9,604.2c-11.5,10.8-23.1,21.6-34.6,32.5c-1.6,1.5-2.4,1.2-4.1,0.1c-7-4.5-13-10-18.6-16.1
	c-5.1-5.5-11.1-10.2-16.7-15.3c-2.2-1.9-3.6-3.9-0.5-6.2c3-5.1,8.3-7.8,12.3-11.9c6.8-6.8,14.1-13.2,21.9-19
	c2.1-1.5,4.2-2.8,6.6-0.7l-0.1-0.1c0.4,0.3,0.8,0.7,1.1,1l0,0c0.4,0.3,0.7,0.7,1,1.1l-0.1-0.1c0.4,0.3,0.8,0.7,1.1,1.1l-0.1-0.1
	c0.4,0.3,0.8,0.7,1.1,1.1l-0.1,0c4,2.2,6.6,5.9,9.4,9.2c6.6,7.7,15.4,13.4,20.4,22.6l-0.1-0.1c0.3,0.2,0.4,0.3,0.3,0.5
	C119.2,604.1,119.1,604.2,118.9,604.2L118.9,604.2z"/>
<path class="st5" d="M82.8,533c1.6,0.8,2.2,0.9,2.4,1.2c2.6,4,5.6,7.7,7.3,12.2c0.5,1.3-0.2,2.2-1,3c-1.3,1.2-2.6,2.5-4,3.7
	c-4,3.4-7.4,2.8-10.2-1.8c-0.2-0.3-0.3-0.6-0.5-0.8c-1.4-1.8-4.3-4.2-3.9-5.2c1-2.6,3.7-4.5,5.6-6.7C80,536.7,81.5,534.7,82.8,533
	L82.8,533z"/>
<path class="st0" d="M85.3,567.7c-2.2-1.3-4-0.7-5.8,0.8c-7.5,6.6-15.1,13.1-22.6,19.7c-4.2,3.6-8.2,7.4-12.4,11.1
	c-0.9-3.6,2.4-5.8,4.1-6.8c6.4-3.8,10.1-10.2,15.9-14.5c4.9-3.6,9.5-7.6,14.5-11C80.8,565.8,83.7,563.4,85.3,567.7L85.3,567.7z"/>
<path class="st0" d="M118.9,603.5c-9.6-10.9-20.6-20.5-29.8-31.8c1.6-0.3,2.9,0.2,4,1.3c8.1,8.5,16.2,16.9,24.2,25.4
	C118.6,599.8,119.2,601.5,118.9,603.5z"/>
<path class="st0" d="M118.9,604.2c-0.1-0.3-0.1-0.6-0.1-0.8c0.6,0.2,1.2,0.4,0.8,1.3C119.4,604.5,119.2,604.4,118.9,604.2
	L118.9,604.2z"/>
<path class="st0" d="M89.3,571.7c-0.4-0.4-0.7-0.7-1.1-1.1C88.5,571,88.9,571.4,89.3,571.7z"/>
<path class="st0" d="M88.3,570.7c-0.4-0.4-0.7-0.7-1.1-1.1C87.6,570,87.9,570.4,88.3,570.7z"/>
<path class="st0" d="M87.3,569.7c-0.4-0.4-0.7-0.7-1-1.1C86.6,569,86.9,569.3,87.3,569.7z"/>
<path class="st0" d="M86.3,568.7c-0.4-0.3-0.7-0.7-1.1-1C85.6,568,85.9,568.3,86.3,568.7z"/>
<path class="st15" d="M492,284.1c-0.2,1.3-0.5,2.5-0.7,3.8c-5.2,3.4-9.5,8-15,10.9c-7.2,3.8-14.2,8.3-22.6,9.2
	c-0.2-0.1-0.5-0.2-0.7-0.3c-2-5.2-4.1-10.4-6.1-15.6c-0.4-0.9-0.7-2-2-1.7c-1.2,0.4-1,1.7-0.8,2.5c1.1,4.1,2,8.4,3.7,12.2
	c1.7,3.8,0.5,4.8-3,5.7c-9.2,2.4-18.6,1.8-27.9,1.9c-3,0-5.9,0.2-8.8,0.3c-1.2-0.5-2.4-0.9-3.6-1.4c0.1-2.3-1.2-4.1-2.1-6
	c-7.4-14.9-14.9-29.7-18.2-46.2c-0.6-3-0.7-6.2-2-9.1c-1.6-3.7,0.2-5,3.9-5.1c7.4-0.2,14.7,0.3,22.2-0.7
	c16.7-2.5,33.4-4.8,48.9-12.2c6-2.9,7-2.3,10.8,3.3c4.9,7.4,9.5,15.1,13.1,23.2C484.7,267.2,488.4,275.6,492,284.1L492,284.1z"/>
<path class="st15" d="M352.6,290.6c-0.6-1.8-1.3-3.3-3.7-2.4c-13.3-10.6-24.1-23.3-31.2-38.8c-3-6.6-5.4-13.4-5.7-20.8
	c-0.1-4.4,1.4-4.1,4.5-2.5c8.7,4.6,17.3,9.3,26.7,12.7c10.6,3.9,21.4,6.2,32.5,7.2c0.4-0.2,0.6-0.1,0.8,0.3
	c0.7,14.9,5.7,28.6,11.2,42.3c2.9,7.1,5.7,14.3,10.9,21.4c-10.4-1.4-18.8-5.1-27.2-8.7C364.9,298.3,358.8,294.5,352.6,290.6
	L352.6,290.6z"/>
<path class="st4" d="M300.2,426.8c-5.5-9.1-9.6-18.9-13.6-28.8c-2.1-5.3-4.1-10.6-6.1-16c-1.2-7.9-3.8-15.6-3-23.8
	c2.4-0.3,2-2.1,2.1-3.8c0-2.3-0.2-4.6,0.2-6.9c0.3-2.5,1.9-4,4.4-4.6c2.9-0.8,3.8,1.4,5,3c1.4,1.8,1.2,4,1.3,6.1
	c0.2,5.7,1.8,6.5,6.4,3.5c6.4-4,12.7-4.9,19.2-0.1c2.5,1.8,5.3,2.5,8.7,2.2c7.9-0.6,12.9,7.1,10.2,15.2c-1.2,1.6-3,1.9-4.8,2.3
	c-7.5,1.7-14.8,4.3-20.4,4.8c3.6-0.1,9.4-0.5,15-2.1c1.4-0.4,2.8-1,4.2,0.1c-2.9,4.4-5.4,9.2-8.8,13.2c-6.4,7.5-9.6,16.6-13.7,25.3
	C304.8,420.3,304.1,424.5,300.2,426.8L300.2,426.8z"/>
<path class="st15" d="M510,240.9c-0.8,13.4-5,24.7-11.2,35.4c-0.5,0.9-1,1.8-2.2,1.5c-1.3-0.4-1.5-1.7-1.9-2.7
	c-3.9-10.7-9.2-20.8-15.7-30.2c-3.3-4.8-7.1-9-11.2-13c-2.5-2.4-3.5-3.5,0.7-5.5c8.5-3.9,15.3-10.1,21.7-16.9
	c4-4.2,6.3-4.1,10.1,0.4c6,7.3,8.4,15.9,9.1,25.1C509.6,237.3,509.4,239.6,510,240.9L510,240.9z"/>
<path class="st8" d="M313.4,214.6c3.7-7.3,7.9-14.4,13.3-20.5c9.2-10.4,18.9-20.2,31-27.5c9.9-5.9,20.2-7.6,31.2-3.7
	c5.4,1.9,11,3.6,16.4,5.6c1.9,0.7,4.8,1.7,3.6,4.3c-0.9,2.1-3.2,0.4-4.8-0.3c-10.7-4.7-21.5-4.1-32.3-0.9
	c-20.4,6.1-36.9,17.8-49.7,34.9c-2.3,3.1-5.1,5.9-7.6,8.8C314.1,215.1,313.7,214.9,313.4,214.6L313.4,214.6z"/>
<path class="st7" d="M376.6,246.2c-0.3-0.1-0.5-0.1-0.8-0.3c-0.1-8.2-0.2-16.4-0.2-24.6c0-3.3,1.2-6.3,4.2-8.9
	c1.1,2.8-0.3,5.1-0.4,7.4c-0.1,7.4,0.4,14.8,1.1,22.1C381,245,380,246.7,376.6,246.2L376.6,246.2z"/>
<path class="st7" d="M387.4,195.5c1.7-9,12.8-18,21-17.7c0.9,0,2.1-0.3,2.5,1c0.2,0.9-0.5,1.6-1.3,1.9
	C401.1,183.7,393.9,189,387.4,195.5L387.4,195.5z"/>
<path class="st8" d="M329.1,378.2c-8.5,3-17.3,3.2-26.3,2.4c10.8-2.5,21.5-5,32.3-7.5C334.8,376.7,331.4,376.9,329.1,378.2z"/>
<path class="st8" d="M576.8,396c-7.3-0.7-14.6-1.5-21.4-4.8c-1.2-0.6-2.7-1.4-2.2-2.9c0.7-2,2.2-0.4,3.3-0.1
	c6.9,2.1,13.7,4.3,20.5,6.5C576.9,395,576.8,395.5,576.8,396L576.8,396z"/>
<path class="st2" d="M389.2,394.9c-1.1,0-2.2,0-3.2,0c-0.4-7.7-0.8-15.5,0.6-23.1c0.5,0,1-0.1,1.5-0.1
	C388.5,379.4,388.8,387.2,389.2,394.9L389.2,394.9z"/>
<path class="st2" d="M285.6,279.5c-0.9,0.2-1.8,0.3-2.7,0.5c2-4.6,3.6-9.4,8-12.5C289.6,271.6,289.6,276.3,285.6,279.5L285.6,279.5z
	"/>
<path class="st2" d="M486.7,187.3c0-1,0-2,0.9-2.7c3.8,3.1,8.8,4.9,11.3,9.7C494.9,192,490.8,189.6,486.7,187.3L486.7,187.3z"/>
<path class="st2" d="M545.7,229.3c-1.2,0.1-2.4,0.2-3.6,0.3c-3.2-2.5-5.5-5.8-7.4-9.5C538.9,222.6,542.6,225.5,545.7,229.3
	L545.7,229.3z"/>
<path class="st2" d="M396.5,344.9c0-1.1-0.1-2.2-1.5-2.5c2.7-3.1,5.4-6.3,8-9.4c0.5,0.5,1,0.9,1.4,1.4
	C402.9,338.7,399.5,341.7,396.5,344.9L396.5,344.9z"/>
<path class="st3" d="M208.2,232.5c0.2-2.8,0.2-5.8,4.1-6C211.6,229,210,230.8,208.2,232.5z"/>
<path class="st0" d="M465.8,140c-0.5,0.4-1,0.7-1.5,1.1C464.8,140.6,464.8,139.6,465.8,140z"/>
<path class="st7" d="M211.2,167.7c-0.3-0.9-0.7-1.8-1-2.7c3.4-5.8,6.7-11.6,7.8-18.2c0.7-4.1,2.5-4.2,5.3-3.4c4,1.2,8,1.8,12.2,2
	c4,0.2,4.9-1.6,4.2-5.1c-0.5-2.9-0.7-5.9-1.1-8.8c-1-8.1,5.3-16.8,13.2-18.1c3.3-0.6,1.9,1.9,1.8,3.2c-0.7,9.6,0.4,18.8,5,27.4
	c1.8,3.4,3.5,6.8,6.6,9.2c3.1,2.4,2,3.8-0.7,5.3c-1,0.6-1.9,1.3-2.9,1.9c-8.4,5.5-8.9,5.5-15.3-2.5c-3.5-4.2-4.5-4.1-6.5,1.1
	c-0.9,2.3-1.4,4.8-2.1,7.1c-0.6,1.9-1,4-3.7,3.9c-0.6-0.1-1.2-0.1-1.8-0.2c-5.1-1.4-10.3-0.8-15.4-1
	C214.9,168.8,212.8,169.3,211.2,167.7L211.2,167.7z"/>
<path class="st7" d="M365.7,100.6c1.2,3.9-1.1,4.8-4.9,4.9c-8.4,0.4-16.5,2.6-24.7,4.6c-3.7,0.9-5.3,0-6.2-3.8
	c-2.1-8.9-2.3-9,6.7-10.8c6.3-1.3,12.6-2.4,18.9-3.6C364.5,90.4,365.4,91.2,365.7,100.6L365.7,100.6z"/>
<path class="st7" d="M258.8,117.5c0.2-4.2-0.7-7.9,2.8-10.3c1-0.7,2.1-1.2,3.2-0.5c1,0.6,0.7,1.7,0.5,2.7c-2,12.9,0.3,24.8,8.9,35.1
	c1.2,1.4,3.9,2.9,1.6,5.4c-2.5,2.6-4.7,0.9-6.8-1c-5.2-4.8-7.9-10.9-9.1-17.7C259.2,126.3,259.1,121.4,258.8,117.5L258.8,117.5z"/>
<path class="st3" d="M211.2,167.7c5,0.1,10.1,0.1,15.1,0.3c2,0.1,4.3-0.1,5.8,1.8c-5.6,0-11.2,0.1-16.8,0
	C213.7,169.8,211.5,170.6,211.2,167.7L211.2,167.7z"/>
<path class="st10" d="M594.8,287.8c-0.9,3.2-3,5.2-6.1,5.1c-3-0.1-4.9-2.5-5-5.2c-0.1-3.2,2.1-5.2,5.4-5.2
	C592.5,282.4,593.4,285.4,594.8,287.8L594.8,287.8z"/>
<path class="st3" d="M608.5,245.6c-0.8,2.7-1.6,5.8-5.5,5.5c-3.3-0.2-5.2-2.7-4.8-5.7c0.3-2.8,2.3-5.4,5.6-5.2
	C606.7,240.4,608.6,242.2,608.5,245.6L608.5,245.6z"/>
<path class="st13" d="M141.3,228.7c4.8-1.3,6.9-5.9,10.3-8.9c8.2-7.2,20.5-6.5,27.3,2.1c2.9,3.7,1.7,8.4-2.4,9.5
	c-3.9-3.6-7.7-6.9-13.8-6.3c-6,0.6-10.8,3.3-12.9,9c-2,5.4-3.5,11-3.2,16.8c0.1,2,0.2,4-0.1,5.9c-0.3,1.5-1.1,3.5-2.8,3.7
	c-1.5,0.2-1.8-1.7-2.2-2.8C137.2,248.1,137.8,238.4,141.3,228.7L141.3,228.7z"/>
<path class="st13" d="M68.4,136.9c5.7,7.8,11.4,15.6,17,23.5c10.5,14.9,21,29.9,31.5,44.7c1.1,1.6,2.1,3.3,2.7,5.2
	c-1.8,1.3-3.6,2.6-5.6,4c-2.7-9-6.6-10.3-14.7-5.4c-5.8,3.5-10.4,8.1-14,13.6c-1.1,1.7-1.8,2.2-3.3,1c-2.7-2.2-5.2-1.1-7.8,0.3
	c-6.7,3.7-12.7,8.4-17.3,14.5c-3.5,4.6-8.5,7.2-13.4,9.8c-3.4,1.8-4.6,0.7-4.5-3.2c0.3-9.8,3.6-17.9,12-23.6
	c3.4-2.3,4.5-6.4,5.4-10.3c0.5-2.1,0.8-4.2,1.1-6.3c1.1-9,0.5-9.7-8.6-9.8c3.6-4.6,6.9-8.9,10.3-13.2c6.5-8.3,8.4-18.1,9.4-28.2
	c0.3-2.9-1.2-3.9-3.8-3.8c-3.6,0.1-3.4-1.7-2-3.9C64.7,142.7,66.6,139.8,68.4,136.9L68.4,136.9z"/>
<path class="st6" d="M171.5,316.7c1.6,3.1,1.9,6-1.8,7.9C169.4,321.7,170.7,319.2,171.5,316.7z"/>
<path class="st3" d="M508,132.4c2.2,0.5,3.5,1.9,3.4,4.2c0,1.8-1.4,2.6-3.1,2.4c-2.7-0.4-2.5-3.1-3.3-4.9
	C504.7,133.4,506.8,132.7,508,132.4L508,132.4z"/>
<path class="st12" d="M418.6,503.4c9.4-0.8,18.3,2.3,27.4,1.4c11.8-1.2,22.1-6.4,32.8-10.6c7.5-2.9,15.1-5.2,22.8-0.6
	c10.8,6.4,12.6,24.3,3.2,32.8c-6.1,5.5-13.3,7.4-21.4,7.3c-11.1-0.2-21.9-2.1-32.6-5.1c-9-2.5-18-0.3-26.8,1.9
	c-6.1,1.5-12,3.5-18.4,1.7c-7.8-2.2-11.7-9.9-8.6-17.5c3.1-7.6,10.1-12,18.4-11.4C416.7,503.3,417.8,503.3,418.6,503.4L418.6,503.4z
	"/>
<path class="st4" d="M346,501.1c-6.1-5.3-7.4-12.2-6.1-19.8c2.9-1.3,3.7,1,4.7,2.8c0.7,1.9,0.7,3.9,1.4,5.7c1.4,4,4.5,6.1,8.2,5.5
	c4.2-0.6,6-2.8,6.3-7.4c0.2-2.9-0.6-5.9,1-8.7c1.5-1.1,3-2.2,4.5-3.4c1.8,4.4,3.4,8.9,2.4,13.8C366.5,498.9,358.1,506.5,346,501.1
	L346,501.1z"/>
<path class="st13" d="M536.1,477.1c7,1.4,14,2.8,21,4.2c3.8,2.4,8.7,1.8,12.4,4.7c-1.7,2.3-4,1.5-6,1c-8.3-2-16.6-4.1-24.9-6.3
	C537,480.2,534,480.3,536.1,477.1L536.1,477.1z"/>
<path class="st14" d="M319.5,525.1c-0.1-1-0.2-2.1-0.4-3.1c1,0.1,1.8,0.4,1.8,1.6C321,524.5,320.3,524.8,319.5,525.1L319.5,525.1z"
	/>
<path class="st14" d="M526.3,426.1c0.3,0,0.7,0,1,0C526.9,426.1,526.6,426.1,526.3,426.1z"/>
<path class="st8" d="M280.1,445c1.7,0,2.6,1.1,3.1,2.3c2.9,6.6,5.6,13.3,9.3,19.6c1.3,2.3,0.8,3.5-2.2,2.6
	c-8.4-2.4-14.8-7.5-19.9-14.4c-0.6-0.8-1.3-2.1-0.6-2.7C273.2,449.8,276.8,447.4,280.1,445L280.1,445z"/>
<path class="st10" d="M346.7,665.8c3.9,1.4,7.9,1.1,11.8,1c3.7-0.1,4.9,1.8,4.1,5c-1,4.2-2.3,8.2-3.6,12.3c-0.9,2.7-3.3,3.9-5.9,3.3
	c-3.5-0.8-6.9-0.8-10.3-0.7c-3.2,0.1-4.4-1.3-3.7-4.1c1-4.2,0.9-8.5,1.1-12.8C340.3,665.2,344.2,666.6,346.7,665.8L346.7,665.8z"/>
<path class="st8" d="M500.2,354.3c-2.7-0.7-2.9-3-3.8-4.6c-0.7-1.2-2.4-2.8-1-3.8c2-1.3,2.6,1.3,3.4,2.5
	C499.8,350,500.7,351.8,500.2,354.3L500.2,354.3z"/>
<path class="st1" d="M394.5,658.9c-0.3-0.4-0.6-0.8-0.8-1.2C394.3,657.8,394.6,658.3,394.5,658.9z"/>
<path class="st5" d="M288.9,610c-7.6-11.9-7.7-25.6-9.5-38.8c-0.3-2.4-0.5-4.9-0.7-7.3c6.3,4,11.8,9.2,18.7,12.5
	c10.6,5.1,20.6,11.6,32.9,12.3c2.7,0.2,5.5,1.4,6.6,4.4c1.2,7.3,5.3,13.2,9.3,19.1c-1.1,2-3,1.6-4.8,1.6c-8.9,0.3-17.1-2.7-25.3-5.4
	l0,0c-0.5-0.7-1.4-0.6-2-1l0.1,0c-0.5-0.7-1.4-0.6-2-1l0,0c-0.4-0.6-1.1-0.6-1.7-0.6c-3.7,1.5-1,3.9-0.8,5.8c0.3,2.7,3.1,6.1,1,7.8
	c-2,1.6-5.5-0.7-8.2-1.6C297.4,616.2,294.2,611.3,288.9,610L288.9,610z"/>
<path class="st7" d="M316.1,608.4c4.1-0.3,7.5,2.2,11.4,2.8c6.2,0.9,12.4,3.6,18.8,1c1.3,1.9,0.1,2.2-1.5,2.3
	C334.8,614.7,325.1,613.4,316.1,608.4L316.1,608.4z"/>
<path class="st7" d="M314.1,607.4c0.9,0,1.7,0.1,2,1C315.3,608.4,314.6,608.2,314.1,607.4z"/>
<path class="st7" d="M312.2,606.4c0.9,0,1.7,0.1,2,1C313.3,607.4,312.6,607.1,312.2,606.4z"/>
<path class="st7" d="M310.5,605.8c0.9-0.6,1.4-0.3,1.7,0.6C311.6,606.2,311.1,606,310.5,605.8z"/>
<path class="st0" d="M305.5,630.1c-0.4-0.4-0.7-0.7-1.1-1.1C304.7,629.4,305.1,629.7,305.5,630.1z"/>
<path class="st1" d="M333.3,577.6c0.2,0.3,0.5,0.5,0.7,0.8C333.5,578.4,333.1,578.2,333.3,577.6z"/>
<path class="st11" d="M361.5,479.3c0.2,2.5,0.4,4.9,0.5,7.4c0.1,6.8-2.9,10.3-8.9,10.5c-4.8,0.1-8.4-3.9-8.9-9.9
	c-0.1-1-0.2-1.9-0.3-2.9c-0.9-2.6-1.8-5.2-0.9-8c0.8-2.1,2.7-2.5,4.5-3.1c3.1-1.1,3.9-3.1,2.2-6.1c-0.7-2.5-1.8-5.1,0-7.6
	c5.1-9.6,22.4-12,27.8-1.9c0.8,2.2,2.2,4.5-0.2,6.6c-2.7,0.7-5.3,1.6-8,2C360.7,467.7,358.9,470.7,361.5,479.3L361.5,479.3z"/>
<path class="st5" d="M329,450.6c0.3-0.1,0.6-0.2,0.8-0.3c0.9,0.4,2.1,0.6,2,1.8c-0.5,5.4,2.2,7.8,7.2,8.6c0.7,0.1,1.2,1.1,1.7,1.6
	c1,3.1-0.2,5.8-1.9,8.3c-1.5,0.6-2.9,0.1-4.2-0.8C329.8,466.9,326.7,456.2,329,450.6L329,450.6z"/>
<path class="st5" d="M343.5,443.5c1.6-2.8,4.8-2.1,7.2-3.2c1.2,1.6,2.4,3.1,3.5,4.7c0.9,1.3,4,1.1,3,3.1c-1,2.1-3.6,3.4-5.9,4
	c-2.1,0.6-2.4-1.8-3.2-3C346.9,447.1,345.5,445.1,343.5,443.5L343.5,443.5z"/>
<path class="st11" d="M339.6,456.7c-2.8,0-4.8-0.9-4.5-4.3c0.3-3.1,1.3-5.6,4.9-5.5c3.1,0.1,5.7,1.7,5.5,5
	C345.2,455.1,342.8,456.8,339.6,456.7L339.6,456.7z"/>
<path class="st9" d="M385.6,453.7c1.9,2.1,3.3,4.7,6.1,5.9c-1.8,5.2-6.4,3.6-10,4.3c-1.3-1.4-1.1-2.9,0-4.4c-0.1-0.8,0-1.7-0.2-2.4
	c-0.5-1.6-2.9-3.3-1.4-4.7C381.8,450.5,383.7,453,385.6,453.7L385.6,453.7z"/>
<path class="st9" d="M339,470.4c-0.4-2.9,1.2-5.3,1.8-7.9c1.9-1.4,2.5-5.4,6.2-3c1.7,2.3,1.3,5,1.2,7.5c-0.5,3.4-2.6,5-5.8,5.4
	C340.8,472.4,339.5,472,339,470.4z"/>
<path class="st11" d="M384.1,448.6c-2.9-0.4-5.5-1.3-5.6-5.2c0-3.3,2.3-3.7,4.7-3.6c3.5,0.1,5.3,2.8,5.7,5.7
	C389.3,448.4,386.5,448.3,384.1,448.6L384.1,448.6z"/>
<path class="st5" d="M347.2,467.2c-0.5-2.6-0.7-5.2-0.2-7.8c0.9,0,1.8,0,2.8,0c0.4,2.8,0.8,5.5,1.1,8.2
	C349.5,468.6,348.3,468.5,347.2,467.2L347.2,467.2z"/>
<path class="st5" d="M381.6,459.5c0,1.5,0,2.9,0,4.4c-1.3,1.1-2.8,0.7-4.2,0.4c0.1-2.2,0.1-4.4,0.2-6.6
	C378.8,458.5,379.7,460,381.6,459.5L381.6,459.5z"/>
<path class="st2" d="M339,470.4c1,0.5,2,1,2.9,1.5c2,0.4,3,1.5,2.5,3.7c-0.2,2.9-0.3,5.8-0.5,8.8c-1.1-1.3-1.7-3.3-4-3
	c0.6-3.4-0.5-5.4-4.3-5c-1.7,0.2-3.2-0.2-4.5-1.2c-4.5-5.4-8.4-11.1-8-18.6c1.2-2.7,2-5.9,5.9-6c-0.5,5.6,0.7,10.8,3.8,15.5
	C334.3,468.3,335.9,470.5,339,470.4L339,470.4z"/>
<path class="st2" d="M488.9,657.3c-3,3.7-7.2,4-11.3,4.4c-2.1,0.2-3.5-1.8-3.2-3.6c0.3-2,2.5-1.2,3.7-0.8
	C481.6,658.3,485.1,658.1,488.9,657.3L488.9,657.3z"/>
<path class="st9" d="M509.5,678.1c1.8,0.6,2.8,1.7,2.9,3.6c0,1.7-0.7,3-2.6,2.9c-1.6-0.1-3-1.2-3-2.8
	C506.8,680.1,507.6,678.6,509.5,678.1L509.5,678.1z"/>
<path class="st5" d="M442.8,690.7c0.2-3,2.9-4.2,4.6-6c3.1-3.5,6.8-6.5,9.6-10.3c1-1.3,2.4-3,2.9,0.4
	C455.2,681.2,450.4,687.5,442.8,690.7L442.8,690.7z"/>
<path class="st8" d="M430.5,664c-2.4-0.3-4.2-1.4-4.2-3.6c-0.1-2.2,1.6-3.7,3.8-3.6c2.2,0.1,4.6,1.4,4.7,3.4
	C435,662.6,432.3,663.2,430.5,664L430.5,664z"/>
<path class="st12" d="M105.8,602c0.1,1.2-0.8,1.9-1.4,2.6c-6.2,6.6-13.5,12-20.3,18c-1.4,1.2-2.8,1.6-4.8,0.2
	c-7.3-5.4-13.7-11.8-20.1-18.2c-2.2-2.2-1.4-4,0.2-5.5c7.1-6.6,14.3-13.1,21.5-19.6c1-1,2-0.9,3,0.1c7.1,7.1,14.1,14.2,21.2,21.3
	C105.4,601.2,105.6,601.7,105.8,602L105.8,602z"/>
<path class="st3" d="M227,160.7c-1.4-0.7-4.5,1.1-4.7-1.5c-0.2-2.8,1.3-5.6,2.1-8.4c0.1-0.2,1.2-0.3,1.8-0.2
	c1.1,0.2,2.3,0.3,3.3,0.7c2.3,0.9,6.2-1.9,6.8,1.8C236.9,156.1,230.5,160.8,227,160.7L227,160.7z"/>
<path class="st10" d="M93.3,193.7c2.1-4.8-0.9-6.6-4.7-7.7c-1.4-0.4-2.9-0.4-4.4-0.4c-1.2,0-2.9-0.8-3.6,0.6
	c-0.9,1.5,0.9,2.2,1.6,3.2c3,4.3,6.1,8.6,9.1,12.9c2,2.8,0.6,5.6-0.7,7.9c-1.2,2.2-2.4,0.2-3.3-0.8c-2.9-2.9-4.1-7-6.5-10.2
	c-1.7-2.2-3.1-4.6-5.5-6.1c-0.4-0.2-0.7-0.5-1.1-0.8c-0.3-0.3-0.6-0.6-0.9-1c-0.3-0.4-0.5-0.7-0.6-1.1c-0.2-1.2-0.3-2.5-1.3-3.5
	c-0.6-1.3-1.3-2.7-1.9-4c-1-2.2-0.8-4.3,0.9-5.9c1.8-1.6,3,0.6,4.3,1.3c4,2,8.1,4,12.6,3.3c4-0.6,7.5-0.7,9.9,3.2
	c2.2,3.6,0.9,6.9-1,10.1C94.7,195.6,93.9,195,93.3,193.7L93.3,193.7z"/>
<path class="st10" d="M83.9,209.2c-2,2.2-4.7,1.2-7,1c-5-0.3-8.2,1.6-9.5,6.5c-0.1,0.5-0.3,0.9-0.5,1.4c-1.1,2.3-2,5.8-5.2,4.6
	c-2.4-0.9-1-4-0.6-6.2c0.8-4.2,1.7-8.4,2.5-12.5c0.2-1.1,0.2-2.5,1.4-2.9c1.4-0.4,1.9,0.9,2.5,1.8c1.3,2.2,3.2,2.4,5,1
	c2-1.6,0-2.9-0.8-4.2c-1-1.5-2.3-2.8-3.2-4.4c-1.8-3.1-1.5-5.4,2.8-5.5c0.9-0.2,1.5,0.1,2.1,0.7l0,0c0.3,0.3,0.6,0.6,0.9,0.9l0,0
	c4.5,3.8,6.4,9.4,9.4,14.2C84.4,206.9,84.4,208.1,83.9,209.2L83.9,209.2z"/>
<path class="st12" d="M83.9,209.2c-2-4.7-4.4-9.2-7.4-13.5c-0.9-1.2-2.8-2-2.1-4c7.1,3.8,9.9,10.9,12.8,17.7
	C86.1,209.3,85,209.3,83.9,209.2L83.9,209.2z"/>
<path class="st14" d="M93.3,193.7c0.9,0.3,1.8,0.6,2.8,1c0.1,2.6-1.1,4.6-2.8,6.8C90.5,198.6,91.6,196.1,93.3,193.7z"/>
<path class="st12" d="M73.4,190.7c-1,0.6-1.5-0.2-2.1-0.7c0-1.1,0-2.2,0-3.3C72.5,187.7,74.1,188.6,73.4,190.7L73.4,190.7z"/>
<path class="st11" d="M479.3,526.7c-10.9,0.8-21.1-3.2-31.8-4.1c-9-0.8-17.8-0.1-26.4,2.5c-4.7,1.4-9.6,2.7-14.5,0.7
	c-5.1-2-6.5-6-3.4-10.6c2.8-4.2,6.8-5.9,11.7-6.3c8.1-0.6,16.1,0.9,24.1,1.3c11.3,0.7,22-1.2,32-6.5c5.1-2.7,10.6-4.7,16.2-5.8
	c7.8-1.6,14.9,1.8,16.7,7.8c2.4,7.9-1.5,15.8-9.2,18.8C489.8,526.5,484.7,527.2,479.3,526.7L479.3,526.7z"/>
<path class="st9" d="M350.6,681.7c-2.4-0.4-5.6-0.4-5.6-4.6c0-3.6,3.3-6.4,7.4-6c1.8,0.2,4.1,0.6,4,3.3
	C356.3,678.5,354,681.7,350.6,681.7L350.6,681.7z"/>
<path class="st12" d="M344.4,475.5c-0.8-1.2-1.6-2.5-2.5-3.7c2.1-1.1,5-1.4,5.2-4.6c1.2,0.1,2.5,0.3,3.8,0.5c1,1.1,3.3,1.4,2.8,3.5
	c-0.4,1.8-2.3,2.1-3.8,2.6C348.1,474.4,346.2,475,344.4,475.5L344.4,475.5z"/>
<path class="st13" d="M81.1,590.6c4.6-0.1,9.8,5.3,10,10.5c0.2,4.4-6.4,10.2-11.6,10.2c-3.8,0-9-5.5-9-9.5
	C70.5,596.7,76.2,590.7,81.1,590.6L81.1,590.6z"/>
<path class="st12" d="M74.4,191.6c-0.9,0.3-1.2-0.1-0.9-0.9C74.4,190.4,74.6,190.8,74.4,191.6z"/>
<path class="st12" d="M81.5,608.3c-1.9,0.1-7.9-5.4-8-7.4c-0.2-2.4,3.8-6.4,6.5-6.5c2.2-0.1,7,4.4,7.2,6.7
	C87.6,603.7,84,608.2,81.5,608.3z"/>
</svg>
